<?xml version="1.0" encoding="UTF-8" standalone="no"?><!DOCTYPE svg PUBLIC "-//W3C//DTD SVG 1.1//EN" "http://www.w3.org/Graphics/SVG/1.1/DTD/svg11.dtd"><svg width="100%" height="100%" viewBox="0 0 512 512" version="1.1" xmlns="http://www.w3.org/2000/svg" xmlns:xlink="http://www.w3.org/1999/xlink" xml:space="preserve" xmlns:serif="http://www.serif.com/" style="fill-rule:evenodd;clip-rule:evenodd;stroke-linejoin:round;stroke-miterlimit:1.41421;"><path d="M512,256c0,-141.4 -114.6,-256 -256,-256c-141.4,0 -256,114.6 -256,256c0,141.4 114.6,256 256,256c1.5,0 3,0 4.5,-0.1l0,-199.2l-55,0l0,-64.1l55,0l0,-47.2c0,-54.7 33.4,-84.5 82.2,-84.5c23.4,0 43.5,1.7 49.3,2.5l0,57.2l-33.6,0c-26.5,0 -31.7,12.6 -31.7,31.1l0,40.8l63.5,0l-8.3,64.1l-55.2,0l0,189.5c107,-30.7 185.3,-129.2 185.3,-246.1Z" style="fill:#fff;fill-rule:nonzero;"/></svg>