<?xml version="1.0" encoding="UTF-8" standalone="no"?><!DOCTYPE svg PUBLIC "-//W3C//DTD SVG 1.1//EN" "http://www.w3.org/Graphics/SVG/1.1/DTD/svg11.dtd"><svg width="100%" height="100%" viewBox="0 0 596 596" version="1.1" xmlns="http://www.w3.org/2000/svg" xmlns:xlink="http://www.w3.org/1999/xlink" xml:space="preserve" xmlns:serif="http://www.serif.com/" style="fill-rule:evenodd;clip-rule:evenodd;stroke-linejoin:round;stroke-miterlimit:1.41421;"><path d="M409.3,0l-223.3,0c-102.7,0 -186,83.3 -186,186l0,223.2c0,102.7 83.3,186 186,186l223.2,0c102.7,0 186,-83.3 186,-186l0,-223.2c0.1,-102.7 -83.2,-186 -185.9,-186Zm130.2,409.3c0,71.8 -58.4,130.2 -130.2,130.2l-223.3,0c-71.8,0 -130.2,-58.4 -130.2,-130.2l0,-223.3c0,-71.8 58.4,-130.2 130.2,-130.2l223.2,0c71.8,0 130.2,58.4 130.2,130.2l0,223.3l0.1,0Z" style="fill:#27a4d4;fill-rule:nonzero;"/><path d="M297.6,148.8c-82.2,0 -148.8,66.6 -148.8,148.8c0,82.2 66.6,148.8 148.8,148.8c82.2,0 148.8,-66.6 148.8,-148.8c0.1,-82.1 -66.6,-148.8 -148.8,-148.8Zm0,241.9c-51.3,0 -93,-41.7 -93,-93c0,-51.3 41.7,-93 93,-93c51.3,0 93,41.7 93,93c0.1,51.2 -41.7,93 -93,93Z" style="fill:#27a4d4;fill-rule:nonzero;"/><circle cx="457.6" cy="137.7" r="19.8" style="fill:#27a4d4;"/></svg>