<?xml version="1.0" encoding="utf-8"?>
<!-- Generator: Adobe Illustrator 24.3.0, SVG Export Plug-In . SVG Version: 6.00 Build 0)  -->
<!DOCTYPE svg PUBLIC "-//W3C//DTD SVG 1.1//EN" "http://www.w3.org/Graphics/SVG/1.1/DTD/svg11.dtd" [
	<!ENTITY ns_extend "http://ns.adobe.com/Extensibility/1.0/">
	<!ENTITY ns_ai "http://ns.adobe.com/AdobeIllustrator/10.0/">
	<!ENTITY ns_graphs "http://ns.adobe.com/Graphs/1.0/">
	<!ENTITY ns_vars "http://ns.adobe.com/Variables/1.0/">
	<!ENTITY ns_imrep "http://ns.adobe.com/ImageReplacement/1.0/">
	<!ENTITY ns_sfw "http://ns.adobe.com/SaveForWeb/1.0/">
	<!ENTITY ns_custom "http://ns.adobe.com/GenericCustomNamespace/1.0/">
	<!ENTITY ns_adobe_xpath "http://ns.adobe.com/XPath/1.0/">
]>
<svg version="1.1" id="Capa_1" xmlns:x="&ns_extend;" xmlns:i="&ns_ai;" xmlns:graph="&ns_graphs;"
	 xmlns="http://www.w3.org/2000/svg" xmlns:xlink="http://www.w3.org/1999/xlink" x="0px" y="0px" viewBox="0 0 595.3 595.3"
	 style="enable-background:new 0 0 595.3 595.3;" xml:space="preserve">
<style type="text/css">
	.st0{fill:#FFFFFF;}
</style>
<metadata>
	<sfw  xmlns="&ns_sfw;">
		<slices></slices>
		<sliceSourceBounds  bottomLeftOrigin="true" height="483.7" width="595.3" x="0" y="179.1"></sliceSourceBounds>
	</sfw>
</metadata>
<g>
	<g>
		<path class="st0" d="M595.3,113.1c-22.1,9.7-45.7,16.1-70.3,19.3c25.3-15.1,44.6-38.8,53.7-67.5c-23.6,14.1-49.6,24-77.4,29.5
			c-22.4-23.8-54.3-38.6-89.1-38.6c-67.6,0-122,54.8-122,122.1c0,9.7,0.8,19,2.8,27.8c-101.5-4.9-191.2-53.6-251.5-127.6
			c-10.5,18.3-16.7,39.2-16.7,61.7c0,42.3,21.8,79.7,54.2,101.4c-19.6-0.4-38.8-6.1-55.1-15c0,0.4,0,0.9,0,1.3
			c0,59.3,42.3,108.6,97.8,119.9c-9.9,2.7-20.8,4-32,4c-7.8,0-15.7-0.4-23.1-2.1c15.8,48.3,60.7,83.9,114,85
			c-41.5,32.5-94.2,52-151.3,52c-10,0-19.6-0.4-29.2-1.7c54.1,34.9,118.1,54.8,187.2,54.8c224.6,0,347.3-186,347.3-347.3
			c0-5.4-0.2-10.6-0.4-15.8C558.3,159.2,578.7,137.8,595.3,113.1z"/>
	</g>
</g>
</svg>
