<?xml version="1.0" encoding="UTF-8" standalone="no"?><!DOCTYPE svg PUBLIC "-//W3C//DTD SVG 1.1//EN" "http://www.w3.org/Graphics/SVG/1.1/DTD/svg11.dtd"><svg width="100%" height="100%" viewBox="0 0 596 596" version="1.1" xmlns="http://www.w3.org/2000/svg" xmlns:xlink="http://www.w3.org/1999/xlink" xml:space="preserve" xmlns:serif="http://www.serif.com/" style="fill-rule:evenodd;clip-rule:evenodd;stroke-linejoin:round;stroke-miterlimit:1.41421;"><path d="M595.3,113.1c-22.1,9.7 -45.7,16.1 -70.3,19.3c25.3,-15.1 44.6,-38.8 53.7,-67.5c-23.6,14.1 -49.6,24 -77.4,29.5c-22.4,-23.8 -54.3,-38.6 -89.1,-38.6c-67.6,0 -122,54.8 -122,122.1c0,9.7 0.8,19 2.8,27.8c-101.5,-4.9 -191.2,-53.6 -251.5,-127.6c-10.5,18.3 -16.7,39.2 -16.7,61.7c0,42.3 21.8,79.7 54.2,101.4c-19.6,-0.4 -38.8,-6.1 -55.1,-15c0,0.4 0,0.9 0,1.3c0,59.3 42.3,108.6 97.8,119.9c-9.9,2.7 -20.8,4 -32,4c-7.8,0 -15.7,-0.4 -23.1,-2.1c15.8,48.3 60.7,83.9 114,85c-41.5,32.5 -94.2,52 -151.3,52c-10,0 -19.6,-0.4 -29.2,-1.7c54.1,34.9 118.1,54.8 187.2,54.8c224.6,0 347.3,-186 347.3,-347.3c0,-5.4 -0.2,-10.6 -0.4,-15.8c24.1,-17.1 44.5,-38.5 61.1,-63.2Z" style="fill:#27a4d4;fill-rule:nonzero;"/></svg>