<?xml version="1.0" encoding="utf-8"?>
<!-- Generator: Adobe Illustrator 16.0.3, SVG Export Plug-In . SVG Version: 6.00 Build 0)  -->
<!DOCTYPE svg PUBLIC "-//W3C//DTD SVG 1.1//EN" "http://www.w3.org/Graphics/SVG/1.1/DTD/svg11.dtd">
<svg version="1.1" id="Ebene_1" xmlns="http://www.w3.org/2000/svg" xmlns:xlink="http://www.w3.org/1999/xlink" x="0px" y="0px"
	 width="512px" height="512px" viewBox="0 0 512 512" enable-background="new 0 0 512 512" xml:space="preserve">
<path fill="#FFFFFF" d="M224.113,303.961L307.387,256l-83.273-47.961V303.961z"/>
<path fill="#FFFFFF" d="M256,0C114.637,0,0,114.636,0,256s114.637,256,256,256s256-114.637,256-256S397.363,0,256,0z
	 M415.961,256.261c0,0,0,51.918-6.586,76.953c-3.691,13.703-14.496,24.508-28.199,28.195C356.141,368,256,368,256,368
	s-99.879,0-125.176-6.852c-13.703-3.688-24.508-14.496-28.199-28.199c-6.59-24.77-6.59-76.949-6.59-76.949s0-51.914,6.59-76.949
	c3.688-13.703,14.758-24.773,28.199-28.461C155.859,144,256,144,256,144s100.141,0,125.176,6.852
	c13.703,3.688,24.508,14.496,28.199,28.199C416.227,204.086,415.961,256.261,415.961,256.261z"/>
</svg>
