<?xml version="1.0" encoding="UTF-8" standalone="no"?><!DOCTYPE svg PUBLIC "-//W3C//DTD SVG 1.1//EN" "http://www.w3.org/Graphics/SVG/1.1/DTD/svg11.dtd"><svg width="100%" height="100%" viewBox="0 0 100 100" version="1.1" xmlns="http://www.w3.org/2000/svg" xmlns:xlink="http://www.w3.org/1999/xlink" xml:space="preserve" xmlns:serif="http://www.serif.com/" style="fill-rule:evenodd;clip-rule:evenodd;stroke-linejoin:round;stroke-miterlimit:1.41421;"><circle cx="50" cy="50" r="50" style="fill:#f0f0f0;"/><g><path d="M51.671,26.501c0,-0.461 -0.375,-0.835 -0.836,-0.835l-1.67,0c-0.461,0 -0.836,0.374 -0.836,0.835l0,46.998c0,0.461 0.375,0.835 0.836,0.835l1.67,0c0.461,0 0.836,-0.374 0.836,-0.835l0,-46.998Z" style="fill:#303030;"/><path d="M51.386,25.838c-0.23,-0.23 -0.602,-0.23 -0.832,0l-0.832,0.832c-0.23,0.229 -0.23,0.602 0,0.832l11.455,11.455c0.229,0.229 0.602,0.229 0.832,0l0.832,-0.832c0.229,-0.23 0.229,-0.603 0,-0.832l-11.455,-11.455Z" style="fill:#303030;"/><path d="M50.278,27.502c0.23,-0.23 0.23,-0.603 0,-0.832l-0.832,-0.832c-0.23,-0.23 -0.602,-0.23 -0.832,0l-11.455,11.455c-0.229,0.229 -0.229,0.602 0,0.832l0.832,0.832c0.23,0.229 0.603,0.229 0.832,0l11.455,-11.455Z" style="fill:#303030;"/></g></svg>