<?xml version="1.0" encoding="UTF-8" standalone="no"?><!DOCTYPE svg PUBLIC "-//W3C//DTD SVG 1.1//EN" "http://www.w3.org/Graphics/SVG/1.1/DTD/svg11.dtd"><svg width="100%" height="100%" viewBox="0 0 800 608" version="1.1" xmlns="http://www.w3.org/2000/svg" xmlns:xlink="http://www.w3.org/1999/xlink" xml:space="preserve" xmlns:serif="http://www.serif.com/" style="fill-rule:evenodd;clip-rule:evenodd;stroke-linejoin:round;stroke-miterlimit:1.41421;"><rect x="0.275" y="0.365" width="643.862" height="412.358" style="fill:#e6e6e6;"/><rect x="18.686" y="52.085" width="607.039" height="336.243" style="fill:#fff;"/><rect x="0" y="0" width="643.862" height="27.354" style="fill:url(#_Linear1);"/><circle cx="20.327" cy="13.985" r="5.07" style="fill:#fff;"/><circle cx="39.571" cy="13.985" r="5.07" style="fill:#fff;"/><circle cx="58.814" cy="13.985" r="5.07" style="fill:#fff;"/><rect x="73.844" y="86.973" width="155.981" height="266.467" style="fill:#81bc4f;"/><rect x="256.75" y="86.973" width="129.984" height="73.348" style="fill:#fdc600;"/><rect x="256.75" y="180.747" width="129.984" height="78.919" style="fill:#e6e6e6;"/><rect x="256.75" y="280.092" width="129.984" height="73.348" style="fill:#00a6d4;"/><rect x="414.587" y="86.973" width="155.981" height="116.125" style="fill:#e6e6e6;"/><rect x="414.587" y="237.315" width="155.981" height="116.125" style="fill:#fdc600;"/><path d="M736.639,206.679c-10.289,-17.535 -30.645,-18.353 -30.645,-18.353c0,0 -19.836,-2.558 -32.56,24.149c-11.86,24.893 -28.229,48.928 -2.635,54.755l4.623,-14.513l2.863,15.593c3.644,0.265 7.299,0.328 10.95,0.189c27.409,-0.893 53.511,0.261 52.671,-9.659c-1.117,-13.188 4.633,-35.288 -5.267,-52.161Z" style="fill:#2f2e41;fill-rule:nonzero;"/><path d="M639.068,300.306l-9,23l-45,42c0,0 -27,20 -15,26c12,6 23,-22 23,-22l48,-29l10,-33l-12,-7Z" style="fill:#ffb8b8;fill-rule:nonzero;"/><path d="M654.068,555.306l9,23l13,0l-11,-27l-11,4Z" style="fill:#ffb8b8;fill-rule:nonzero;"/><path d="M693.068,565.306l9,23l13,0l-11,-27l-11,4Z" style="fill:#ffb8b8;fill-rule:nonzero;"/><path d="M692.068,569.306l17,-4l-22,-89l7.305,-68.481l0.195,-0.019c0,0 12.5,-48.5 2.5,-61.5c-10,-13 -60,-8 -60,-8c0,0 -19,19 -18,62c1,43 0,80 7,97c7,17 27,62 27,62l16,-2l-17,-74l-2.718,-64.327c2.163,25.778 6.517,74.658 8.718,78.327c3,5 34,72 34,72Z" style="fill:#2f2e41;fill-rule:nonzero;"/><path d="M743.068,321.306l7,25l31,56c0,0 27,24 16,27c-11,3 -28,-22 -28,-22l-35,-49l-9,-36l18,-1Z" style="fill:#ffb8b8;fill-rule:nonzero;"/><circle cx="707.068" cy="225.306" r="25" style="fill:#ffb8b8;"/><path d="M694.068,238.306l-6,19l-10,22l37,-15c0,0 -2,-16 0,-20l-21,-6Z" style="fill:#ffb8b8;fill-rule:nonzero;"/><path d="M737.068,278.306l-23,-19l-26,11l1.019,-16.226l-27.741,8.86l-4.278,1.366l-6,31c0,0 -4,3 -8,20c-2.309,9.99 -5.661,19.71 -10,29c-4.339,9.29 43,-17 64,6c0,0 3,-2 2,-5c-1,-3 9,-18 9,-18c0,0 0,3 4,-3c4,-6 7,-7 7,-7l18,-39Z" style="fill:#fdc600;fill-rule:nonzero;"/><path d="M663.068,267.306l-4.368,-3.522c0,0 -3.632,-1.478 -6.632,3.522c-3,5 -18,36 -18,36l18,9l11,-45Z" style="fill:#fdc600;fill-rule:nonzero;"/><path d="M723.068,277.306l14,1c0,0 8,4 8,10c0,6 2,38 2,38l-22,7l-9,-28l7,-28Z" style="fill:#fdc600;fill-rule:nonzero;"/><path d="M660.179,574.806l-17,7c0,0 -20,1 -17,11c3,10 33,3 33,3c0,0 27,1 27,-6c0,-7 -4,-15 -8,-15l-18,0Z" style="fill:#2f2e41;fill-rule:nonzero;"/><path d="M698.179,583.806l-17,7c0,0 -20,1 -17,11c3,10 33,3 33,3c0,0 27,1 27,-6c0,-7 -4,-15 -8,-15l-18,0Z" style="fill:#2f2e41;fill-rule:nonzero;"/><path d="M732.09,204.989l-20.111,-10.626l-27.771,4.347l-5.746,25.597l14.303,-0.554l3.996,-9.405l0,9.25l6.6,-0.256l3.83,-14.972l2.394,15.937l23.463,-0.483l-0.958,-18.835Z" style="fill:#2f2e41;fill-rule:nonzero;"/><path d="M597.58,83.546c-24.353,-20.549 -55.21,-31.828 -87.074,-31.828c-74.07,0 -135.02,60.95 -135.02,135.019c0,74.07 60.95,135.02 135.02,135.02c35.433,0 69.48,-13.948 94.729,-38.808l165.618,139.748c2.244,1.894 5.089,2.934 8.025,2.934c6.826,0 12.442,-5.617 12.442,-12.442c0,-3.664 -1.618,-7.148 -4.419,-9.51l-165.618,-139.748c39.665,-56.929 29.323,-135.636 -23.703,-180.385Zm-10.677,166.928c-19.209,22.765 -47.525,35.922 -77.312,35.922c-55.493,0 -101.158,-45.664 -101.158,-101.158c0,-55.493 45.665,-101.157 101.158,-101.157c23.872,0 46.991,8.45 65.236,23.845c42.412,35.787 47.863,100.136 12.076,142.548Z" style="fill:#3f3d56;fill-rule:nonzero;"/><path d="M444.355,262.551c-40.023,-33.775 -47.54,-93.329 -17.165,-135.989c-1.934,1.948 -3.804,3.988 -5.61,6.12c-15.398,18.245 -23.85,41.366 -23.85,65.241c0,55.493 45.664,101.158 101.158,101.158c29.789,0 58.108,-13.159 77.317,-35.928c1.801,-2.135 3.498,-4.321 5.089,-6.559c-36.943,37.119 -96.912,39.727 -136.939,5.957Z" style="fill-opacity:0.3;fill-rule:nonzero;"/><defs><linearGradient id="_Linear1" x1="0" y1="0" x2="1" y2="0" gradientUnits="userSpaceOnUse" gradientTransform="matrix(643.862,0,0,27.3536,0,13.6768)"><stop offset="0" style="stop-color:#00a6d4;stop-opacity:1"/><stop offset="1" style="stop-color:#81d24f;stop-opacity:1"/></linearGradient></defs></svg>