<svg width="89" height="254" viewBox="0 0 89 254" fill="none" xmlns="http://www.w3.org/2000/svg">
<path d="M31.353 18.6589C32.697 22.8325 30.9784 27.0282 27.513 28.0297C24.0482 29.0316 20.149 26.4605 18.8046 22.2866C17.4605 18.1127 19.1795 13.9173 22.6449 12.9158C26.1097 11.9143 30.0089 14.4853 31.353 18.6589Z" fill="#E8734D"/>
<path d="M83.5428 243.255C83.5428 243.255 89.7743 251.202 88.9195 252.462C88.0647 253.722 81.5116 253.901 77.5224 252.462C73.5328 251.022 73.4384 241.707 71.6337 237.705C70.8777 236.03 72.4948 231.085 74.7675 230.726C77.0412 230.368 79.5137 231.421 79.5137 231.421C79.5137 231.421 77.1559 237.058 83.5428 243.255Z" fill="black"/>
<path d="M79.5555 231.357C79.5555 231.357 80.8662 234.741 81.3455 237.972C81.7429 240.652 85.7851 246.342 85.5953 247.062C85.4055 247.782 80.2766 248.434 78.1871 246.579C76.0976 244.723 74.7532 239.326 74.2932 236.099C73.8647 233.092 73.3237 231.607 73.3237 231.607C73.3237 231.607 77.5604 229.377 79.5555 231.357Z" fill="#F0C6B4"/>
<path d="M29.3001 243.386C29.3001 243.386 35.3066 251.202 34.4524 252.462C33.5976 253.722 27.0445 253.901 23.0546 252.462C19.066 251.022 18.971 241.707 17.1663 237.705C16.4106 236.03 18.0276 231.085 20.3004 230.726C22.5735 230.368 25.2389 231.497 25.2389 231.497C25.2389 231.497 22.9135 237.19 29.3001 243.386Z" fill="black"/>
<path d="M25.239 231.497C25.239 231.497 25.7146 235.186 26.4743 237.796C27.2341 240.406 31.3184 246.343 31.128 247.063C30.9388 247.784 25.8096 248.435 23.7201 246.58C21.6309 244.724 20.0163 239.351 19.8262 236.1C19.6364 232.848 20.3008 230.726 20.3008 230.726C20.3008 230.726 23.2452 229.518 25.239 231.497Z" fill="#F0C6B4"/>
<path d="M55.2579 102.107C55.2579 102.107 60.6056 125.675 61.8337 131.608C63.0619 137.542 66.5011 166.279 66.8691 171.165C67.2378 176.052 72.449 194.463 72.2034 196.209C71.9578 197.954 79.9301 233.011 79.9301 233.011C79.9301 233.011 77.2077 235.087 74.3372 233.199C72.8613 232.228 56.8454 200.379 56.8454 191.652C56.8454 179.592 47.4302 163.846 46.2155 161.148C34.9299 136.08 37.1519 128.415 35.6782 126.786C34.2047 125.157 34.0767 127.792 33.2169 131.399C32.3567 135.006 30.5162 166.186 29.4112 170.142C28.3061 174.098 29.164 187.477 28.5501 194.226C27.9362 200.974 25.2393 231.497 25.2393 231.497C25.2393 231.497 23.1517 234.597 20.2223 231.578C19.5918 230.928 15.1647 197.576 15.042 189.548C14.9189 181.52 14.788 170.449 14.5505 166.977C12.2746 133.71 6.68326 128.959 15.491 105.415C31.9818 61.3332 55.2579 102.107 55.2579 102.107Z" fill="#F0C6B4"/>
<path d="M19.3464 95.8336C19.3464 95.8336 1.56941 120.358 10.0471 174.882C10.0471 174.882 62.1838 180.628 68.0338 169.496C74.9559 156.324 58.7926 110.818 55.258 102.419C52.3573 95.5259 19.3464 95.8336 19.3464 95.8336Z" fill="black"/>
<path d="M71.4666 237.007V245.328H72.6059V238.896L71.4666 237.007Z" fill="black"/>
<path d="M16.9996 237.007V245.328H18.1393V238.896L16.9996 237.007Z" fill="black"/>
<path d="M42.4715 31.9885C42.4715 31.9885 42.3178 33.3217 42.1358 35.1653C42.0573 35.9815 41.9716 36.8999 41.8906 37.8459C41.6622 40.5304 41.4764 43.4387 41.5852 44.9179C41.5852 44.9179 35.7529 50.4555 29.1198 38.4563C29.1198 38.4563 31.9101 33.5095 29.8094 26.7701C27.708 20.0323 42.4715 31.9885 42.4715 31.9885Z" fill="#F0C6B4"/>
<path d="M44.4604 1.34303C44.4604 1.34303 57.5376 5.23666 50.4388 26.6154C43.3394 47.9944 25.4799 24.1377 27.3479 11.1125C29.2158 -1.91344 44.4604 1.34303 44.4604 1.34303Z" fill="#F0C6B4"/>
<path d="M51.7745 13.8178C51.7745 13.8178 45.2769 19.8583 34.4024 20.6138C34.4024 20.6138 30.2234 25.2558 29.9021 27.0775C29.9021 27.0775 18.5233 9.07489 32.1265 2.01914C46.5387 -5.45609 56.1586 9.94779 51.7745 13.8178Z" fill="#E8734D"/>
<path d="M34.318 20.4921C34.2336 18.9369 33.2217 15.3955 30.7804 16.3864C28.3396 17.3777 30.9296 24.5885 32.5495 24.1454C32.5495 24.1454 34.5169 24.174 34.318 20.4921Z" fill="#F0C6B4"/>
<path d="M58.8706 57.3845C58.8706 57.3845 59.228 64.9124 57.4474 69.227L55.8113 68.4226C55.811 68.4223 58.8398 60.8904 58.8706 57.3845Z" fill="#1D3B54"/>
<path d="M41.6961 81.3924C41.0461 81.0869 39.3392 80.4696 37.8103 80.0119C36.1135 79.5042 34.4646 79.4152 33.9941 79.6908C33.5235 79.9664 30.5047 81.861 30.5047 81.861C28.484 85.6672 29.7365 86.3747 29.7365 86.3747C32.7647 87.1302 37.0805 88.0713 37.9054 88.2364C38.4885 88.3541 40.0304 88.1532 40.0304 88.1532C40.7432 87.7624 40.5294 86.8496 40.5294 86.8496C41.4565 86.2377 41.2106 85.3091 41.2106 85.3091C41.9146 84.6613 41.6064 83.6872 41.6064 83.6872C41.6064 83.6872 41.7317 83.552 41.8728 83.3294C46.8334 84.5165 48.5122 84.1988 48.6406 83.4265C48.7182 82.965 43.6719 81.8215 41.6961 81.3924Z" fill="#EEA886"/>
<path d="M54.0572 82.5076C55.0516 77.7373 53.62 75.5016 54.3813 71.759L60.2587 70.1976C60.2587 70.1976 59.5093 60.1364 59.3843 57.5323C59.2596 54.9283 58.8215 49.8379 56.0239 46.1943C53.5751 43.0032 49.5142 41.4907 48.5419 41.1634C48.4736 41.1347 48.4094 41.1142 48.3496 41.1011C48.3362 41.097 48.3275 41.0942 48.3275 41.0942C46.3785 40.7249 39.7914 38.1249 39.7914 38.1249C36.1275 37.6079 30.912 37.8651 29.1192 38.4562C27.3263 39.047 17.3406 40.008 13.6767 42.7033C13.1506 43.0904 12.7636 43.6391 12.4875 44.3037C12.1662 44.7546 11.8745 45.2569 11.6264 45.8212C9.31254 51.0879 7.42122 57.0839 5.79885 59.8349C4.17647 62.5869 -1.33668 75.1529 0.300346 76.6617C1.9383 78.1702 5.3021 79.9649 10.3674 81.0937C12.8172 81.6394 17.4481 83.1049 21.677 84.5075C21.9042 87.1237 21.892 89.7707 21.3943 90.5564C20.4588 92.0335 13.1728 102.372 13.1728 102.372C20.422 108.427 57.3035 107.89 57.0701 104.567C56.8367 101.244 52.81 88.4889 54.0572 82.5076ZM13.5315 71.8195C13.5315 71.8195 14.8734 68.5795 16.2184 65.7129C17.09 68.3708 18.0926 71.41 18.9387 73.9296C17.8663 73.4152 16.5892 72.8443 13.5315 71.8195Z" fill="#00A6D4"/>
<path d="M41.6961 81.3924C41.0461 81.0869 39.3392 80.4696 37.8103 80.0119C36.1135 79.5042 34.4646 79.4152 33.9941 79.6908C33.5235 79.9664 30.5047 81.861 30.5047 81.861C28.484 85.6672 29.7365 86.3747 29.7365 86.3747C32.7647 87.1302 37.0805 88.0713 37.9054 88.2364C38.4885 88.3541 40.0304 88.1532 40.0304 88.1532C40.7432 87.7624 40.5294 86.8496 40.5294 86.8496C41.4565 86.2377 41.2106 85.3091 41.2106 85.3091C41.9146 84.6613 41.6064 83.6872 41.6064 83.6872C41.6064 83.6872 41.7317 83.552 41.8728 83.3294C46.8334 84.5165 48.5122 84.1988 48.6406 83.4265C48.7182 82.965 43.6719 81.8215 41.6961 81.3924Z" fill="#F0C6B4"/>
<path d="M42.2806 95.1147L62.5727 93.5629C63.4858 93.4932 64.3088 93.0155 64.7894 92.2768L85.8192 59.9636C86.9934 58.159 85.639 55.8308 83.4015 55.8087L61.6587 55.5907C60.5941 55.5804 59.6103 56.1276 59.1017 57.0133L39.5229 91.0962C38.4306 92.9977 40.0031 95.2885 42.2806 95.1147Z" fill="#FDC600"/>
<path d="M70.6932 83.236C70.6932 83.236 71.9693 82.1139 73.1065 80.5419C74.2433 78.9702 77.9624 72.9711 77.6224 72.5943C77.2821 72.2174 71.7596 72.0895 70.7586 72.943C69.7577 73.7969 71.744 74.1317 71.744 74.1317C71.744 74.1317 68.7246 74.4263 68.9399 75.2338C69.1553 76.0407 70.974 75.818 70.974 75.818C70.974 75.818 68.5435 76.2593 68.9116 76.9684C69.2799 77.6775 70.4495 77.67 70.4495 77.67C70.4495 77.67 68.2948 77.9257 68.5613 78.6996C68.8274 79.4744 72.2351 80.2053 71.7798 80.8484C71.3245 81.4917 70.6932 83.236 70.6932 83.236Z" fill="#F0C6B4"/>
<path d="M28.156 38.6843C28.156 38.6843 35.4807 49.984 41.2908 49.8513C47.1012 49.7177 43.1366 39.3996 43.1366 39.3996C43.1366 39.3996 38.6787 36.0201 28.156 38.6843Z" fill="#F0C6B4"/>
<path d="M66.3144 76.6038C64.352 78.4633 61.7003 78.9656 60.3927 77.7268C59.0848 76.4876 59.6155 73.9767 61.5779 72.1179C63.5409 70.2584 66.1913 69.7561 67.4993 70.9949C68.8069 72.234 68.2765 74.7453 66.3144 76.6038Z" fill="black"/>
<path d="M52.8365 10.8479C52.8365 10.8479 53.6536 13.8129 52.275 19.0045C52.275 19.0045 52.4894 14.119 51.4114 12.7877C50.3341 11.4561 52.8365 10.8479 52.8365 10.8479Z" fill="#E8734D"/>
</svg>
