<svg width="125" height="259" viewBox="0 0 125 259" fill="none" xmlns="http://www.w3.org/2000/svg">
<path d="M94.2142 50.1429C94.2142 50.1429 93.4596 42.6465 97.3798 42.9033C101.301 43.1601 102.338 44.9581 101.901 46.3989C101.463 47.8397 97.65 52.6059 97.65 52.6059L94.2142 50.1429Z" fill="#FFB27D"/>
<path d="M88.0884 89.9952C81.2486 90.2694 67.5412 86.2535 62.3695 84.1282C57.4592 82.1117 53.208 79.9509 49.5822 77.8373C48.6087 77.2714 47.6815 76.7087 46.7976 76.1515C37.467 70.2657 33.1234 65.1649 33.1234 65.1649C33.1234 65.1649 50.6131 50.0445 57.6677 54.0034C65.9446 58.6504 80.215 73.6626 82.6246 72.1218C85.339 70.3859 92.9123 49.1093 92.9123 49.1093C97.8987 48.1593 98.9776 51.9308 98.9776 51.9308C98.9776 51.9308 97.7973 89.6061 88.0884 89.9952Z" fill="#99C756"/>
<path d="M59.2019 248.879C59.2019 248.879 58.4852 257.172 60.2385 258.035L82.6733 257.989C82.6733 257.989 82.6733 255.399 79.0696 254.824C75.4663 254.249 69.1358 252.139 68.0646 247.44C66.993 242.741 59.2019 248.879 59.2019 248.879Z" fill="black"/>
<path d="M75.6728 148.507C75.562 153.93 75.3018 159.523 74.7916 164.55C72.3682 188.404 71.5172 217.225 71.1684 222.782C70.5652 232.428 68.6591 247.838 68.6591 247.838C68.6591 247.838 64.8798 251.426 57.5124 249.714C57.5124 249.714 51.4088 227.519 50.0452 204.149C50.024 203.765 50.0032 203.38 49.9834 202.995C49.8253 199.905 49.6595 196.372 49.4909 192.563C48.3684 167.046 47.1488 129.14 47.1488 129.14L75.3012 122.529C75.3015 122.529 75.9494 134.988 75.6728 148.507Z" fill="black"/>
<path d="M16.9516 144.497C16.9516 144.497 15.2043 151.349 15.4907 152.872C15.7767 154.395 17.4834 159.551 18.5469 160.831C19.611 162.111 19.6543 155.27 20.3609 154.195C21.0683 153.12 20.6856 156.749 21.2519 157.046C21.8189 157.343 22.7638 154.298 23.1855 153.218C23.6064 152.138 21.6735 148.379 21.4953 145.685C21.317 142.991 16.9516 144.497 16.9516 144.497Z" fill="#F0C6B4"/>
<path d="M3.31475 239.454C3.31475 239.454 -0.678338 243.098 0.100809 245.687C0.880292 248.276 4.48397 250.002 4.97106 253.167C5.45748 256.331 7.40552 258.057 9.15886 258.057C10.9115 258.057 17.5163 258.057 17.5163 258.057C17.5163 258.057 18.8067 255.831 15.6905 255.159C12.5735 254.488 11.3986 250.769 11.5933 247.317C11.788 243.865 11.3016 239.262 11.3016 239.262L4.67867 237.728L3.31475 239.454Z" fill="black"/>
<path d="M70.8654 129.718C70.8654 129.718 44.5114 186.105 30.4871 210.846C16.4628 235.587 12.0803 242.492 12.0803 242.492C12.0803 242.492 4.04508 239.327 3.31494 237.17C3.31494 237.17 8.67833 189.406 18.0697 177.762C23.3767 171.183 29.6106 151.439 29.903 144.534C30.1947 137.63 36.352 121.15 36.352 121.15L70.8654 129.718Z" fill="black"/>
<path d="M75.7756 126.783C75.7756 126.783 67.1949 136.019 52.612 138.808C46.2127 140.033 33.2223 141.217 30.0007 136.66C29.244 135.59 29.2376 134.007 29.4055 131.534C29.8388 125.107 31.4555 112.681 24.1569 87.7092C23.4771 85.3862 23.0185 83.1585 22.753 81.0346C21.1598 68.2597 26.5474 59.1933 32.8735 55.1482C48.301 45.2801 55.8404 52.0957 55.8404 52.0957C55.8404 52.0957 64.6729 56.2234 68.7089 68.2517C76.7793 92.3116 75.7756 126.783 75.7756 126.783Z" fill="#99C756"/>
<path d="M37.4675 52.5663C37.4675 52.5663 46.2987 55.4308 54.356 52.1181C54.356 52.1181 55.9113 51.3047 54.6366 49.5544C54.7749 47.8656 54.7467 48.0213 54.7652 46.786C54.8636 43.9302 54.7212 42.3299 54.7212 42.3299L48.7861 38.4628L43.1549 34.7577C44.6161 46.458 37.4675 52.5663 37.4675 52.5663Z" fill="#F0C6B4"/>
<path d="M59.9941 40.8251C59.9941 40.8251 45.6975 46.1603 42.5165 37.3517C39.3358 28.543 35.348 23.2995 44.342 19.5206C53.3349 15.7417 56.332 18.4682 58.1212 21.1497C59.9095 23.8309 63.631 39.2101 59.9941 40.8251Z" fill="#F0C6B4"/>
<path d="M33.6106 20.5102C33.4461 20.383 33.1124 20.3202 32.4165 20.4186C32.4165 20.4186 32.8986 19.9657 33.6307 19.8022C33.5854 18.8163 33.76 17.0217 35.3263 16.2845C35.3263 16.2845 34.5344 16.9314 34.6197 17.9717C36.1407 15.6349 39.9481 13.4009 51.447 12.0578C66.6013 10.288 63.5706 20.8133 61.864 22.3337C60.1573 23.8544 54.6781 21.6925 51.1348 22.6892C47.5916 23.6862 47.9347 29.0221 46.8547 29.9771C45.7748 30.9322 46.0058 29.5753 44.2058 29.1547C42.4068 28.7344 42.7901 31.5029 43.619 33.1887C44.4478 34.8746 42.6414 37.6706 42.6414 37.6706C42.6414 37.6706 42.6414 37.6706 39.8595 35.6534C37.0776 33.6359 32.8485 23.5993 33.4511 21.1628C33.5045 20.947 33.5562 20.7291 33.6106 20.5102Z" fill="#282828"/>
<path d="M33.5208 54.7405C33.5208 54.7405 22.3267 61.0814 18.4971 75.2272C15.3584 86.8174 10.5066 104.06 9.92315 109.451C9.33971 114.843 15.8425 146.411 15.8425 146.411C15.8425 146.411 16.7596 147.079 19.0067 146.629C21.1565 146.2 22.1579 144.745 22.1579 144.745C22.1579 144.745 23.7131 123.705 23.312 113.771C23.1448 109.643 42.4184 83.5437 52.8202 80.1814C56.9053 78.8608 33.5208 54.7405 33.5208 54.7405Z" fill="#99C756"/>
<path d="M41.2752 47.2303C41.2752 47.2303 39.406 48.1441 35.7809 52.9664C35.7809 52.9664 42.5307 61.4326 52.2752 60.3278C52.2752 60.3278 51.0734 55.9409 51.1355 53.1533C51.1355 53.153 42.9899 52.2456 41.2752 47.2303Z" fill="#FDC600"/>
<path d="M51.1355 53.1528C51.1355 53.1528 56.3401 54.5107 57.5892 58.253C57.5892 58.253 58.6927 55.0344 57.7205 53.2173C56.7483 51.3998 54.6368 49.5542 54.6368 49.5542C54.6368 49.5542 55.3481 51.8524 51.1355 53.1528Z" fill="#FDC600"/>
<path d="M122.765 32.2621C122.765 32.2621 103.478 31.7139 81.2203 35.8114L78.8953 29.9515L76.3453 23.5317C76.3453 23.5317 98.6895 13.9124 112.122 0.516479L122.765 32.2621Z" fill="#00A6D4"/>
<path d="M111.816 0.205929L122.889 32.8942C124.508 32.4148 125.394 30.6752 124.829 29.0837L115.083 1.61853C114.612 0.287839 113.109 -0.36173 111.816 0.205929Z" fill="#FDC600"/>
<path d="M122.765 32.2623C122.765 32.2623 103.478 31.7141 81.2203 35.8116L78.8953 29.9517C99.8087 25.681 122.765 32.2623 122.765 32.2623Z" fill="#27A4D4"/>
<path d="M87.3736 34.6332L81.3472 35.6934C81.4388 35.6967 75.7492 36.8005 73.884 31.757C77.2933 29.2769 85.7488 28.9227 85.7488 28.9227C85.7488 28.9227 85.7488 28.9227 85.7475 28.9536L87.3736 34.6332Z" fill="#27A4D4"/>
<path d="M101.245 56.5918C99.092 57.0222 96.9781 55.6126 96.5474 53.4595L92.735 34.3823C92.3049 32.2291 93.7145 30.1153 95.8676 29.6849C98.0208 29.2549 100.135 30.6645 100.565 32.8176L104.377 51.8948C104.808 54.0479 103.398 56.1618 101.245 56.5918Z" fill="#27A4D4"/>
<path d="M100.731 38.1183C100.731 38.1183 97.7821 39.2933 98.323 40.5917C98.8631 41.8899 102.612 43.6751 103.204 42.6506C103.795 41.6264 102.585 37.023 100.731 38.1183Z" fill="#FFB27D"/>
<path d="M94.1571 48.962C94.1571 48.962 93.6005 45.9462 93.5656 44.5604C93.5307 43.1747 93.1302 42.1276 93.4562 42.0884C93.7828 42.0491 93.9631 42.2911 94.096 42.7366C94.229 43.1821 95.0343 45.8743 95.0343 45.8743L94.7765 48.5411L94.1571 48.962Z" fill="#FFB27D"/>
</svg>
