<svg width="133" height="291" viewBox="0 0 133 291" fill="none" xmlns="http://www.w3.org/2000/svg">
<path d="M79.5091 104.24L71.9844 105.238L74.4018 123.462L81.9265 122.464L79.5091 104.24Z" fill="#F0C6B4"/>
<path d="M89.2676 87.0025C88.4323 86.7202 87.5319 86.91 86.7635 87.4356C86.0647 79.9967 79.1931 74.5732 71.614 75.8464C63.9642 76.593 58.7448 83.6207 60.0091 90.9843C59.1301 90.6772 58.2114 90.7287 57.4791 91.2189C56.0735 92.1591 55.8874 94.3433 57.0636 96.097C58.2399 97.851 60.3331 98.5108 61.7387 97.5706C61.9342 97.4398 62.1034 97.2834 62.2511 97.1094C63.9244 103.114 69.6452 107.023 75.6327 106.142C81.6426 105.431 86.147 100.166 86.197 93.9327C86.385 94.0624 86.5891 94.1696 86.8116 94.2444C88.4142 94.7857 90.2627 93.6031 90.9408 91.6035C91.6183 89.6035 90.8694 87.5435 89.2676 87.0025Z" fill="#F0C6B4"/>
<path d="M86.0157 72.7708C83.2695 68.3848 73.3935 66.0191 67.482 67.6329C67.482 67.6329 67.6621 69.1592 68.27 69.9393C67.5617 69.2438 64.846 67.1999 59.012 69.416C59.012 69.416 60.0834 71.2776 60.6273 71.9636C60.6273 71.9636 58.5214 72.2321 56.6981 71.6302C56.6981 71.6302 55.2219 75.1071 57.1207 78.0281L54.9741 77.4834C54.9741 77.4834 56.5745 84.4764 57.9774 88.7064C58.2361 90.0093 58.4631 90.8311 58.4631 90.8311C58.5733 90.8195 59.7379 90.495 61.5608 91.9044C61.6589 91.8371 61.7615 91.7668 61.8769 91.6879C63.131 90.8292 62.5968 84.7306 64.4103 82.0137C67.8873 79.9664 75.9829 78.6262 78.9806 79.1747C82.4767 79.8145 83.6601 87.9876 85.3401 88.5759C85.4721 88.6222 85.5898 88.6631 85.7018 88.7026C86.766 86.7839 88.3032 86.8906 88.4126 86.873C88.4126 86.8726 88.7622 77.1567 86.0157 72.7708Z" fill="black"/>
<path d="M67.0579 110.086L85.5716 107.631L81.648 116.55C81.648 116.55 73.4013 118.029 72.5874 117.752C71.7743 117.475 67.0579 110.086 67.0579 110.086Z" fill="#F0C6B4"/>
<path d="M62.4718 167.437C62.4718 167.437 54.2844 240.459 55.6122 265.906L70.0738 267.629L85.1346 183.147L87.0402 183.221L96.7418 268.192H109.871C109.871 268.192 112.039 183.368 104.958 159.47C97.8764 135.572 62.4718 167.437 62.4718 167.437Z" fill="black"/>
<path d="M67.5621 271.348L67.2629 281.925L60.2421 287.015C60.2421 287.015 57.5771 281.935 57.6433 281.316C57.7091 280.698 57.6406 268.569 57.6406 268.569L67.5621 271.348Z" fill="#F0C6B4"/>
<path d="M99.1836 271.348L99.4828 281.925L106.504 287.015C106.504 287.015 108.802 281.935 108.736 281.316C108.67 280.698 109.105 268.569 109.105 268.569L99.1836 271.348Z" fill="#F0C6B4"/>
<path d="M55.197 264.957L70.4127 266.77C70.8322 266.82 71.1217 267.216 71.042 267.631L70.0123 272.995C69.9394 273.376 69.5811 273.632 69.1969 273.58L54.947 271.611C54.5831 271.561 54.3135 271.247 54.3184 270.88L54.3827 265.672C54.3876 265.239 54.7673 264.905 55.197 264.957Z" fill="#444444"/>
<path d="M46.1468 124.593L50.8447 110.822L46.9377 109.949C38.6598 109.698 30.8506 105.833 29.589 104.519C26.9124 101.732 36.3572 83.0767 36.3572 83.0767L29.048 81.5981C29.048 81.5981 12.2357 104.13 19.4088 111.829C26.5816 119.528 44.1461 124.408 44.1461 124.408L46.1468 124.593Z" fill="#F0C6B4"/>
<path d="M109.506 116.189L101.381 104.12L104.925 102.259C112.851 99.8587 119.383 94.0908 120.258 92.4935C122.116 89.1049 108.134 73.5565 108.134 73.5565L114.805 70.2239C114.805 70.2239 136.91 87.5937 131.992 96.8968C127.074 106.2 111.39 115.489 111.39 115.489L109.506 116.189Z" fill="#F0C6B4"/>
<path d="M111.149 265.363L95.9338 267.175C95.5142 267.226 95.2248 267.621 95.3045 268.037L96.3341 273.401C96.4071 273.782 96.7653 274.038 97.1495 273.986L111.399 272.017C111.763 271.966 112.033 271.653 112.028 271.286L111.963 266.078C111.958 265.644 111.579 265.311 111.149 265.363Z" fill="#444444"/>
<path d="M112.847 116.064L105.03 101.337C100.227 103.519 92.7167 105.479 88.8777 106.407C87.2872 106.792 85.7684 107.434 84.3797 108.3C84.3275 108.332 84.276 108.364 84.2245 108.396C79.537 111.303 73.8402 112.059 68.5569 110.474C68.4994 110.457 68.4404 110.439 68.3821 110.421C66.8156 109.948 65.1818 109.724 63.5461 109.767C59.5974 109.871 51.8367 109.936 46.6309 109.083L42.9238 125.339C50.892 127.045 58.0974 126.69 58.0974 126.69L60.4583 173.477C76.6006 174.963 92.8716 172.836 108.088 167.247L108.467 167.109L98.5492 121.325C98.5496 121.325 105.599 119.788 112.847 116.064Z" fill="#FDC600"/>
<path d="M126.83 68.6404L13.6373 83.6542C11.2982 83.9644 9.15093 82.3197 8.84079 79.981L0.864714 19.8479C0.554573 17.5088 2.19888 15.3615 4.53791 15.0514L117.731 0.0375587C120.07 -0.272582 122.217 1.37211 122.528 3.71076L130.504 63.8439C130.813 66.1826 129.169 68.3303 126.83 68.6404Z" fill="#00A6D4"/>
<path d="M36.9829 80.5456C36.9829 80.5456 39.0832 79.7103 39.1408 77.9728C39.1986 76.2349 40.3633 77.0412 40.4633 77.7972C40.564 78.5528 41.7892 81.996 36.3578 83.0764C30.926 84.1564 29.0486 81.5979 29.0486 81.5979L36.9829 80.5456Z" fill="#FFC0BB"/>
<path d="M106.87 71.2761C106.87 71.2761 104.625 71.0175 104.116 69.3547C103.607 67.692 102.693 68.7747 102.793 69.5303C102.893 70.2859 102.608 73.9294 108.134 73.5565C113.659 73.1836 114.804 70.2242 114.804 70.2242L106.87 71.2761Z" fill="#FFC0BB"/>
<path d="M115.804 12.3372L9.92505 26.3824L10.4638 30.444L116.343 16.3988L115.804 12.3372Z" fill="white"/>
<path d="M117.455 24.7813L11.5762 38.8267L12.115 42.8886L117.994 28.8433L117.455 24.7813Z" fill="white"/>
<path d="M119.106 37.2267L13.2271 51.272L13.7658 55.3336L119.645 41.2883L119.106 37.2267Z" fill="white"/>
<path d="M103.697 51.9346L31.9377 61.4537L32.4766 65.5157L104.236 55.9965L103.697 51.9346Z" fill="white"/>
<path d="M47.7102 290.95L67.578 290.938C68.1919 290.938 68.6892 290.44 68.6889 289.825C68.6885 289.211 68.1908 288.714 67.5765 288.714L47.7087 288.727C47.0944 288.728 46.597 289.225 46.5974 289.839C46.5982 290.454 47.0959 290.951 47.7102 290.95Z" fill="#444444"/>
<path d="M67.672 281.961L68.4081 288.143C68.4986 288.906 68.0724 289.598 67.5126 289.598L48.0455 289.61C47.5399 289.61 47.0399 289.295 46.7737 288.702C46.5008 288.094 46.4463 287.178 47.3166 285.945C49.009 283.549 54.4667 282.911 57.3418 280.944C57.5076 280.83 57.7039 280.771 57.9046 280.771L66.6517 280.765C67.1581 280.765 67.5904 281.271 67.672 281.961Z" fill="#FDC600"/>
<path d="M58.9625 284.361C59.1035 284.275 59.1546 284.038 59.073 283.857C58.69 283.01 57.4945 280.949 55.0638 281.374C54.9232 281.398 54.8281 281.585 54.8521 281.777L54.8529 281.783C54.8762 281.97 55.0025 282.092 55.1386 282.068C57.3171 281.696 58.334 283.513 58.6437 284.223C58.7095 284.374 58.846 284.433 58.9625 284.361Z" fill="white"/>
<path d="M56.9416 285.158C57.0822 285.072 57.1334 284.835 57.0518 284.654C56.6691 283.807 55.4733 281.746 53.0425 282.171C52.9023 282.195 52.8068 282.382 52.8309 282.574L52.8316 282.581C52.8553 282.766 52.9812 282.888 53.1177 282.866C55.2958 282.492 56.3127 284.31 56.6225 285.019C56.6883 285.171 56.8247 285.23 56.9416 285.158Z" fill="white"/>
<path d="M55.0617 285.901C55.2023 285.815 55.2538 285.578 55.1718 285.398C54.7891 284.551 53.5933 282.489 51.1625 282.915C51.0223 282.939 50.9272 283.125 50.9509 283.317L50.9516 283.324C50.9753 283.51 51.1016 283.632 51.2377 283.609C53.4158 283.236 54.4327 285.054 54.7425 285.763C54.8087 285.915 54.9451 285.974 55.0617 285.901Z" fill="white"/>
<path d="M118.534 290.95L98.6663 290.938C98.0524 290.938 97.555 290.44 97.5554 289.825C97.5558 289.211 98.0539 288.714 98.6678 288.714L118.536 288.727C119.15 288.728 119.647 289.225 119.647 289.839C119.646 290.454 119.148 290.951 118.534 290.95Z" fill="#444444"/>
<path d="M98.5721 281.961L97.8364 288.143C97.7458 288.906 98.1721 289.598 98.7322 289.598L118.199 289.61C118.705 289.61 119.205 289.295 119.471 288.702C119.743 288.094 119.798 287.178 118.928 285.945C117.235 283.549 111.777 282.911 108.903 280.944C108.737 280.83 108.541 280.771 108.34 280.771L99.5927 280.765C99.0864 280.765 98.654 281.271 98.5721 281.961Z" fill="#FDC600"/>
<path d="M107.282 284.361C107.141 284.275 107.09 284.038 107.171 283.857C107.554 283.01 108.75 280.949 111.181 281.374C111.321 281.398 111.416 281.585 111.392 281.777L111.392 281.783C111.368 281.97 111.242 282.092 111.106 282.068C108.927 281.696 107.911 283.513 107.601 284.223C107.535 284.374 107.399 284.433 107.282 284.361Z" fill="white"/>
<path d="M109.302 285.158C109.162 285.072 109.111 284.835 109.192 284.654C109.575 283.807 110.771 281.746 113.202 282.171C113.342 282.195 113.437 282.382 113.413 282.574L113.412 282.581C113.389 282.766 113.263 282.888 113.126 282.866C110.948 282.492 109.931 284.31 109.622 285.019C109.556 285.171 109.42 285.23 109.302 285.158Z" fill="white"/>
<path d="M111.182 285.901C111.042 285.815 110.99 285.578 111.072 285.398C111.455 284.551 112.651 282.489 115.081 282.915C115.222 282.939 115.317 283.125 115.293 283.317L115.292 283.324C115.269 283.51 115.143 283.632 115.006 283.609C112.828 283.236 111.811 285.054 111.502 285.763C111.435 285.915 111.3 285.974 111.182 285.901Z" fill="white"/>
</svg>
