<?xml version="1.0" encoding="utf-8"?>
<!-- Generator: Adobe Illustrator 25.0.1, SVG Export Plug-In . SVG Version: 6.00 Build 0)  -->
<!DOCTYPE svg PUBLIC "-//W3C//DTD SVG 1.1//EN" "http://www.w3.org/Graphics/SVG/1.1/DTD/svg11.dtd" [
	<!ENTITY ns_extend "http://ns.adobe.com/Extensibility/1.0/">
	<!ENTITY ns_ai "http://ns.adobe.com/AdobeIllustrator/10.0/">
	<!ENTITY ns_graphs "http://ns.adobe.com/Graphs/1.0/">
	<!ENTITY ns_vars "http://ns.adobe.com/Variables/1.0/">
	<!ENTITY ns_imrep "http://ns.adobe.com/ImageReplacement/1.0/">
	<!ENTITY ns_sfw "http://ns.adobe.com/SaveForWeb/1.0/">
	<!ENTITY ns_custom "http://ns.adobe.com/GenericCustomNamespace/1.0/">
	<!ENTITY ns_adobe_xpath "http://ns.adobe.com/XPath/1.0/">
]>
<svg version="1.1" id="Ebene_1" xmlns:x="&ns_extend;" xmlns:i="&ns_ai;" xmlns:graph="&ns_graphs;"
	 xmlns="http://www.w3.org/2000/svg" xmlns:xlink="http://www.w3.org/1999/xlink" x="0px" y="0px" viewBox="0 0 975 627"
	 style="enable-background:new 0 0 975 627;" xml:space="preserve">
<style type="text/css">
	.st0{fill:#F4F2F2;stroke:#000000;stroke-miterlimit:10;}
	.st1{fill:#81BC4F;stroke:#000000;stroke-miterlimit:10;}
	.st2{fill:#00A6D4;stroke:#000000;stroke-miterlimit:10;}
</style>
<metadata>
	<sfw  xmlns="&ns_sfw;">
		<slices></slices>
		<sliceSourceBounds  bottomLeftOrigin="true" height="626" width="974.3" x="0.4" y="0.5"></sliceSourceBounds>
	</sfw>
</metadata>
<a>
	<path class="st0" d="M770.1,96.6c0,0.1-0.1,0.1-0.1,0.2l0.1,0L770.1,96.6z"/>
</a>
<a id="sh_1_">
	<path id="sh" class="st1" d="M620.8,44.4c0.1,0.3,0.1,0.6,0.1,0.9c0,0.3-0.1,0.7-0.4,0.8c-0.4,0.2-0.9,0-1.3-0.2
		c-0.2-0.1-0.3-0.1-0.5-0.2c-0.2-0.1-0.3-0.2-0.5-0.4c-0.1-0.1-0.2-0.2-0.4-0.3c-0.3-0.2-0.6-0.3-0.9-0.5c-0.3-0.1-0.5-0.2-0.8-0.3
		c-0.1,0-0.2-0.1-0.4-0.1c-0.1,0-0.3,0-0.5,0l0,0l-7.7-5v-2.9l-8.6-4.7l-0.4-4.4l6.9-4.1l6.9,6.7l6.6,0.1l2.1,4.4l-4.5,3.4l3,4.6
		C619.9,42.5,620.5,43.5,620.8,44.4L620.8,44.4L620.8,44.4z M587.2,24.1l3.7,6.6l-11.3,0.2l-3.4,6.6c-2.4,0.2-7.7,1.3-10.7,6.7
		c-0.3,0.1-8.5,3.1-8.5,3.1l-2.4-2.6l-2.9,0.4l-4.4,7.1L537,53.1l-5.5-5.4l-7.4-1.9L522,35.5l9.9-7.5l6.4-14l9.2-1.5l7.1-6.5
		l0.3-3.8l8.7-1.2l4.8,3.5l-0.1,9l3.1,3.3l2-4.3V4.8l7.7,3.2v6.7c0,0,3.1-1.5,3.2-1.5c0.1,0,8,4,8,4L587.2,24.1z M559.6,72.8
		c-1.2,0.6-2.4,2-2.3,3.5c0.1,1.5,0.4,5.8-2.9,5.4c-3.3-0.5-2.4-7.1-4.7-8.1l8.5-9.4l2.2,3.1C560.5,69.3,560.4,72.4,559.6,72.8z"/>
</a>
<a>
	<path class="st0" d="M509.4,263.5c-1-0.4-1.6-0.3-2.4-1c-0.9-0.9-0.4-1.2,0.3-2c0.8-0.9,0.2-1.3-0.2-2.3c-0.2-0.5-0.3-1.3-0.1-1.9
		l-2.1-0.3l-17.6,3.8l-1.6,3.5l1.6,1.6v1.8l3.5-1.5l2-1.7l11.6,0.8l4.3,2c0.1-0.4,0.2-0.9,0.4-1.3
		C510.4,264.9,510.4,263.9,509.4,263.5z"/>
</a>
<a>
	<path class="st0" d="M643,263.4c-0.7-0.5-3.1-1.9-3.2-3.3c-0.1-1.4-0.3-2.5-0.7-3.5c-0.5-1-2.4-4.5-3.6-5.5c-1.2-1-1.4-1.3-2.6-1.2
		c-1.2,0.2-2.5,1.2-2.4-0.3c0.1-1.4-0.9-3-0.1-3.9c0.8-0.9,3.3-3.6,4.4-3.5c1.1,0.1,2.9,1.6,4.2-0.5c1.3-2.1,4.4-4.7,5-7.8
		c0.6-3,2-4.7,0.8-5.1c-1.2-0.4-2.2,0-2.2-1.5c0.1-1.5-0.2-2.4,1.2-3.2c1.4-0.7,2.7-0.7,2.5-2.9c-0.2-2.1-0.5-9.3,0.6-11.4
		c1.1-2.2,5.4-6.2,6.3-8.2c-0.5-0.9-0.9-1.6-1.1-2.1c-1.4-2.6-8.7-3.6-8.7-3.6s-0.7-6.3-1.1-8.7c-0.1-0.4-1.1-0.7-2.6-0.8
		c-0.1,0.2-0.2,0.4-0.3,0.5c-1.4,1.8-4.4,4.3-6.9,3.6c-1.1-0.3-2.1-1.1-3.2-1.5c-1.1-0.3-2.1-0.3-3.2,0.2c-1.1,0.5-2,1.3-3.1,1.9
		c-0.9,0.5-1.8,1-2.7,1.4c-0.8,0.4-1.3,0.9-2.2,0.9c-0.5,0-0.8,0.1-1.3,0.2c-0.8,0.2-1.9,0-2.5-0.7c-0.6-0.6-1.1-1.4-1.9-1.9
		c-0.3-0.2-0.6-0.4-0.9-0.6c-0.3-0.2-1-0.2-1.3-0.5c-0.5-0.7,1.1-1.6,1.5-2c0.5-0.5,0.9-0.9,1.4-1.2c-0.1-0.7-0.2-1.7-0.2-2.8
		l-1.6,0.2c-0.5,1.3-1.6,2.6-2.7,3.5c-2.2,2-5,1.8-7.8,1.5c-1.5-0.1-2.9-0.5-4.4-0.6c-1.4-0.1-2.8,0.1-4.2,0.5
		c-0.6,0.2-1.6,0.7-2.4,0.7c-0.8,0.6-1.4,1-1.6,1.1c-0.9,0.6-1.2,4.4-4.4,5.7c-3.3,1.3,1.3,7,1.3,7c2,1.7,1.3,3.7,1.2,6
		c-0.1,2.3-1.4,4.6-2.7,5.7c-1.3,1.1-4.1,5.8-5.5,8c-1.4,2.2-9.6,2.3-12.2,2.1c-2.7-0.2-2.4,1.3-3.7,2.9c-1.2,1.6-3.4-0.7-4.1-1.4
		c-0.7-0.8-2.2-0.6-4.4-0.8c-0.7-0.1-1.5,0-2.5,0.1c0.4,0.5,0.7,1,0.8,1.7c0.1,1.1,0,2.3,0,3.5c0,1.2,0.1,2.4-0.1,3.6
		c-0.4,2.3-2.6,0.4-3.6-0.4c-1.6-1.4-2.8-3.1-4.4-4.3c-1.4-1.1-2.6-2.2-3-4c0-0.1-0.1-0.3-0.1-0.4c-5.8-1.3-7.3-4.6-7.3-4.6
		l-8.4,3.2l0.1,8.5l-2.6,2.6v1.6l1.9,1.5c0.4-0.7,0.5-0.4,1.3-0.6c0.7-0.2,1.6-0.9,2.3-1.3c1.5-0.9,2.8-1.9,3.6-3.5
		c0.4-0.8,1.5-2.2,2-0.7c0.4,1,0.2,2.3,0.2,3.3c-0.1,1.8-0.8,3.3-2,4.6l5.4-0.5l3.9,2.6l6.6,6.6l-1.9,7.9l-1.3,1.3
		c0.8,0.6,1.8,0.7,2.8,0.8c0.6,0.1,1.1,0.1,1.6-0.1c0.5-0.2,0.9-0.6,1.4-0.7c1.2-0.2,2.3,1.2,3.4,1.6c0.8,0.4,1.6,0.4,2.5,0.7
		c1.3,0,2.6,0,3.5-0.9c0.9-0.9,1.3-2.2,2.3-3.1c2.1-1.9,5.5-0.1,7.4,1.3c2.1,1.5,1.9,3.6,2.3,5.9c0.3,2.2,2.2,4.8,0.7,6.9
		c-0.4,0.5-0.8,1-1.2,1.5c1.6,0.5,3.9,1,6.5,0.9c4.9-0.3,11.1-0.5,10.7,1.7c-0.3,2.2-1.7,3-0.7,3.9c0.9,0.9,1.9,4.2,3.8,3.6
		c1.9-0.7,1.8-2.7,3.1-3.7c1.2-1,7.6-4.1,8.2-3.5c0.6,0.6,2.2,3.2,3.6,2.7c1.4-0.5,2.7-1.1,3.2-1.2c0.5-0.1,1.3-0.1,1.3-1
		c0-0.9-0.4-2.6,0.9-2.4c1.3,0.2,2.3-0.1,2.6,0.8c0.3,0.9,2.6,2.3,1.7,3c-1,0.8-1.5,1.5-1.2,2.3c0.3,0.8-0.7,2,1,2
		c1.7,0,2.6,0.5,2.8,2c0.2,1.4,0.7,11.7,3.3,9.9c2.3-1.5,12.5-8.8,16.3-11.8l0,0c0.6-0.5,1-0.8,1.2-1c1.5-1.6,5.3-4.7,5.3-5.9
		c-0.1-1.2-0.2-2.1,0.4-2.7c0.6-0.6,2.5-2.2,2.2-3.2C646.7,267.5,643.8,263.9,643,263.4z M631.9,222.3c0.3-0.8,2-1.5,2.7-1
		c0.4,0.2,0.5,0.7,0.9,1c0.4,0.3,0.6,0.7,0.9,1c0.6,1.2,1.1,2.4,1.8,3.5c0.7,1.1,0.2,2.2-0.3,3.3c-0.5,1.1-1.3,2.8-2.6,3.2
		c-0.6,0.2-1-0.1-1-0.7c0.1-0.9,0.4-1.7,0.6-2.6c0.4-0.7,1.1-2.1,0.8-3c-0.3-0.9-1.1-1.1-1.8-1.6c0,0-0.1-0.1-0.1-0.1
		C633.2,224.8,631.6,223.3,631.9,222.3z M613.6,228.2c-0.8,0.8-2.2-0.3-2.7-1c-0.6-0.7-0.9-1.9-1.7-2.4c-0.7-0.4-1.6-0.2-2.1-0.8
		c-0.5-0.6-0.4-1.5-0.8-2.1c-0.8-1.1-2.4-1.9-2.3-3.5c0.1-1,0.5-2.1,0.2-3.2c-0.1-0.4-0.4-0.8-0.7-1.1c-0.1-0.1-0.2-0.2-0.3-0.3
		c-0.5-0.4-0.9-0.9-1.3-1.4c-0.1-0.1-0.1-0.1-0.1,0c0,0-0.2-0.1-0.2-0.1c-0.1-0.1-0.3-0.2-0.4-0.3c-0.2-0.2-0.4-0.4-0.6-0.7
		c-0.1-0.3-0.3-0.7-0.2-1c0-0.5,0.2-0.4,0.6-0.6c1.3-0.7,2-1.7,2.7-2.9c0.6-1,2.1-0.8,2.9-0.1c0.6,0.4,1,1.3,1.1,2
		c0.1,1-0.5,1.7-0.7,2.6c-0.2,1,0.3,1.8,0.8,2.6c0.5,0.8,0.8,1.6,0.9,2.5c0.1,0.9,0.1,1.8,0.2,2.7c0.1,0.9,0.2,1.9,0.6,2.7
		c0.3,0.9,0.9,1.6,1.5,2.3c0.6,0.7,1.2,1.3,1.9,2C613.4,226.5,614.3,227.6,613.6,228.2z"/>
</a>
<path class="st0" d="M344.9,151.4l-2.2,5.6c0,0-3.6-0.2-4.7-0.2c-1.1,0-1.9,1.4-4.8,3c-2.8,1.6-8.7,1.1-12,1.2
	c-3.2,0.2-4.2-0.8-5.5-1.3c-1.3-0.5-3.7-1.4-5.8-1.3c-2,0.2-5.8-3.9-5.8-3.9s-7.1,7.1-9.7,9.9c-2.6,2.7-4.9,2.9-8.3,3.9
	c-3.4,1-10.4-1.2-11.7-1.1c-1.3,0.1-2.4-0.3-3.8-1.2c-1.4-0.9-6.3-0.9-8.7-0.9c-2.4,0-1.3,2.9-1.9,5.5c-0.6,2.6-2.4,2.6-3.5,3.6
	c-1.2,1.1,1.9,3.4,0.6,5.5c-1.3,2.1-7.5,2.4-8.8,2.9c-1.3,0.5-2.8,0.2-3.8-0.4c-0.9-0.6-3.4,0.3-5,0.7c-1.6,0.4-5.4,7.9-6.9,10.5
	c-1.6,2.7-4.6,3.3-6.5,3.9c-1.9,0.7-3.8,7.1-3.8,7.1s-4.2-3.2-5-3.8c-0.8-0.7-2.9,0-4.8,0.7c-1.9,0.7-1.8,3.4-2.8,5
	c-1,1.6-4.4,2-6.7,3.2c-2.3,1.2-3.8-3.7-4.5-4.7c-0.4-0.6-2.6-0.4-4.3-0.1l-1.3-4.2l24-19.8v-15l11.5-2.7l0.2-7.1l9.1-0.4l2.1-7.5
	l-6-5.3c0,0-18.5,4.1-32.7,2.4l1.3-7.5l12.2-9.3l0.7-6.8l9.8-6.8l-0.7-13.4l9.3-3.5l12,5.9c0,0,7.2-4.7,7.4-4.7c0.1,0,13.3,5,13.3,5
	l-3.5,14.2l10.5,3.8l2.2,6.7l13.7-6.7l10.8,2.5l1.3,3.9l2.6-0.8l5.4,3l2,3l1.2,4.7l6.3,0.4l2.4,2.5l13.1,0.2c0,0,5.2,3.5,6.1,4.8
	c0.9,1.4,0.5,3.2,2.1,4C343.8,150.9,344.9,151.4,344.9,151.4z"/>
<path class="st0" d="M428.5,121.2l-0.2,3.2l-15.1,7.9c0,0-4.3,5.1-7.2,5.8c-2.9,0.7-7.4,3.7-9.1,5.2c-1.7,1.5-3.3,2.4-3.2,4.2
	c0.2,1.7-0.1,2.4-0.1,2.4l-8.5-1.7c0,0-1.3-3-2.9-4c-1.6-1-1.9-4.7-4.1-4.2c-2.2,0.4-15.9,2.3-15.9,2.3s-1.9-5.3-2.7-5.9
	c-0.8-0.6-0.4-8.2-0.4-8.2l9.4-0.7c0,0,2.2-13.9,3.3-15c1.1-1.1,3.5-1.4,3-3.5c-0.5-2-0.7-3-0.7-3l-6.8-1.9l-1.5-4.2h-1.2
	c0,0-1.4,5.3-3.6,4.9c-2.2-0.4-4.9-1.8-4.9-1.8l-1.1,6.7l2.1,1.2l-1.5,8.4l-6,1.8l-2.3,5.2l-3.5,0.6l-1-1.3l-5.7,0.7l-1.3,5.8
	l-7.1,2.7l-1.7-2.7l-7.3-0.2l-1,6.8l-6.3-0.4l-1.2-4.7l-2-3l-5.4-2.9l1.7-0.5l2,0.5l4.7-2.1l8-0.7l2.4-2.9l-6.6-5.7l2.7-5.6l4.7,4.5
	l2.7-1.4l11.1-1.8l1.4-1.3l-1-3.9l1.2-6.6l-4.1-0.5v0l-3.3-4.3l5.9-2.7l-2.4-2.8l-8.4-0.3l0.1-4.8l8.9-2.6l3.6-3.4l13.6,11.1
	l10.5-3.5l12.4,2.4l2.4-1.5l2.1,3.5l5.8-1.8l6.7,3.8l-0.8,3.7l3.7,3.8l7.2-7v-2.2l1.5-2.1l6.7,2.5v3.5l7.9,9.1l5.9-0.2l0.6,4.8
	l2,2.3l-2.2,6.8L428.5,121.2z"/>
<path class="st0" d="M556.9,265.6l-4,14l-9.8,3.2c0,0-2.7,2.4-3.7,4.8c-1,2.4,0.4,3.8,0.8,4.9c0.4,1.1-1.2,8.8-1.3,9.2c0,0,0,0,0,0
	l-9.8,0.7l-4.9-4.5l-6.4-0.3l-2,2.8l2.6,8.8l5.3,9.8l7,3.5v6.2l-12.5-4.4l-9-10.6l0.9-16.6l1-15.4v-1.3l-6.2-1.3l-0.5-7
	c0.7,0.2,1.4,0.3,2,0.2c0.5-0.1,0.9-0.5,1.3-0.8c0.5-0.3,1-0.6,1.4-1.1c0.8-0.9,1.2-1.8,2.1-2.6c0.7-0.6,1.3-1.3,1.7-2.2
	c0.3-0.8,0.1-2.1,0.6-2.8c0.3-0.4,0.9-0.4,1.3-0.7c0.4-0.3,0.6-0.7,1-1c0.8-0.7,1.5-1.5,1.9-2.5c0.3-0.9,0.6-2.2,1.5-2.8
	c0.4-0.3,0.8-0.5,1.2-0.7l0.5,2.1l8.8,0.6l1.8-1.7c0.7,0.4,1.5,0.7,2.4,0.5c1.4-0.4,2.4-1.6,4-1.2c1.4,0.4,0.5,2.4-0.2,3.1
	c-0.6,0.6-0.9,0.7-1.7,0.5c-1-0.3-1.3-0.1-2.3,0.2c-1.2,0.3-2.2,1.5-2.5,2.7c-0.1,0.5-0.3,1.3,0.1,1.8c0.2,0.3,0.6,0.3,0.9,0.6
	c0.3,0.2,0.6,0.5,0.9,0.8c1.2,0.8,2.1-0.1,3.3-0.1c1.5,0,2.6,0.2,3.9,0.9c0.7,0.4,1.4,0.7,2,1.1c0.7,0.4,1.4,0.9,2,1.4
	c0.8,0.6,1.1,1.1,2.2,0.7c1.1-0.5,1.9-1.5,3-2.2c0.8-0.5,1.9-0.8,2.8-1c1.2-0.3,2.4-0.2,3.5-0.1
	C556.3,265.6,556.6,265.6,556.9,265.6z"/>
<path class="st0" d="M525.2,233l-0.1-8.5l8.4-3.2l-1.3-6.3l-5.7,0.8l-12.6-7.3l-3.9-10.8l-6.7-20.1l-2.7-9.3l-10-2.9l0.9,5.1
	l-3.8-0.1c0,0.1,0,0.3,0,0.4c0,0.8-0.1,1.6-0.3,2.3c-0.3,0.9-0.5,1.2-0.3,2.1c0.2,0.6,0.5,1.8,0.2,2.3c-0.6,1-1.2-1-1.3-1.4
	c-0.2-1-0.9-1.9-1.2-3c-0.1-0.2-0.1-0.5-0.2-0.7l-0.6,0.8l-1.7,10.1l-5.2,0.7l-4-0.3l-1.3-1.9l0.1-1.2l4-2.3l-1.4-1.1l-1.1-1.3
	l-5.8,0.1l-1.7,1.9l-5.2-1.4l-0.8-1.6l-0.3-2.8l-7.3,2.1l-1.4,1.2l1.7,2.9l-10.6,1.4l-2.8-8.8l-0.4-2.3l-9.7-0.4l0.2,7.1l-6.5,6
	L419,179l-14.8,5l0,0.1l3,9.3l5.5,6.8l-1,6.8l1,4.5l2.7,6.3l-3.2,4.5l-1,18.2l6.5,12.7l11.6,1.4l-0.8,9.5l-8.4,15.6l-5.6-0.4
	l-3.8,5.5l2.7,2.7l-0.3,3.4l-3.6,6.2l3.1,4.8l-0.6,7.1l15.6,9.5l6.2,9.3l0.9-1.6l1.8,0.9l2.8-0.2l1.8-2.5l8.7-0.8l2.4-6.1V315
	l-4.2-6.3l4.6-10.6v-4.7l4.6-7.9l5.9,2.3l9.6-12.2l-0.6-5.6l6.7-3.7l8.2,0.2v-1.8l-1.6-1.6l1.6-3.5l17.6-3.8l2.1,0.3
	c0-0.2,0.1-0.4,0.2-0.6c0.6-0.8,1.6-0.6,2.5-0.6c0.9,0,1.8,0.3,2.5-0.3c0.8-0.7,1.2-1.8,1.2-2.8c0-1-0.7-1.7-0.8-2.7
	c-0.4-2.3-0.7-4.6-2.5-6.3c-0.5-0.5-0.9-1-1.5-1.5c-0.4-0.3-1.5-0.8-1.3-1.4c0.8,0,1.6,0,2.5,0.1c1,0.1,1.7-0.1,2.4,0.7
	c0.5,0.7,1,1.4,1.6,2.1c0.5,0.7,1,1.6,1.8,1.9c0.7,0.3,1.7,0.5,2.4,0.6c0.9,0.2,1.6-0.3,2.3-0.8c0.6-0.4,1.1-0.9,1.5-1.5
	c0.2-0.3,0.6-0.6,0.8-1c0.2-0.4,0.2-0.8,0.4-1.2c0.3-0.8,0.9-1.5,1.3-2.3c0,0,0,0,0-0.1l-1.9-1.5v-1.6L525.2,233z M479.4,216.7
	c-0.2,0.6-1,0.5-1.3,1.1c-0.2,0.5,0.2,1,0.1,1.4c-0.1,0.8-0.9,1.1-1.5,0.8c-0.9-0.3-1.4-1.1-2-1.8c-0.7-0.8-1.4-1.1-2.3-1.6
	c-0.5-0.3-1.1-0.5-1.7-0.8c-1.3-0.8-2.1-2.1-3.1-3.2c-1.1-1.2-2.1-2.2-2.8-3.7c-0.8-1.7-0.7-3-0.4-4.7c0.1-0.6,0.2-1.6,0.9-1.9
	c0.7-0.3,1.4,0.4,1.9,0.9c0.6,0.5,1.1,1.2,1.6,1.8c0.6,0.6,1.3,1.1,2,1.5c1.4,1,2.6,2.1,3.8,3.3c1.1,1.1,2.3,2.1,3.2,3.3
	c0.5,0.6,0.9,1.2,1.1,1.9C479.2,215.5,479.6,216.3,479.4,216.7z M496.1,199.8c-0.4-0.3-0.8-0.8-1-1.2c-0.5-0.8-1-1.7-1.5-2.5
	c0-0.9-0.4-1.7-0.9-2.4c-0.5-0.6-1.3-1.4-1.5-2.2c-0.1-0.8,0-1.4,0.1-2.3c0-0.5,0-1.8,0.6-2.1c0.8-0.5,1.6,2,1.8,2.5
	c0.5,1.2,1,2.5,1.8,3.5c0.8,0.9,1,2,1.5,3.2c0.2,0.4,0.3,0.8,0.4,1.2c0.1,0.4,0,1.1,0.2,1.4C497.2,199.3,496.7,200.2,496.1,199.8z"
	/>
<path id="zg" class="st0" d="M585,203.7c0,0-3.4,0.9-4.6,1.6c-1.3,0.7-2.4-2.5-2.8-4.1c-0.5-1.5-3-1.3-5.1-1.6
	c-2.1-0.3-2-2.1-1.8-4.7c0.2-2.6-3.7-5.6-4.9-6.4c-1.2-0.8-3.5-4.4-3.5-4.4s-15.6,3.3-17.8,3.8c-2.2,0.5-3.5,0.2-4.2-0.8
	c-0.7-0.9-3.7-0.2-5.9,0.2c-2.2,0.4-5.8-4.7-6.8-6.5c-0.2-0.4-0.6-1.2-1.1-2.3c0,0-4.2,4.3-3.2,5.8c1,1.6,3,5.2,2.1,7
	c-0.9,1.9-1.3,3-0.6,4.7c0.7,1.7,1.4,6.1,1.7,7.5c0.3,1.4,1.5,4.7,0.9,7.4c-0.6,2.7-1.4,2.3-1.1,4.9l5.7-0.8l1.3,6.3
	c0,0,1.6,3.3,7.3,4.6c-0.2-1.4,0.5-2.2,1.6-3.1c0.5-0.4,1.3-1,1.5-1.7c0.2-0.7-0.5-1.2-1-1.6c-0.7-0.5-1.4-1.1-1.8-1.9
	c-0.4-0.8-0.4-1.6-0.4-2.5c-0.1-1.6-1.3-2.6-1.6-4.2c-0.2-1-0.1-2,0-3.1c0.1-1.4,0.1-3-0.3-4.4c-0.4-1.2-0.4-2.7,0.8-3.5
	c0.9-0.6,2.5-0.3,3.5,0c1.3,0.3,2,1.8,2.9,2.6c1,0.9,3.1,2.2,3.1,3.7c0,0.6-0.6,1.1-0.9,1.6c-0.3,0.6-0.5,1.3-0.7,1.9
	c-0.2,0.6-0.4,1.2-0.4,1.9c0,0.7,0.1,1.4-0.1,2.1c-0.3,1.1-1.9,1.8-1.8,3c0.1,1.2,0.9,2.1,1.4,3.2c0.4,0.9,0.1,1.8,0.4,2.7
	c0.3,0.7,1,1.1,1.5,1.5c0.9,0.6,2,1.2,2.7,2c1-0.1,1.8-0.2,2.5-0.1c2.2,0.3,3.7,0.1,4.4,0.8c0.7,0.8,2.9,3,4.1,1.4
	c1.2-1.6,1-3.2,3.7-2.9c2.7,0.2,10.9,0.1,12.2-2.1c1.4-2.2,4.2-6.9,5.5-8c1.3-1.1,2.6-3.4,2.7-5.7C586.4,207.3,587,205.4,585,203.7z
	 M576.7,222.5c-1.4,1.3-3.2-1.1-3.9-2.1c-0.3-0.5-0.7-0.9-0.9-1.5c-0.1-0.3-0.1-0.7-0.3-1c0,0-0.1-0.1-0.1-0.1
	c-0.7-0.8-1.9-0.6-2.8-0.8c-1-0.3-1.8-1.1-2.3-2c-0.5-0.8-1.2-2.1-0.3-2.8c1-0.8,2-0.1,2.8,0.6c0.4,0.4,0.9,1,1.5,1.2
	c0.5,0.1,0.8-0.1,1.3-0.1c0.8,0,2,0.7,2.6,1.3c0.9,0.8,1.8,1.8,2.4,2.7C577.3,219.1,577.9,221.3,576.7,222.5z"/>
<path class="st0" d="M532.1,153.3c-1.2,3.5-2.2,9.3-3.8,9.8c-1.7,0.5-7.1,0.5-6.2,3.4c0.7,2.2,3.1,8.5,4.6,12c0,0-4.2,4.3-3.2,5.8
	c1,1.6,3,5.2,2.1,7c-0.9,1.9-1.3,3-0.6,4.7c0.7,1.7,1.4,6.1,1.7,7.5c0.3,1.4,1.5,4.7,0.9,7.4c-0.6,2.7-1.4,2.3-1.1,4.9l-12.6-7.3
	l-3.9-10.7l-6.7-20.1l-2.7-9.3l-10-2.9l0.9,5.1l-3.8-0.1c0-1.2-0.2-2.2-0.9-3.3c-0.8-1.3-1.4-2.9-1.8-4.4c-0.4-1.6,0.2-3.5-0.7-4.9
	c-0.4-0.7-3.6-2.9-3.6-0.9c0,0.8,0.5,1.6,0.6,2.3c0.2,0.8,0.1,1.5,0,2.2c-0.2,1.5-0.5,3.3,0.4,4.6c0.4,0.6,1,1,1.4,1.6
	c0.6,0.8,0.9,1.8,1.1,2.8c0.2,0.7,0.2,1.5,0.4,2.2l-0.6,0.8l-1.7,10.1l-5.2,0.7l-4-0.3l-1.3-1.9l0.1-1.2l4-2.3l-1.4-1.1l-1.1-1.3
	l-5.8,0.1l-1.7,1.9l-5.2-1.4l-0.8-1.6l-0.3-2.8l-7.3,2.1l-1.4,1.2l1.7,2.9l-10.6,1.4l-2.8-8.8l-0.4-2.3l-9.7-0.4l0.2,7.1l-6.5,6
	L419,179l-14.8,5l-2-10.9c0,0,3.5-5.8,5-8.3c1.5-2.5,2.8-5.4,5.1-6.2c2.3-0.8,5.9-5.3,6-8.1c0,0,17.4,4,19,0.2
	c1.6-3.8,2.4-6.2,3.7-7.5c1.2-1.4,3.9-6.4,2.7-8c-1.2-1.6-4-5.9-6.6-6.9c-2.6-1-4.3-2.7-4.3-4c0-1.3-0.7-2.9,0.3-3.5
	c0.9-0.6,1.6-0.8,0.7-2.6c-0.9-1.8-3-7.6-3-7.6l-3.3,0.2l-2-2.3l-0.6-4.8l-5.9,0.2l-7.9-9.1V91l-6.7-2.5l-1.5,2.1v2.2l-7.2,7
	l-3.7-3.8l0.8-3.7l-6.7-3.8l-5.8,1.8l-2.1-3.5l4.8-2.9l9.5-1.5l3.9-2.6l2.5-5.7l14.9-2l4.8,4.2l3.3,6.4l25-0.8l4.3-3.2l6.1-1.4
	l3.5-6.4l4.7,0.2l12.8-10.7l5.4,1l1.8,3.9l4.8-3.3l10,1.7l2.3,5.1l5.1,5.7l10.3,0.5l5.6-2.8l3.2,2.9l1.3-0.1l-0.4,5.7l-9.9,13.2
	l-3,0.4l0.5,11.4l5.6,13.6l-5.2,10.1c0,0-0.3,1.1,1.5,1c1.8,0,4.5,0.6,4.4,2.5c0,1.8,2.1,10.8,2.5,11.8c0.4,1,2.1,8.7,3.2,8.3
	C528.1,152.9,533.2,149.8,532.1,153.3z"/>
<a>
</a>
<path class="st0" d="M640.4,136.4c0,0-1.8-5-3.7-5.7c-1.9-0.8-4.3-2.9-4.5-5.4c-0.2-2.5,0.1-4.9,1-6.3c0.9-1.5,1.3-2.8-0.8-3.2
	c-2.2-0.3-5.6-3.7-5.8-5.7c-0.2-2-2.6-6.7-1.4-7.5c1.2-0.8,3.7-2.2,3.5-4.7c-0.2-2.5-1.4-7.7-7.3-10.4c-6-2.7-10.3-4.8-8.2-6.7
	c2.2-2,3.7-7.6-4.1-9c-7.9-1.4-12.5-4.6-14.7-8c-2.2-3.4-1.5-5.3,2.6-5c4,0.3,4,0.2,5.4,1.5c1.4,1.4,3.7,3,5.4,1
	c1.7-2,5-7.2,3.9-9.7c-1.2-2.5-2.2-6.7-6.1-6.4c-3.9,0.3-2.1,4.9-4.9,5.3c-2.8,0.3-10,2.7-15.2-0.1c-5.3-2.8-6.3-6.9-7.1-9
	c-0.6-1.4-0.6-2.7-0.6-3.4l-1.2-0.4l0-0.1c-2.4,0.2-7.7,1.3-10.7,6.7h0c0.1,0,4.4,6.9,4.4,6.9l-1.8,2.8l-3.6-4l-2,1l1.6,4.1
	l-0.3,9.6l-3.2,3.1l-0.2-0.3c0,2-0.1,5.1-0.8,5.5c-1.2,0.6-2.4,2-2.3,3.5c0.1,1.5,0.4,5.8-2.9,5.4c-3.3-0.5-2.4-7.1-4.7-8.1l8.5-9.4
	l-4-5.6l-6.3-2.1l-3.9,5.1l-9.6,4.5l-1.1,3.7l6.7,0.6l0.7,3.8l-13,1l-0.4,5.7l-9.9,13.2l-3,0.4l0.6,11.4l5.6,13.6l-5.2,10.1
	c0,0-0.2,1.1,1.5,1c1.8,0,4.5,0.6,4.4,2.5c0,1.8,2.1,10.8,2.5,11.8c0.4,1,2.1,8.7,3.2,8.3c1-0.4,6.2-3.5,5,0
	c-1.2,3.5-2.2,9.3-3.8,9.8c-1.7,0.5-7.1,0.5-6.2,3.4c0.7,2.2,3.1,8.5,4.6,12c0.5,1.1,0.8,1.9,1.1,2.3c1,1.7,4.6,6.9,6.8,6.5
	c2.2-0.4,5.2-1.1,5.9-0.2c0.7,0.9,2,1.2,4.2,0.8c2.2-0.5,17.8-3.8,17.8-3.8s2.3,3.6,3.5,4.4c1.2,0.8,5.1,3.8,4.9,6.4
	c-0.2,2.6-0.2,4.4,1.8,4.7c2.1,0.3,4.6,0.1,5.1,1.6c0.5,1.5,1.6,4.8,2.8,4.1c1.2-0.7,4.6-1.6,4.6-1.6s-4.6-5.7-1.3-7
	c3.3-1.3,3.5-5.1,4.4-5.7c0.2-0.1,0.9-0.6,1.6-1.1c-0.3,0-0.7-0.1-0.9-0.3c-0.3-0.3-0.6-0.5-1-0.8c-0.7-0.5-1.3-1.2-1.9-1.9
	c-0.5-0.6-1.1-1.3-1.6-1.9c-0.6-0.7-1.1-1.5-1.8-2.2c-0.7-0.6-1.5-1-2.2-1.6c-0.7-0.6-1.4-1.1-2-1.6c-0.8-0.6-1.4-1.4-2.1-2
	c-0.7-0.6-1.5-0.6-2.4-0.7c-1.9-0.2-3.5-0.3-5.1-1.4c-0.6-0.4-1.4-0.6-2.1-1c-0.6-0.4-1.1-0.9-1.7-1.4c-1-0.9-2.2-1.8-2.5-3.2
	c-0.2-0.7-0.3-1.6-0.4-2.3c-0.1-0.9-0.4-1.3-1-2.1c-0.9-1.2-2-2.3-2.9-3.6c-0.9-1.3-1-2.6-1-4.1c0-1.3-0.5-2.9-1.2-4.1
	c-0.7-1.1-1.6-2.1-2.4-3.1c-1.3-1.9-2.1-3.6-2.1-5.9c0-0.7,0-2.4,1.1-2.3c1.2,0.1,2.4,1.8,3.1,2.7c1.8,2.1,2.9,4.2,3.8,6.8
	c0.5,1.4,1,2.7,1.8,4c1,1.6,1.7,3.3,2.8,4.9c1.1,0.9,2.2,2,2.8,3.3c0.6,1.3,0.8,2.9,1.4,4.2c0.7,1.5,1.9,2.1,3.3,2.7
	c0.8,0.3,1.7,0.6,2.4,1.1c0.6,0.4,1.3,0.5,2,0.7v0c1,0.3,1.9,0.7,2.9,0.9c0.6,0.1,1.1,0.1,1.7,0.4c0.5,0.2,0.9,0.4,1.4,0.6
	c1.8,0.8,3.6,1.9,5.2,3c0.7,0.5,1.5,0.9,2.2,1.3c0.7,0.5,1.3,1.1,2,1.5c2.9,1.7,5.8,2.3,9.1,2.4c1.3,0,2.6-0.1,3.9-0.4
	c1.6-0.4,3.2-0.9,4.9-0.9c1.3,0,2.5,0.6,2.1,2.1c-0.1,0.2-0.1,0.4-0.2,0.6l1.6-0.2c0-0.3,0-0.7,0-1c0-3.2-4.1-5.1-4.1-5.1
	c2.6-1.6,5.8-1.2,5.8-1.2l4.7,3.5l7.1-5.7l5,2.2l6.3-3.6l2.8-11.8c0,0,5.8,0.3,6.4-4.7C647.4,151.6,640.4,136.4,640.4,136.4z
	 M588.3,152.6c-0.3,0.4-0.7,1-1.2,1c-0.7-0.1-0.9-1.2-1.1-1.7c-0.2-0.5-0.6-0.9-0.8-1.4c-0.3-0.8-0.6-1.4-1.2-2.1
	c-0.7-0.9-1.5-1.6-2.3-2.4c-0.7-0.7-1.4-1.5-2-2.4c-0.6-0.8-0.8-1.6-1.1-2.5c-0.1-0.5-0.2-1.1-0.3-1.5c-0.1-0.3-0.1-0.4,0-0.7
	c0.1-0.2,0.3-0.4,0.4-0.6c1.6-0.8,3.1,0.5,4.1,1.7c0.5,0.6,0.8,1.4,1.4,2c0.5,0.6,1,1.1,1.3,1.8c0.3,0.7-0.1,1.3-0.1,2
	c0,0.8,0.5,1.2,1.1,1.6c1,0.7,2.6,1.4,2.8,2.8C589.3,151.2,588.8,151.9,588.3,152.6z M605.7,147.9c-0.6-0.2-1.4,0.1-2-0.3
	c-0.6-0.4-0.4-1.2-0.3-1.8c0.1-0.8,0-1.4-0.4-2.1c-0.4-0.6-1-1.3-0.8-2.1c0.4-1.8,2.4-1.2,3.3-0.3c0.8,0.8,1.8,1.9,2.2,3
	c0.2,0.7,0.4,1.6,0.4,2.4C608.1,148.1,606.7,148.1,605.7,147.9z"/>
<path class="st0" d="M744.8,94.6l-4.4,2.2L730,98.9h-3.5l-0.7-2.5c0,0,2.2-2.3,1.3-3.2c-0.9-0.8-3.4,0-3.4,0l-3.3,1.3l-1.5-3.3
	l2.7-1.9l-2.2-3.5h-5l-6.2,4.1l0.5,2.9l3.7-2.2l1.8,2.6l-2.2,1.3l0.4,1.3h2.9v1.9l-6,4.1l-2.4-1.7l-6.4,3.7l-1.8-1.7
	c0,0,0.4-4.5-1.8-4c-2.2,0.5-2.6,1-2.6,1l-1.3-1.9l-3.5,1.8l-2.6-1.9c0,0,1.5-2.7,0-3.3c-1.5-0.6-4.3,0.2-5,1.7
	c-0.7,1.4-3.4,5.6-3.4,5.6l-9.7-0.2l-1.5-3L653,100l2.4,8.7l2.5,4.9l-1.8,3.6h-6.3l-3.4,9.3c0,0-2.8,1.2-3.1,2.7
	c-0.2,1.5,1.3,3.9,0,5c-1.3,1.1-2.9,2.3-2.9,2.3s-1.8-5-3.7-5.7c-1.9-0.8-4.3-2.9-4.5-5.4c-0.2-2.5,0.1-4.9,1-6.3
	c0.9-1.5,1.3-2.8-0.8-3.2c-2.2-0.3-5.6-3.7-5.8-5.7c-0.2-2-2.6-6.7-1.4-7.5c1.2-0.8,3.7-2.2,3.5-4.7c-0.2-2.5-1.4-7.7-7.3-10.4
	c-6-2.7-10.3-4.8-8.2-6.7c2.2-2,3.7-7.6-4.1-9c-7.9-1.4-12.5-4.6-14.7-8c-2.2-3.4-1.5-5.3,2.6-5c4,0.3,4,0.2,5.4,1.5
	c1.4,1.4,3.7,3,5.4,1c1.7-2,5-7.2,3.9-9.7c-1.2-2.5-2.2-6.7-6.1-6.4c-3.9,0.3-2.1,4.9-4.9,5.3c-2.8,0.3-10,2.7-15.2-0.1
	c-5.3-2.8-6.3-6.9-7.1-9c-0.6-1.4-0.6-2.7-0.6-3.4l2.9,1.1l3.4-2.6l4.6,1.1c0,0-0.1-4.3,0-4.3c0.1,0,2.9,0,2.9,0l1.6,3.8l3.8,0.8
	l10.7,3.7V39l7.7,5c0,0-0.1,0.1-0.1,0.1c0,0.1,0,0.2,0,0.2c0,0.1,0.1,0.2,0.2,0.3c0,0,0,0,0,0c0,0.1,0.1,0.1,0.1,0.2
	c0.1,0.1,0.1,0.2,0.2,0.2c0.1,0.1,0.2,0.3,0.3,0.4c0.1,0.1,0.2,0.3,0.4,0.4c0.1,0.1,0.2,0.2,0.4,0.3c0.1,0.1,0.2,0.1,0.3,0.1
	c0.3,0,0.5,0.3,0.7,0.4c0.5,0.3,0.9,0.4,1.5,0.7c1.7,0.7,3.2,1.7,5,2.2c2,0.5,3.9,0.8,6,0.8c1.1,0,2.2,0.2,3.3-0.1
	c0.9-0.3,1.9-0.3,2.8-0.6c0,0-0.3,0-0.2-0.1c0.2-0.1,0.5-0.3,0.7-0.3c0.5-0.2,0.9-0.3,1.4-0.4c0.7-0.1,1.4-0.3,2.2-0.5
	c1.1-0.3,2-0.9,3-1.6c0.8-0.6,1.7-1.1,2.5-1.6c0.6-0.4,1.1-0.9,1.6-1.4c0.7-0.5,1.5-0.8,2.3-1.1c1.1-0.4,2.2-0.5,3.4-0.8
	c1.1-0.3,1.9-0.2,3-0.3c1.2-0.1,2.3-0.2,3.4,0.2c0.5,0.2,0.8,0.6,1.3,0.8c1.2,0.5,2.8,0,4,0.3c0.8,0.2,1.3,0.5,2,0.9
	c0.6,0.3,1.3,0.5,1.9,0.7c0.9,0.4,2,0.7,3,0.9c0.9,0.2,1.3,0.6,2.3,0.5c0.8-0.1,1.8-0.2,2.6,0.1c0.2,0.1-0.2,0.2-0.1,0.2
	c0.4,0.2,0.8,0.3,1.2,0.5c0.5,0.2,1.1,0.4,1.7,0.5c0.5,0,1.2-0.2,1.6-0.4c0.5-0.4,0.6-1.1,1.1-1.6c0.2-0.2,0.6-0.3,1-0.4h0
	c0.3,0,0.5,0,0.7-0.1c1.5-0.1,3.2-0.3,4.6,0c0.7,0.2,1.6,0.4,1.4,1.3c0,0,0,0,0,0c-0.2,0.7-1.2,1.1-1.2,1.7c-0.1,0.6,1,1.5,1.4,1.8
	c0.1,0.1,0-0.2,0-0.2c0.1,0,0.4,0.2,0.4,0.3c0.3,0.2,0.5,0.3,0.8,0.5c0.5,0.2,1.1,0.4,1.6,0.6c1,0.4,1.5,1.7,2.5,2.1
	c0.5,0.1,1.3,0.1,1.8,0.1c0.7,0,1.3,0,2,0.1c1.2,0.2,2.6,1.2,3.4,2c0.9,0.9,1.5,1.8,2.8,2c0.6,0.1,1.2,0.2,1.8,0.3
	c0.6,0,1,0.2,1.6,0.4c0.5,0.1,1,0.2,1.5,0.4c0.5,0.3,1,0.7,1.5,1c1.1,0.7,2.2,1.6,3.2,2.3c1,0.8,1.8,1.7,2.6,2.7
	c1.1,1.3,2.3,2.4,3.6,3.5c0.9,0,1.8,0.4,2.5,0.9c0.7,0.5,1.4,0.8,2.1,1.2c0.7,0.4,1.4,0.6,2.1,1c0.7,0.4,1.2,0.9,1.7,1.4
	c1,1,2.1,2,2.5,3.3c0.3,1.3,0.2,2.8,0,4.1c-0.3,1.9,0.5,4.8,2.2,5.9c1.2,0.7,2.4,1.4,3.5,2.2c1.7,1.4,3.3,3,4.8,4.7
	C743.4,93,744.2,93.8,744.8,94.6z"/>
<path id="sg" class="st2" d="M789.3,118.2l0.8-9.4l-12.2-6.8c-0.6-0.2-1-0.7-1.5-1c-0.6-0.4-1.1-0.6-1.6-1.1c-1.1-1.2-2-4.2-4-3.9
	c-0.5,0.1-0.5,0.3-0.7,0.7l0,0.2l-0.1,0c-0.3,0.4-0.6,0.8-1,1.2c-0.5,0.7-1.3,1.2-2,1.8c-0.6,0.5-1.2,1.2-1.9,1.5
	c-0.6,0.2-1.3,0.4-1.9,0.6c-1.5,0.5-3.2,0.9-4.8,0.9c-1.4,0-3.1-0.3-4.4-0.8c-0.9-0.4-2.2-0.9-2.9-1.6c-1.2-1.1-2.2-2.3-3.5-3.3
	c-1.1-0.9-2-1.4-2.9-2.5l-4.4,2.2L730,98.9h-3.5l-0.7-2.5c0,0,2.2-2.3,1.3-3.2c-0.9-0.8-3.4,0-3.4,0l-3.3,1.3l-1.5-3.3l2.7-1.9
	l-2.2-3.5h-5l-6.2,4.1l0.5,2.9l3.7-2.2l1.8,2.6l-2.2,1.3l0.4,1.3h2.9v1.9l-6,4.1l-2.4-1.7l-6.4,3.7l-1.8-1.7c0,0,0.4-4.5-1.8-4
	c-2.2,0.5-2.6,1-2.6,1l-1.3-1.9l-3.5,1.8l-2.6-1.9c0,0,1.5-2.7,0-3.3c-1.5-0.6-4.3,0.2-5,1.7c-0.7,1.4-3.4,5.6-3.4,5.6l-9.7-0.2
	l-1.5-3L653,100l2.4,8.7l2.5,4.9l-1.8,3.6h-6.3l-3.4,9.3c0,0-2.8,1.2-3.1,2.7c-0.2,1.5,1.3,3.9,0,5c-1.3,1.1-2.9,2.3-2.9,2.3
	s7,15.1,6.4,20.2c-0.6,5.1-6.4,4.7-6.4,4.7l-2.8,11.8l-6.3,3.6l-5-2.2l-7.1,5.7l-4.7-3.5c0,0-3.2-0.4-5.8,1.2c0,0,4.1,1.9,4.1,5.1
	c0,0.4,0,0.7,0,1c0,1.1,0.1,2.1,0.2,2.8c0.3-0.2,0.5-0.2,0.9-0.3c0.5,0,0.9,0.2,1.3,0.3c0.5,0.1,1.1,0.2,1.6,0.2
	c1.2,0.1,2-0.3,3.1-0.8c0.9-0.5,1.7-0.9,2.8-0.9c1.8,0,3.6,0.2,5.3,0.3c1.4,0.1,2.8,0.1,4.2-0.3c1.3-0.4,2.5-1.1,3.8-1.4
	c1.9-0.4,4.6,0.5,3.5,2.5c1.6,0.1,2.6,0.3,2.6,0.8c0.4,2.4,1.1,8.7,1.1,8.7s7.3,1,8.7,3.6c0.2,0.4,0.6,1.2,1.1,2.1
	c2.4,4.3,8.2,12.7,20.5,12.1c0-0.2,0.1-0.4,0.4-0.7c0.6-0.5,1.3-0.8,1.9-1.3c0.6-0.5,1.1-0.7,1.9-0.9c0.7-0.1,1.4-0.3,2.1-0.1
	c0.9,0.2,1.7,0.6,2.5,0.8c1.7,0.4,3.3,0.6,5.1,0.8c1.2,0.1,2.7,0.2,3.8,0.6c0.9,0.3,1.6,0.8,2.5,0.9c2,0.5,4.1,1,6.2,0.8
	c1.7-0.2,3.4-0.7,5.1-0.6c1.7,0.1,3.3,0.6,5,0.6c1.6,0,2.8-0.6,4.3-1.1c1.2-0.3,1.9,0.2,2,1.4c0.1,1.4-0.7,2.9-2.1,3.4
	c-1.7,0.6-3.6-0.1-5.2-0.4c-1.7-0.3-3.3-0.3-4.9,0.1c-2.9,0.7-5.7,1.1-8.6,0.4c0,0,0.1,0,0.1,0s-0.1,0-0.1,0
	c-0.3-0.1-0.5-0.1-0.8-0.1c-0.4-0.1-0.7-0.2-1.1-0.3c-0.6-0.2-1.3-0.4-2-0.6c-0.2-0.1-0.3-0.1-0.5-0.1c1.6,2.3,1.4,4.7,1.4,4.7
	s2.6,11.1-0.9,13c-3.5,1.9-9.9,3.9-8.4,6.1c1.5,2.2,4.2,4.4,9.1,3.8c4.9-0.6,6.7-1.2,7.9,0.6c1.2,1.8,5.6,5.2,5.9,10.8
	c0.3,5.7,1.6,9.3-0.1,10.5c-1.7,1.2-3.1,3.8-1.8,4.6c1.2,0.7,3.5,2.2,3.2,3.8c-0.1,0.6-0.2,2,0,3.6c0.4,2.7,1.6,5.7,5,5.7
	c5.4-0.1,19.7,0.5,22.4,2.1c2.7,1.6,14.5,8.1,16,6.6c1.4-1.6,4.1-3.2,4.7-8.8c0.5-5.7,1.7-9.7,3.2-11.6c1.6-1.8,5.5-10,7.8-10.3
	c2.3-0.3,3.9-2.8,2.5-5.6c-1.4-2.6-11.1-13.7-11.9-20.5l-0.2,0l-0.4-4.4l7.1-7.1c0,0-0.3-8.9-0.7-11.5c-0.4-2.6-1.2-6-4.1-10.6
	c-2.9-4.5,0.6-18.2,1.3-24.1c0.7-5.9,9.1-18.1,10.5-20.2c1.4-2.2,1.3-2.4,4.6-4.1c3.3-1.7,4-5.6,5.4-10c1.3-4.4,5.3-7.3,11.1-11.9
	C797.3,128.1,789.3,118.2,789.3,118.2z M776.8,116.9l-2.7,2.7l1.5,3.2l-1.3,0.9l-5.2,3.9l-2.3-0.5l-8.5,2.6l-1.5,3.1l1.2,10.1l2.1,6
	l-2.8,12.6l-9.6,11l-13.6,7.2l-9.7-3.9l-4,2l-10-9.1l-3.4,2.2l-12.1-3.4l-0.3-1.7l5.8-4.9l-3.9-3.5v-5.4l3.6-3.3c0,0-7-4.6-7.4-4.5
	c-0.3,0.1,6.1-11,6.1-11l1.6-6.3l8.9-0.8l4.4,2.1h11l5.7-4.4l4.2,2.9l6.6-3.7l0.7-1.3l-1.2-2.6l0.4-1.1c0,0,2.4-0.8,2.6-0.8
	c0.2,0,2.6,1.5,2.6,1.5l3-0.6l4.1-5l8.3-2.4l0.4-2.2l4.7-1.1l9.8,3.9l-0.4,2.1l1,0.6L776.8,116.9L776.8,116.9z"/>
<path id="ar" class="st0" d="M776.2,111.7l-0.4,2.1l-1.1-0.7l-4.7,3.2l0.3,2.9l2.3,0.3v1.6l1.6,2.7l-5.2,3.9l-2.3-0.4v-1.8h2.5
	l0.8-1.2l-0.6-1.9H766v-2.5l-1.3-1.2l-3.9,2.2l-2.6,9.1l-1.5,3.1l1.2,10.1l-9.7,0.3l-9.6-7.3l-5.4-0.7l-2.3-2.7l-5.5,0.5
	c0,0,1,3.7,1.6,5.7c0,0-1.3,2-3.2,8.1c0,0-2.5-0.3-3.4,2.5l-4,1.6c0,0,0.3,3.5-1.1,7.3c0,0,5.2,1.7,5.9,6.7c0.7,5,1.3,1.5,1.8,5
	c0.5,3.5,1.3,5.8,1.3,5.8l-4,2l-10-9.1l-3.4,2.2l-12.1-3.4l-0.3-1.7l5.8-4.9l-3.9-3.5v-5.4l3.6-3.3c0,0-7-4.6-7.4-4.5
	c-0.3,0.1,6.2-11,6.2-11l1.6-6.3l8.9-0.8l4.4,2.1h11l5.7-4.4l4.2,2.9l6.6-3.7l0.7-1.3l-1.2-2.6l0.4-1.1c0,0,2.4-0.8,2.6-0.8
	c0.2,0,2.6,1.5,2.6,1.5l3.1-0.6l4.1-5l8.3-2.4l0.4-2.2l4.7-1.1L776.2,111.7z"/>
<path id="be" class="st0" d="M534.7,340.6c-0.9-2.5,0.4-5.7,1.6-6.5c1.1-0.8-1.3-4.6-1.3-4.6l-0.7,0.3l-3.4-1.2l-12.5-4.4l-19.1,9.3
	c0,0-3.9-2.9-4-3.1c-0.2-0.2-4.6,2.2-4.6,2.2l-8.2-3.4l-10.3,2.6l-9.1-3.9l-3.4-4.9l-9.5,0.6l-8.7,0.8l-1.8,2.5l-2.8,0.2l-1.8-0.9
	l-0.9,1.6l-6.2-9.3l-15.6-9.5l0.6-7.1l-3.1-4.8l3.6-6.2l0.3-3.4l-2.7-2.7l3.8-5.5l5.6,0.4l8.4-15.6l0.8-9.5l-11.6-1.4l-6.5-12.7
	l1-18.2l3.2-4.5l-2.7-6.3l-1-4.5l1-6.8l-5.5-6.8l-3-9.3l0-0.1l-2-10.9c0,0-3,0-4.8-0.1c-1.7-0.1-3,3.4-3,3.4l-4.3-0.2l-0.7-2.6
	l0.7-2.1l-2.7-0.5l-3,3.9l-5.1-1.5l-9.9-9.3l-10.6,4.1l-8.8,1l0.3,1.6l0.7,2.9c0,0,0.4,4.4,0.7,5.8c0.3,1.4,1.7,2.2,2.7,2.7
	c1,0.5,1,0.4,1.5,1c0.5,0.6,1.3,1.7,3.8,2.5c2.5,0.8,3,8,3,8l5.7,1.2l0.5,5.7l-3.9,3l-1.9,4.4l-9.8,1l-4.4-5l-8.7,0.9l-2.9,2.9
	l-1.3,9.6l-11.7,4.5l0.9,7.7l-0.6,0.8l-5.7,2.5l-1.2-0.4l0.7-5.4l-2.6-1.8l-7.2,3l-5.7-8.9l2.8-2.2l9.5,3.2l1.5-2.4l-1.5-1.4
	l-0.8-3.8c0,0,4-3.1,5.4-4.7c1.5-1.6,5.2-1.3,8-1.1c2.7,0.2,3.1-0.6,2.5-4.2c-0.6-3.5-5.5-4.3-6.6-4.3c-1.1,0-4.4,0.8-5.8,2.1
	c-1.4,1.2-8.2,4-8.2,4l-5.3-9.7h-4.2l-3.7-6.7c0,0,4.5-1.4,7.7-2.9c3.2-1.6,8.9-5.5,8.9-5.5l1.1-3.9l9.9-3.2l4.4-6.5l10.5-3.2
	l1.6-1.5l1.8-4.5c0,0-3.6-0.2-4.7-0.2c-1.1,0-1.9,1.4-4.8,3c-2.8,1.6-8.7,1.1-12,1.2c-3.2,0.2-4.2-0.8-5.5-1.3
	c-1.3-0.5-3.7-1.4-5.8-1.3c-2,0.2-5.8-3.9-5.8-3.9s-7.1,7.1-9.7,9.9c-2.6,2.7-4.9,2.9-8.3,3.9c-3.4,0.9-10.4-1.2-11.7-1.1
	c-1.3,0.1-2.4-0.3-3.8-1.2c-1.4-0.9-6.3-0.9-8.7-0.9c-2.4,0-1.3,2.9-1.9,5.5c-0.6,2.6-2.4,2.6-3.5,3.6c-1.2,1.1,1.9,3.4,0.6,5.5
	c-1.3,2.1-7.5,2.4-8.8,2.9c-1.3,0.5-2.8,0.2-3.8-0.4c-0.9-0.6-3.4,0.3-5,0.7c-1.6,0.4-5.4,7.9-6.9,10.5c-1.6,2.7-4.6,3.3-6.5,3.9
	c-1.9,0.7-3.8,7.1-3.8,7.1s-4.2-3.2-5-3.8c-0.8-0.7-2.9,0-4.8,0.7c-1.9,0.7-1.8,3.4-2.8,5c-1,1.6-4.4,2-6.7,3.2
	c-2.3,1.2-3.8-3.7-4.5-4.7c-0.4-0.6-2.6-0.4-4.3-0.1l0.8,2.5l-0.2,0.1c5.8,2.7,6.9,7.3,7,10.7c0.2,3.7-3.7,11.3-3.7,11.3l2.7,2.6
	l7-6.9l12.2-1.3l0.8-2.1l12.8-3.1l0.6,1.2l-2.5,5.8l3.3,4.1l3.2-3.4l5.2,3.9l-2.4,4.4l5.4,4.2c0.2-0.1,0.3-0.3,0.4-0.4
	c0.9-0.8,1.7-1.8,2.6-2.8c0.8-1,1.4-1.1,2.6-1.6c1.5-0.6,2.8-1.8,4.1-2.8c1.8-1.5,4.2-1.9,6.1-3.4c2.1-1.7,3.5-4.3,5.3-6.3
	c1.1-1.2,2.2-2.4,3.4-3.5c0.8-0.7,1.9-1.9,3-2c1.2-0.1,1.3,1.1,1.2,2c-0.3,2.1-1.4,4.5-2.6,6.2c-1.8,2.5-4,4.5-4.6,7.7
	c-0.2,0.9-0.2,1.6-0.8,2.3c-1.7,2.2-3.8,3.8-4.8,6.6c-1.1,1-2.2,2.4-3.6,2.9c-1.5,0.6-3.1,0.4-4.6,0.8c-1,0.3-1.8,1.1-2.7,1.5
	c-0.8,0.4-2.4,1.2-3.3,0.6c-1-0.6-0.2-1.6,0.5-2.1c1.8-1.5,3.9-1.8,5.3-3.7c1.5-2.1,3.2-4.4,2.9-7.1c-0.6-0.1-1.1,0.6-1.4,1
	c0,0,0,0,0-0.1c-1.2,1.6-2.3,3.2-3.5,4.7c-1.9,2.4-4.5,3.2-7.3,4.2c0.2,0.2-0.9,0.2-1.3,0.2c-0.5,0-1.1,0-1.4-0.5
	c-0.2-0.3-0.3-0.6-0.2-1c-8.9,4.2-10,11.9-9.9,15.6c0.3,0.1,0.5,0.3,0.8,0.5c0.5,0.4,0.9,0.9,1.2,1.4c0.9,0,2,0.3,2.3,1.5
	c0.2,0.8,0.7,2.9,1.3,5.4l9.7-1.8l5.1-1.4l3.2-0.4l6.3-3.2l8-5.6l5.9,6.2l-5.4,7.3l-0.6,4.1l-3.1,2.3l3.5,3.7l0.6,3.9l2.3-0.6
	l-7.4,7.1l1.9,2.4l5.9-1.3l6.5,0.5c0,0,3.8,4.5,7.8,4c4-0.5,8.6-4,11.7-1.9c3.1,2.2,4,2,3.8,5c-0.2,3,0.3,5.4-0.8,7
	c-1.1,1.6-2.6,4.7-3.5,3.7c-0.9-1.1-0.9-3.9-0.9-3.9l-4.1-2.1l-1.7,4.4c0,0,5.6,2.4,5.1,5.3c-0.5,2.9-3,3-3,5.7
	c-0.1,2.7-1.5,6.3-1.6,7.5c-0.2,1.2-0.7,2.9-1.7,3.5c-1,0.6-2.1,1.1-1.6,2.6c0.5,1.5,3.4,6.4,2.3,8.4c-1.2,2-1.6,2.8-1.2,4.2
	c0.4,1.4,1.2,3.2,1.2,3.2s10.4,2.8,10.2,3.6c-0.2,0.8,0.3,2.4,1.8,3c1.5,0.7,3.3,0.8,2.8,3.8c-0.5,3-0.2,10.5-1.3,11
	c-1.1,0.5-1.7,2.2-2.8,1.5c-1.1-0.8-2.1-2-3.5-2c-1.4,0.1-3.5,0-3.5,1.5c0,1.5,1.7,4.4,0,5.1c-1.7,0.7-3.4,1-3.4,2.6
	c0.1,1.5,0.2,2.9,1.2,4c1,1.1,2.6,2.1,1.9,3.2c-0.7,1.2-1.5,6.8-3.5,6.6c-2-0.2-5.3-0.9-6.4,1.3c-1.1,2.1-6.4,7.8-11.2,10.1l3.7,3.5
	c0,0,1.1,9.5-0.2,10.8c-1.3,1.3-2.8,2.9-3,5.6c-0.2,2.7,0,12.1-2.3,12.6c-2.3,0.4-6.5,1.3-4.8,5.1c1.8,3.8,1.9,6,1.1,7.9
	c-0.9,1.9-1.7,5.9,0.4,8.6c2.2,2.7,3.7,5.2,3.5,7.1c-0.2,2-0.3,8.3-0.3,8.3l4.9-0.7l1.6-1.2l3.6-1l0.6-2.6l-0.4-3.6l4.5-3.7h5.9
	l0.5,6.4c0,0,12.1-3.9,12.2-4c0-0.1,1.6-2.9,1.6-2.9s11.3-3.5,11.4-3.5c0.1,0,3.3-1.9,3.3-1.9h4.6l4.7,2l14.8-2.6v-2.9h-7.1
	l-1.5-2.5l3.6-2.4l4.4-0.5l5.3-1.9l3.7,2l8.4-10.9l5.9,4.1l4.9,1.1l6.5,3.2l10.9-6.3l8.5-4.4c0,0,7.8-8.8,7.9-8.8c0.1,0,6.4,0,6.4,0
	l4.3-1.3c0,0,0.7-1,2.8-1.5c2.1-0.4,5.7-1.7,6.4-3c0.7-1.2,1.7-1.6,2.8-1.9c1-0.3,2.1,0.3,2.9-1.5c0.8-1.8,3.5-5.5,2.8-6.2
	c-0.7-0.7-2.4-2.8-0.8-4c1.6-1.2,10.1-8.1,10.1-8.1s5.2,3.7,9.7,3.8c4.5,0.2,7.3,0.3,7.3,0.3l7.2,6.2c0,0,13.9-0.7,15,0.9
	c1,1.5,3,4.2,5.9,3c2.9-1.1,18-8,18-8s10.3-6.8,11.3-11.6c1-4.8,4-17.6,4-17.6l4.2-6.8l-1.8-5.1l3.1-4.7l5.5,0.3l3.4-3.4
	C537.3,351.4,535.6,343.1,534.7,340.6z M403.6,363.5c-3.8,0.4-7.4-0.4-8.9,0.6c-1.5,1.1-3.2,2.5-5.7,1.1c-2.5-1.4-6.5-3.7-8.5-5
	c-2-1.3-5.7-5.4-6.9-5.5c-1.3-0.2-2.7-0.2-3.4-1.3c-0.8-1.1-1.4-2.5-2.7-2.8c-1.3-0.2-1.5,0.2-2-1.2c-0.5-1.3,0.4-1.8-0.7-2.4
	c-1.1-0.6-4.8-2.1-3.3-3.3c1.5-1.2,2.9-1,2-2.6c-0.9-1.5-1.8-4.2,0.4-2.4c0,0,5.1,4,6.2,5.4c1,1.3,3.4,4.8,8.3,5.9
	c4.9,1.1,4.3,3,5.9,4.8c1.6,1.8,1.7,4.6,6.9,4c5.2-0.6,7-1.4,9.1,0C402.3,360.2,407.3,363,403.6,363.5z M451.6,337.5
	c-1.3,2.7-5.1,0.4-8.5,3.9c-3.4,3.4-13.3,10.9-13.3,10.9s-2.4,1.9-3.3,1.9c-0.8,0-2.3,0.3-2.4,0.9c-0.2,0.5-2.1,1.5-3.9,1.4
	c-1.9-0.1-5.4-1.1-2.7-2.1c2.8-1,3.4-1.2,4.7-3.1c1.3-1.8,7-4.7,9-7.6c2.1-2.9,5.7-7.6,8.7-8C442.9,335.3,452.8,334.9,451.6,337.5z"
	/>
<path class="st0" d="M246.4,238.6c-0.2,0.2-0.5,0.4-0.8,0.5c-0.1,0-0.8,0.1-0.8,0c-0.9,0.7-2.9,1.8-3.2,3c-8.9,4.2-10,11.9-9.9,15.6
	c-1-0.5-2.1-0.5-3.2-0.6c-1.6-0.1-3.2-0.2-4.8-0.7c-1.4-0.4-3-1.1-4.5-0.7c-1.5,0.5-2.2,2.2-2.8,3.5c-1.9,2-3.3,4.4-6.3,4.1
	c-0.7-0.1-1.5,0-2.2,0c-1.3,0-2.3,0.4-3.3,1.3c-1.1,0.9-2.5,1.1-3.5,2c-1,0.9-1.7,1.9-1.8,3.2c-0.1,0.6,0,1.3-0.3,1.9
	c-0.3,0.7-1,1.2-1.3,1.8c0,0.1,0,0.1,0.1,0.1c-1.9,1.5-3.8,2.3-4.2,4.8c-0.2,1-0.1,2.3-1.2,2.6c-0.9,0.3-1.8-0.1-2.7,0
	c-3.2,0.5-5.6,3.6-7.3,6.3c-1.5,1.8-3.4,4.6-5.9,4.9c-1.2,0.2-1.7,0.7-2.2,2c-0.5,1.3,0,2.4-0.1,3.7c0,0.6-0.2,1.1-0.4,1.6
	c-4.4-1.3-4.6-4.1-4.5-6.2c0.1-2.5-2.4-4.3-3.2-5.3c-0.8-1-0.5-2.9,0.4-5.4c0.9-2.6-0.9-3.4-1.9-4.3c-1-0.9-3.9,1.8-8.4,3.6
	c-4.5,1.8-5.2,2.3-7.2,5.5c-2,3.2-10.5,4.3-12.3,5.3c-1.8,0.9-11.3,9.5-15.7,11c-2.1,0.7-6.1,0.4-9.6,0l0.6-17.5l-5.5-8.3l10.3-12.2
	l5.1,0.9l27.9-10.5l3.5-7.9l13.5-5.2l-4-12.1l9.4-4.3l0.3-7.5l22-11.7c5.8,2.7,6.9,7.3,7,10.7c0.2,3.7-3.7,11.3-3.7,11.3l2.7,2.6
	l7-6.9l12.2-1.3l0.8-2.1l12.8-3.1l0.6,1.2l-2.5,5.8l3.3,4.1l3.2-3.4l5.2,3.9l-2.4,4.4L246.4,238.6z"/>
<path class="st0" d="M277.3,405.1l-3.7-3.5c0,0-1.8,3.4-3,5.6c-1.3,2.2-2.6-3.1-3-4.4c-0.5-1.3-6.3,3.8-9.4,5.8
	c-3,1.9-4.6,6.2-6.4,9.1c-1.8,2.9-4.8,2.6-9.1,2.8c-4.3,0.3-7.3,4.2-9.4,5.4c-2.1,1.2-3,2.3-3.8,5.9c-0.8,3.6-5,3.4-6.9,4.4
	c-1.9,1-0.7-5.3-0.4-7.9c0.3-2.6-0.9-4.7-2.1-8.9c-1.2-4.3-14.3-4.8-19-5.2c-4.7-0.3-4.2,3.8-7,4.3c-2.8,0.6-4.2-6-4-7.6
	c0.2-1.5-1.3-1.5-3-2.1c-1.7-0.5-0.3-5.2-0.3-5.2l2.3,0.4l2.4-2.5c0,0,2.9,4.4,4.5,4.9c1.6,0.5,2.1-1.8,1.9-3.6
	c-0.2-1.7,7.7-7.8,7.7-7.8l-9.7-0.8l-2.6-2.6l-2-0.1l-2.8-1.3l-6.4,2.7l-1.2-21l2.7-4.2l8.1-4c2.5,4,4.2,3.2,5.5,2.6
	c1.2-0.6-0.4-8.8-0.4-8.8l1.3-1.4l3.2-0.4l12.8-17.9l-5.8-1.1l6.3-10.1l5.8-5.2l-1-1.5l-2,1.5l-0.9-2.6l2.2-5.5h4.9l1.7-2.7
	l-4.2-8.8l2.2-3l-2.4-6.1l-2.6,0.8l-4,2.9l-4.4-7.9c0,0-0.1,0-0.1,0c-0.5,0.1-0.9-0.1-1.2-0.3c-0.4-0.1-0.6-0.5-1.1-0.3
	c-0.7,0.2-1.4,1.6-1.9,2.2c-0.6,0.7-1.2,1.3-1.8,2c2.3,2.1,6.1,5.4,6.9,6.3c1.2,1.3-2.7,2.5-5.1,2.5c-2.4,0-4.6,1.7-3.9,3.2
	c0.6,1.5,2.6,1,5.3,0.7c2.7-0.3,1.6,2.4,0.1,4.2c-1.5,1.8-1.4,5.6-1.4,7.4c0,1.7,0.5,2.5,1.7,2.9c1.2,0.5,2.2-1.4,3.9-0.9
	c1.8,0.5,0.1,3.8-1.5,4.9c-1.6,1.1-3.6,5.4-3.6,5.4l-6.6,0.4l-4-3.9c0,0-3.3,2.9-4.5,3.7c-1.2,0.8-4.3-1.4-5.3-2c-1-0.6-2,1-3.1,1.8
	c-1,0.8-5.2-6.3-8-9.7c-0.9,0.4-2,0.7-3,0.4c-1.1-0.3-2-0.9-3.1-1c-1.3-0.2-2.5,0.6-3.7,0.8c-1.1,0.2-2,0.3-3.1,0.7
	c-2.9,1.1-5.7,2.2-8.5,3.6c-1.3,0.7-4.4,3.4-4.8,0.7c-0.3-1.7,0.1-4.6,0.8-6.1c0.9-1.8,3.1-2,4.7-2.7c3-1.2,4.6-3.2,6.7-5.6
	c1-1.1,2-2.3,3.3-3c1.1-0.6,2.2-0.7,3.3-1.2c2-0.8,3.3-2.9,4.8-4.3c0.5-0.5,1-1.1,1.4-1.8c-4.4-1.3-4.6-4.1-4.5-6.2
	c0.1-2.5-2.4-4.3-3.2-5.3c-0.8-1-0.5-2.9,0.4-5.4c0.9-2.6-0.9-3.4-1.9-4.3c-1-0.9-3.9,1.8-8.4,3.6c-4.5,1.8-5.2,2.3-7.2,5.5
	c-2,3.2-10.5,4.3-12.3,5.3c-1.8,0.9-11.3,9.5-15.7,11c-2.1,0.7-6.1,0.4-9.6,0l0,0.7l-5.3,7.4l1.6,14.1l-10.3,7.8l-6.1,10.1L72,353.8
	l-35.7,36.6l8.5,13.1l-16.1,20.7l2.2,8.4l-4.5,7.8L43.9,452l0.2,10.7l-7.6,13.9l11.2,1.4c1.3-2.2,3.2-3.9,5.1-5.6c1-0.9,1-1.8,1.2-3
	c0.2-1.2,0.4-2.2,0.5-3.4c0-1,0.3-1.9,0.6-2.9c0.3-0.9,0.5-1.9,1.3-2.6c0.4-0.3,0.8-0.5,1.1-0.9c0.4-0.5,0.6-1.1,1-1.6
	c0.8-1,1.9-1.5,2.7-2.5c0.6-0.8,1.2-1.5,1.8-2.3c0.5-0.8,0.9-1.7,1.5-2.4c0.7-0.8,1.3-1.4,2.4-1.5c1.2-0.1,2.3-0.2,3-1.2
	c0.6-0.9,0.6-2,1.2-2.8c0.4-0.5,1-0.6,1.4-0.9c0.5-0.4,0.6-0.9,0.7-1.4c0.2-1.1-0.1-2.2,0-3.3c0.2-1.1,1.6-1.3,2.5-1.7
	c0.5-0.2,0.9-0.4,1.2-0.9c0.2-0.5,0.2-1,0.6-1.5c0.5-0.8,1.8-0.9,2.5-1.4c0.8-0.6,1.3-1.4,1.1-2.4c-0.2-1-0.9-1.9,0-2.6
	c0.8-0.7,1.9-0.4,2.9-0.4c1.3,0,2.6-0.3,3.9-0.8c1.2-0.4,2.2-0.9,3.5-0.8c0.9,0.1,2.1,0.2,3,0.5c0.9,0.4,1.6,0.4,2.6,0.2
	c0.9-0.2,1.7-0.6,2.4-1.2c0.7-0.7,1.2-1,2.2-1c1,0,1.8,0.2,2.8,0.2c0.9,0,1.6-0.4,2.3-1c0.3-0.3,0.6-0.7,1-1
	c0.8-0.7,2.1-1.4,2.7-2.3c0.5-0.8,0.5-2.1,1.3-2.8c0.7-0.6,1.7-0.4,2.5-0.5c2.1-0.1,2-1.3,2.9-2.8c0.6-1.1,1.9-2.3,2.8-3
	c1.5-1.2,2.7,0,3.9,0.9c1.4,1,2.7,0.6,4.2,0.2c1.4-0.3,3.1-0.1,4.4-0.8c1.3-0.7,2.1-1.8,3.7-1.5c1.5,0.3,2.8,1.1,4.4,1.2
	c1.7,0.1,2.6,0.5,3.7,1.8c1.1,1.2,2.3,1.5,3.8,1.2c1.7-0.4,3.4-0.7,5.2-0.5c1.8,0.2,3.4,0.8,5.2,1.1c1.6,0.2,3.7,0.2,4.7,1.6
	c0.8,1.2,1.1,3.2,2.8,3.5c1.5,0.3,3.2-0.6,4.8-0.7c1.8-0.1,3,0.4,4.3,1.6c0.7,0.6,1.3,1.2,2.2,1.5c0.8,0.3,1.6,0.3,2.4,0.3
	c1.4,0.1,2.7,0.5,3.9,1.3c1.1,0.7,2.2,2.4,3.6,2.3c0.7,0,1.3-0.4,2-0.1c1,0.5,1.5,1.5,2.2,2.3c0.5,0.5,1.1,0.9,1.6,1.4
	c1.5,1.5,3,2.7,5.1,3.4c1.8,0.6,3.7,0.9,5.3,1.8c1.5,0.9,2.7,2.4,3.9,3.7c1.4,1.5,2.9,3.3,3.2,5.4c0.3,2.2-1.1,3.6-3,4.3
	c-2,0.8-3.9,0.8-6,0.3c-0.9-0.2-1.9-0.6-2.9-0.5c-0.2,0-0.3,0.1-0.5,0.1c1.5,2.1,2.9,4.1,3.4,4.9c1.3,1.9,1.1,3.7,0.4,6.7
	c-0.6,3,3.7,5.7,6.9,6.7c3.3,1,2.6,7.5,3.2,10.8c0.6,3.3,1.7,3.9,4.5,5c2.8,1.1,3.4,6.7,3.4,6.7s1.5,7.8,4,10.4
	c2.6,2.6,1.2,6.9,3.2,8.3c2,1.4,2.4,3.4,2.4,3.4s8.8-1,13-1.3c4.2-0.3,5.8-5.5,7.7-9.4c1.9-3.9,8.5-7.8,11.7-10
	c3.3-2.2,4.1-8.5,3.6-11.6c-0.6-3,6-9,6-9s0.2-6.3,0.3-8.3c0.2-2-1.3-4.4-3.5-7.1c-2.2-2.7-1.3-6.7-0.4-8.6c0.9-1.9,0.7-4.2-1.1-7.9
	c-1.8-3.8,2.4-4.7,4.8-5.1c2.3-0.4,2.2-9.9,2.3-12.6c0.2-2.7,1.7-4.3,3-5.6C278.4,414.5,277.3,405.1,277.3,405.1z M182.6,339.9
	l5.9-1.4l5.1-7.7l2.8-0.6l2.4,4l2.9,2.2c0,0,0.2,1.1-1.1,1.3c-1.2,0.2-1.9,0.4-1.7,1.5c0.2,1.1,0,3.3,0,3.3s-1.5,1.3-1.5,1.1
	c0-0.1-8.2-2.7-8.2-2.7l-6.8,2.2L182.6,339.9z M80.9,364.2c-1.3,1.3-2.4,3-3.5,4.4c-1.1,1.4-2.5,2.2-3.6,3.5
	c-1.1,1.3-2.8,1.9-4.2,2.8c-1.1,0.6-2,1.3-3,2c-0.3,0.2-0.5,0.4-0.8,0.6c-0.4,0.4-2,2.1-2.6,1.3c-0.4-0.5,1-2.4,1.3-2.8
	c0.5-0.7,1.4-1.2,2-1.9c0.7-0.7,1.4-1.3,2.1-1.9c1.2-1.1,2.1-2.1,3.6-2.7c1.4-0.6,2.6-1.7,3.8-2.6c0.7-0.5,1.4-1.1,1.9-1.8
	c0.6-0.8,1-1.6,1.9-2.1c0.4-0.2,1.2-0.6,1.6-0.2C82,363.4,81.3,363.8,80.9,364.2z M177.9,340.4l0.3,4.6c0,0-2.6,0.9-2.7,1
	c-0.1,0.1-2.5-4.4-2.5-4.4l-0.6-2.6l5.7-3l2.4,2.3L177.9,340.4z"/>
<path class="st0" d="M543.3,404.3l-5.3,11.6l-11.2,2.5l-0.5,12.8l-2,1.2l-12.1,3l-6.7,8.8l6.5,7.3l-10.1,6.8l-1.8,7.1l-7.6,2.6
	l-7.1,9.3l-12.7,2.4c0,0-8.1,8.1-10.1,11.9l4.3,3.7l3.3,5.2l4.7,1.1l6.5,12.9l-1.4,9.2l-3.7,6.1l-5.4,1l-2,5.7l-15,2.7l-4.1,12.2
	l2.1,4.1l-3.2,5.9l0.4,4.8l-8.3,7.1l-14.8,0.4l-6.6,5.4l-2.7,9.9l3.4,7.6l-5,2l-6.5-3.9l-7.9,2.6l-11.6-6.3l-2.3,6.4l-6.1-0.4
	l0.2-8.3l-7.9-8.6l-15.4,1.5l-3.8-4.1l-7.8-0.1l-0.5,8.2l-15.9,2.1l-0.8,5.1c0,0-13.2,7.4-17.7,13.3l-6.1-5.1l-13.9-1.6l-8.5,9.1
	l-10.4,0.5l-2.1,9.1l-5.2-0.1l-4.6-6.3l-9.1,6.9l-4,0.1l-2.3-8.2l-9.2-11.7l0.9-8.3l-7.4-6.2l-3.2-14.4l-6.8-1.6l-7.1-13.7l-5.1,4.3
	l-6-2l-0.1,4.9l-4.7-3l6.2-23.1l-22.5-3.7l-1.8-8.3l6.1-7.4l-0.7-10.2l10.8-18.9l-10.4-7.8l-6.9-17.5l4.4-5.9c0.5-1.1,1.3-2,2-3
	c0.2-0.3,0.3-0.5,0.5-0.8c0.1-0.2,0.3-0.4,0.5-0.5c0.2-0.1,0.1-0.1,0.3-0.1c0.2,0,0.3,0,0.5,0c0.5,0,1.1,0.4,1.6,0.3
	c0.5,0,1-0.2,1.5-0.1c0.9,0.1,1.9,0.2,2.8,0.2c2,0.1,3.6-0.3,5.1-1.6c0.5-0.4,1-0.8,1.5-1c1.5,2.1,2.9,4.1,3.4,4.9
	c1.3,1.9,1.1,3.7,0.4,6.7c-0.6,3,3.7,5.7,6.9,6.7c3.3,1,2.6,7.5,3.2,10.8c0.6,3.3,1.7,3.9,4.5,5c2.8,1.1,3.4,6.7,3.4,6.7
	s1.5,7.8,4,10.4c2.6,2.6,1.2,6.9,3.2,8.3c2,1.4,2.4,3.4,2.4,3.4s8.8-1,13-1.3c4.2-0.3,5.8-5.5,7.7-9.4c1.9-3.9,8.5-7.8,11.7-10
	c3.3-2.2,4.1-8.5,3.6-11.6c-0.6-3,6-9,6-9l4.9-0.7l1.6-1.2l3.6-1l0.6-2.6l-0.4-3.6l4.5-3.7h5.9l0.5,6.4c0,0,12.1-3.9,12.2-4
	c0-0.1,1.6-2.9,1.6-2.9s11.3-3.5,11.4-3.5c0.1,0,3.3-1.9,3.3-1.9h4.6l4.7,2l14.8-2.6v-2.9h-7.2l-1.5-2.5l3.6-2.4l4.4-0.5l5.3-1.9
	l3.7,2l8.4-10.9l5.9,4.1l4.9,1.1l6.5,3.2l10.9-6.3l8.5-4.4c0,0,7.8-8.8,7.9-8.8c0.1,0,6.4,0,6.4,0l4.3-1.3c0,0,0.7-1,2.8-1.5
	c2.1-0.4,5.7-1.7,6.4-3c0.7-1.2,1.7-1.6,2.8-1.9c1-0.3,2.1,0.3,2.9-1.5c0.8-1.8,3.5-5.5,2.8-6.2c-0.7-0.7-2.4-2.8-0.8-4
	c1.6-1.2,10.1-8.1,10.1-8.1s5.2,3.7,9.7,3.8c4.5,0.2,7.3,0.3,7.3,0.3l7.2,6.2c0,0,13.9-0.7,15,0.9c1,1.5,3,4.2,5.9,3
	c2.9-1.1,18-8,18-8s10.3-6.8,11.3-11.6c1-4.8,4-17.6,4-17.6l4.2-6.8l0.4,1.2l5.2,4.1c0,0-2,8.3-2.7,11.8c-0.7,3.5-0.7,5.5,0.6,8.8
	c1.2,3.3,2.9,8.4,2.9,8.4L543.3,404.3z"/>
<path id="gr" class="st0" d="M974.2,369.2l-5.2,25l-5.7,0.2l-13.4-8.1l-4.3,2.6l-12.2-0.5L931,382l-8.3-1.8l-3.3-5l4.7-6.5l-7.6-6.3
	l-3.4,5.7l-22.8,2.1l-0.7,10.3l-10,12.6l1.4,23l-3.1,4.9l4.2,11.6l12.9-2.3l9.7,3.4l2,7.2l-6.3,3.1l-5.9,14.7l16.2,23.1l-4.7,4.5
	l-1.8,6.4l-10.1,0.2l-7.4,3.4l-4.6-3.8l2.8-9.7l-12.5-6.8l-4.6-11.7l2.6-7.7l-8.5-9.5l-7.2,2.6l-5.4-3.9l-5.9,5.4l-17.8,6.9
	l-8.6-2.9l-5.2,6.4l1.6,6.3l-5,7.1l-5.8-2.3l-8.6,2.8l-9.1-0.4l-13.2-8.6l-4.6-10.8l-9.8-6.9l-2.7-15.7l2.7-9.6l-1.8-11.5l-6-2.1
	l-6.4,8.9l-7.1-3l-1.3-6.4l-18.2,2l-1.6,11.1l-5.4,7.5l6.6,8.8l0.5,13.7l3.7,12.4l-8.8,28.7l-9.2,9.5l-2.9,11.9l-8.4,2.3l-0.1,0.1
	c-1.6-3.4-6-10.6-15.2-15l-1.8-16.1l-3.6-1.8l-1.3-7.2l3.2-1.9l0.6-13.6l4.4-4.1l0.1-15.9l1.5-4.7l-3.6-3.8l0.2-2l2.7-2.7l-1.2-9.7
	l-4.2-2.7l-4.6,2.3l-5.2-5.1l-3.7-12l4.8-14.5l-7.3-9l-9,0.7l0.1-4.2l-1.4-2.1l-3.7,3.2l-7.5-1.7l-2.7,3.6l3.3,4.2l-0.2,5.3
	l-12.1,6.4l-14.3,0.7l-6.4-4.1l-15.1-0.6l-1-9.8l-4.7-5.2l-0.1-5.7l4.7-5.6l0-10.9l7.6-1.2l6.2-5l0.5-5.3l-0.1-2.1l5.2-0.3l2.9,1.9
	l5.2-2.3l1.1-5.2l1.2-1.8l1.2-8.6l5.2-5.2l4.9-3.3l8.1,0.3l3.7,6.1c0,0,12.3-3.3,14.6-4.1c2.3-0.8,5.5-6.3,7.2-8.2
	c1.7-1.9,2.6-6.1,2.8-8.3c0.2-2.2,1.9-5.2,1.9-5.2l6.8,0.4l4.6,6.6c0.6-0.6,5.6-3.1,6.9-3.6c1.2-0.5,1.9-2.1,2.5-4
	c0.7-2,9.9-2,9.9-2l10.3-12.2c0.4,2.7,1.6,5.7,5,5.7c5.4-0.1,19.7,0.5,22.4,2.1c2.7,1.6,14.5,8.1,16,6.6c1.4-1.6,4.1-3.2,4.7-8.8
	c0.5-5.7,1.7-9.7,3.2-11.6c1.6-1.8,5.5-10,7.8-10.3c2.3-0.3,3.9-2.8,2.5-5.6c-1.3-2.6-11.1-13.7-11.9-20.5l11.3-2.4l3.5,4.1
	l10.3-3.6l5,2.4l4.2-2.4l9-1.1l12.4,7.5l7.3-0.3l7.6,4.5l9.3-0.7l6.9,9.5l-4,7.2l1.5,10.6l10.7,6.2l10.9,0.5l11.5,5.8l5.1,10
	l8.7,0.9l1.3,4.3l13.8-0.5l3.8-6.2l5.9,0.5l4.3-6.2l-2.9-6.7l5.3-8.8l12.1,1.7l3-3l-1.9-3.4l5.2-5.2l3-10.3l10.2-1.9l5.3,6.6
	l0.2,4.8l7,0.6l7.3,5.6c0,0-1.4,9.8-3.5,13.7c-2.1,3.9-1.3,3.7-0.8,5.4c0.5,1.7,2.3,11.4,2.3,11.4s-2,10.3-8.8,16.1l3.8,12.4
	l-7.9,5.6l2.3,7.3l-7.4,8.7l3.7,12.9l10.3-0.7L974.2,369.2z"/>
<path id="ge" class="st0" d="M46,482.2c-0.1,1.3,0.4,2.1,0.8,3.3c0.4,1.2,0.2,2.1-0.5,3c-1.3,1.6-2.2,3.9-2.7,5.8
	c-0.3,1.1-0.6,2.2-0.7,3.3c-0.1,1.1,0.1,2.2,0.1,3.3c0,0.7-0.1,1.5,0,2.2c0,0.6,0.3,1.2,0.3,1.8c0.1,1.3,0,2-0.6,3.1
	c-0.5,1-1.2,2-1.8,2.9c-1.4,1.8-3,3.4-4.7,4.9c-0.7,0.6-1.4,0.7-2.2,1.1c-0.8,0.4-1.6,0.5-2.5,0.5c-0.9,0-1.7-0.2-2.6-0.3
	c-1-0.1-2.1,0.1-3.1,0c-1.6-0.2-3.2-0.1-4.8-0.1c-1.6,0-2.9,0.5-4.4,1.2c-0.8,0.4-1.8,0.5-2.6,0.8c-0.8,0.4-1.8,0.7-2.6,1.2
	c-1.2,0.7-2.1,1.7-3.1,2.7c-0.8,0.9-1.9,1.5-2.7,2.5c-1.4,1.7-2.9,3.1-3.7,5.1c0,0,0,0.1,0,0.1L1,530.3l1-6.6l6-7.1l-3.9-6.8
	l8.4-10.8l6.9-0.7l7.4-5.5l9.4,0.9l-0.7-15.4l1-1.8l11.2,1.4c-0.1,0.1-0.1,0.2-0.2,0.4C46.9,479.5,46.1,480.9,46,482.2z M76,491.6
	l-3.7,10.5l-23.8,10l-2.4,9.1l-11.6,4.3l-19.3,1.8l-10.3,4.1l-0.4-0.1c0.1-0.3,0.3-0.6,0.5-1c0.6-1.2,1.5-2,2.4-3
	c1.9-2.1,4.1-4.5,6.7-5.7c0.8-0.4,1.6-0.7,2.4-0.9c1.1-0.2,2.1-0.7,3.2-1.1c-0.1,0-0.2,0.1,0.1,0c0.3,0,0.5-0.2,0.8-0.2
	c0.5-0.1,0.9-0.2,1.4-0.3c0.6-0.2,1.4-0.2,2-0.3c1.7-0.1,3.5-0.4,5.2,0c1.5,0.4,3-0.2,4.4-0.6c1.3-0.4,2.6-0.9,3.8-1.6
	c0.5-0.5,1.4-1,2.1-1.4c2.1-1.4,3.4-3.9,4.7-6.1c0,0,0.2-0.3,0.3-0.4c0.3-0.3,0.6-0.6,0.8-1c0.4-0.8,0.3-1.6,0.7-2.4
	c0.8-1.7,2.4-2.8,3.8-4c0.4-0.3,0.7-0.7,1.1-1.1c0.3-0.3,0.6-1.1,1-1.2c0.4-1.3,0.8-2.5,1-3.8c0.1-1.1,0.2-2.2,0.3-3.4
	c0.2-2,1.1-4,2.7-5.3c0.9-0.7,1.7-1.3,2.5-2c1.1-1,2.3-1.9,3-3.2c0.3-0.6,0.3-1.1,0.4-1.8c0-0.3,0.9-1.5,0.7-1.6
	c0.7-0.1,1.7,1,2.2,1.4c0.3,0.2,1.1,0.5,1.2,0.9c0.1,0.4-1.1,2-1.3,2.4l-3.7,3.5l8.3,7.5l4.5-4.1L76,491.6z"/>
<path class="st0" d="M691,517.1l-15.6,13l4.4,7.1l-2.2,9.9l-10.8,3.3l-3.8,5.8c0,0,2.2,3.4,3.8,7.3c-0.6,0.2-1.1,0.6-1.7,1
	c-0.8,0.5-1.3,1.2-1.9,1.9c-0.7,0.8-1.6,1.2-2.5,1.7c-0.6,0.4-1.1,0.4-1.8,0.6c-0.3,0.1-0.6,0.3-0.7,0.5c-0.1,0.1-0.2,0.2-0.3,0.4
	c-0.1,0.1,0.2,0,0.1,0.1c-0.8,1.2-1.9,1.6-3,0.6c-1.1-1.2-1.6-0.5-2.8,0.2c-0.6,0.4-1.2,0.8-1.4,1.5c-0.2,0.9,0.1,1.8,0.2,2.7
	c0,0.9,0,1.8,0.2,2.7c0.4,1.6,0.1,2.8-0.4,4.3c-0.6,2-1.5,3.8-2.2,5.8c-0.6,1.8-1.4,3.6-3,4.8c-0.5,0.3-1,0.3-1.5,0.5
	c-0.5,0.2-0.9,0.6-1.4,0.3c-0.9-0.4-1-1.6-0.9-2.4c0.1-1.3,0.1-2.5,0-3.8c-0.1-0.9-0.1-1.9-0.6-2.7c-0.5-0.9-1.1-1.6-1.2-2.6
	c-0.1-1-0.2-2.2,0.1-3.2c0.2-0.9,0.7-1.4,1.2-2.2c1.1-1.6,1.9-4.1,0-5.3c-1.2,0.6-1.8,1.2-2,2.6c-0.3,1.8-1.2,3.4-1.8,5.1
	c-0.3,0.9-0.5,1.9-0.9,2.8c-0.2,0.4-0.5,0.7-0.6,1.2c-0.2,0.5-0.1,1.1-0.2,1.6c0,0-0.1,0.2-0.1,0.3c-0.9,0.1-1.8-0.3-2.6-0.4
	l-2.6-0.2l-3.8-6.4l-2.2-2.3l-7.2-0.8l0.5-9.9l10.8-10.9l1.6-5.7l-9.5-8.3l-8.3,0.6c-0.4,0-0.8-0.1-1.1-0.1
	c-0.5-0.1-0.8-0.3-0.9-0.8c-0.1-0.5-0.3-0.8-0.6-1.3c-0.5-0.8-1.2-1.6-2.2-1.5c0.4-0.3,0.8-0.5,1.1-0.8c1.8-1.4,3.1-3.4,5-4.8
	c1.8-1.3,3.9-2.4,6.1-2.9c2.1-0.5,4.5-0.3,6.1-2c1.7-1.8,1-4.1-0.1-6.1c-0.8-1.4-2.4-4.7-4.5-3.9c-1.1,0.4-2,1.2-3,1.8
	c-0.9,0.5-2.5,1-3.1,2c-0.5,0.8-0.5,1.9-0.6,2.8c-0.1,0.7-0.2,1.3-0.4,2c-0.2,0.5-0.4,1.2-0.7,1.6c-0.4,0.5-1.2,0.5-1.8,0.3
	c-0.5-0.1-1-0.3-1.5-0.5c-0.4-0.1-0.7-0.1-1.1-0.1c-1.1-0.2-2.2-0.4-3.4-0.1c-1.2,0.3-2.3,1-3.3,1.7c-0.6,0.4-1.2,0.8-1.8,1.1
	c-0.5,0.2-0.9,0.4-1.2,0.9c-0.2,0.4-0.2,0.8-0.4,1.1c-0.4,0.9-1.1,1.4-1.4,2.3c-0.3,0.7-0.3,1.5-0.6,2.2c-0.4,0.8-1,1.3-1.6,1.8
	c-0.6,0.5-0.6,1.3-0.8,2c0,0-0.1,0.2-0.2,0.3h-0.1v0.1c-0.7-0.4-1.2-1-1.8-1.6c-0.5-0.5-1.4-0.7-1.9-1.2l-3.6-3.8l-8.6-0.4l-4.2-7.6
	l-4.8-2.4l-13-19l-6.9-1.1l-10.2-9.3l2.6-5.4l-6-10l5.7-8.6l2.3-12.4l-1.6-3.7l-1.1-21.7l-6.4-5.5l-8.9,5.5l0.5-12.8l11.2-2.5
	l5.3-11.6l7.8-3.4l-0.2-3.7l2-2.7l0.2-5l13.8-1.1c0,0,0.9,2.3,1,2.5c0-0.2,4.4,0.2,4.4,0.2l3.2-0.2l4,4.5l8.4-6.5l15.1,0.6l6.4,4.1
	l14.3-0.7l12.1-6.4l0.2-5.3l-3.3-4.2l2.7-3.6l7.5,1.7l3.7-3.2l1.4,2.1l-0.1,4.2l9-0.7l7.3,9l-4.8,14.5l3.7,12l5.2,5.1l4.6-2.3
	l4.2,2.7l1.2,9.7l-2.7,2.7l-0.2,2l3.6,3.8l-1.5,4.7l-0.1,15.9l-4.4,4.1l-0.6,13.6l-3.2,1.9l1.3,7.2l3.6,1.8l1.8,16.1
	C685.1,506.5,689.4,513.7,691,517.1L691,517.1L691,517.1z"/>
<path class="st0" d="M667.8,566.1c0.3,0.9,0.5,1.8,0.6,2.6l-9.9,6.8l-5.6,8.1l3.2,1.1l3.7-4.5l4.1,0.6l2.9,9.2c0,0,6.9,1.7,7.1,1.7
	c0.2,0,7.8,8.3,7.8,8.3l-6.7,7.6l-5.6,17.7l-4.7,0.7l-12.4-5.2l-7.9,2.5l-2.4-4.6l6.4-6.7l-2.5-9.3c0-0.8-0.4-1.4-0.7-2.1
	c-0.2-0.5-0.4-1.1-0.7-1.5c-0.3-0.4-0.8-0.6-1.2-0.9c1.7-2.1,3.4-3.8,5.7-5.3c1-0.6,2.3-1.3,3.4-0.8c1.2,0.6,1.7,1.4,2.1,2.6
	c0.4,1.2,0.8,2.4,1,3.7c0.1,0.5,0,1.6,0.6,1.8c0.4,0.1,1.1-0.5,1.4-0.8c0.8-0.9,0.3-2.3,0.5-3.3c0.1-0.6,0.1-1.1,0-1.7
	c-0.2-0.9-0.9-0.9-1.4-1.5c-0.5-0.5-0.8-1.4-0.9-2c-0.2-1-0.4-1.1-1.3-1.4c-0.8-0.2-1.6-0.6-2.5-0.8c-0.6-0.2-1.2-0.2-1.4-0.9
	c-0.4-1.2,0.6-3.1,1-4.1c0.4-0.8,0.8-1.4,1-2.2c0.2-0.8,0.2-1.4,0.5-2.2c0.6-1.6,1.5-3.5,2.7-4.7c0.5-0.6,1.2-0.9,1.8-1.2
	c0.6-0.3,1-0.8,1.6-1c0.9-0.4,1.6-0.9,2.4-1.4c0.4-0.3,0.6-0.5,1-0.9c0.2-0.1,0.3-0.2,0.5-0.3c0,0-0.1,0.1-0.1,0.1c0,0,0,0,0.1-0.1
	C664.7,568.6,665.9,566.3,667.8,566.1z"/>
<path id="ai" class="st0" d="M760,149.1l-2.8,12.6l-9.6,11l-13.6,7.2l-9.7-3.9c0,0-0.7-2.3-1.3-5.8c-0.5-3.5-1.1,0.1-1.8-5
	c-0.7-5-5.9-6.7-5.9-6.7c1.4-3.8,1.1-7.3,1.1-7.3l4-1.6c0.9-2.8,3.4-2.5,3.4-2.5c1.9-6.1,3.2-8.1,3.2-8.1c-0.6-2-1.6-5.7-1.6-5.7
	l5.5-0.5l2.3,2.7l5.4,0.7l9.6,7.3l9.7-0.3L760,149.1z M770.1,124.2l-0.8,1.2h-2.5v1.8l-8.5,2.6l2.6-9.1l3.9-2.2l1.3,1.2v2.5h3.6
	L770.1,124.2z M776.8,116.9l-2.7,2.7l1.5,3.2l-1.3,0.9l-1.6-2.7v-1.6l-2.3-0.3l-0.3-2.9l4.7-3.2l1.1,0.7l1,0.6V116.9z"/>
<path id="ow" class="st0" d="M518.3,324.2l-19.1,9.3c0,0-3.9-2.9-4-3.1c-0.2-0.2-4.6,2.2-4.6,2.2l-8.2-3.4l-10.3,2.6l-9.1-3.9
	l-3.4-4.9l-9.5,0.6l2.4-6.1V315l-4.2-6.3l4.6-10.6v-4.7l4.6-7.9l5.9,2.3l9.6-12.2l-0.6-5.6l6.7-3.7l8.2,0.2l3.5-1.5l2-1.7l11.6,0.8
	l4.3,2c-0.3,1-0.6,1.8-1.9,2.2c-1,0.3-2,0.2-2.7,1c-0.4,0.4-1.2,1.6-1,2.3c0.4,0.1,0.9,0.2,1.4,0.3l0.5,7l6.2,1.3v1.3l-1,15.4
	l-0.9,16.6L518.3,324.2z M551.1,306.1l-2.9,6.2l-2.9,1.4l-1,4.7l-2.5,2.4l2.3,6.9l-6,0.6l-3.2,1.3l-0.7,0.3l-3.4-1.2v-6.2l-7-3.5
	l-5.3-9.8l-2.6-8.8l2-2.8l6.4,0.3l4.9,4.5l9.8-0.7c0,0,0,0,0,0l4.8,0.7L551.1,306.1z"/>
<path id="gl" class="st0" d="M704.1,271.6c-1.2-0.7,0.2-3.4,1.8-4.6c1.7-1.2,0.4-4.8,0.1-10.5c-0.3-5.7-4.7-9-5.9-10.8
	c-1.2-1.8-3-1.2-7.9-0.6c-4.9,0.6-7.6-1.6-9.1-3.8c-1.5-2.2,4.9-4.2,8.4-6.2c3.5-1.9,0.9-13,0.9-13s0.2-2.4-1.4-4.7
	c-1.1-0.3-2.3-0.5-3.4-0.9c-1.1-0.4-2.2-0.6-3.4-0.7c-1.3-0.1-2.5-0.4-3.8-0.4c-0.6,0-1.1,0-1.7-0.1c-0.8-0.1-1.6-0.3-2.4-0.3
	c-0.6-0.1-2.6-0.4-2.7-1.1c-12.3,0.5-18.1-7.8-20.5-12.1c-0.9,1.9-5.2,6-6.3,8.2c-1,2.2-0.8,9.3-0.6,11.4c0.2,2.1-1.1,2.1-2.5,2.9
	c-1.4,0.7-1.1,1.7-1.2,3.2c-0.1,1.5,0.9,1.1,2.2,1.5c1.2,0.4-0.2,2.1-0.8,5.1c-0.6,3-3.7,5.7-5,7.8c-1.3,2.1-3.1,0.6-4.2,0.5
	c-1.1-0.1-3.6,2.6-4.4,3.5c-0.8,0.9,0.2,2.5,0.1,3.9c-0.1,1.4,1.2,0.4,2.4,0.3c1.2-0.2,1.3,0.2,2.6,1.2c1.3,1,3.2,4.5,3.6,5.5
	c0.5,1,0.6,2.1,0.7,3.5c0.1,1.4,2.5,2.8,3.2,3.3c0.7,0.5,3.7,4.1,4,5s-1.6,2.6-2.2,3.2c-0.6,0.6-0.4,1.5-0.4,2.7
	c0.1,1.2-3.8,4.3-5.3,5.9c-0.2,0.2-0.6,0.6-1.2,1l0,0l3.8,2.5l3.2,8.1c0,0-8.7,7.5-10.5,8.7c-1.8,1.2-6.6,6.1-6.6,6.1v6.7l8.1,0.3
	l3.7,6.1c0,0,12.3-3.3,14.6-4.1c2.3-0.8,5.5-6.3,7.2-8.2c1.7-1.9,2.6-6.1,2.8-8.3c0.2-2.2,1.9-5.2,1.9-5.2l6.8,0.4l4.6,6.6
	c0.6-0.6,5.7-3.1,6.9-3.6c1.2-0.5,1.9-2.1,2.5-4c0.7-2,9.9-2,9.9-2l10.3-12.2c-0.2-1.6-0.1-3,0-3.6
	C707.6,273.8,705.3,272.3,704.1,271.6z M652.8,247.7c-0.8,0.6-1.8,0.7-2.8,0.9c-0.9,0.1-1.9,0.4-2.8,0.7c-0.9,0.3-1.7,0.4-2.7,0.5
	c-0.8,0-2.6,0.5-3-0.5c-0.4-0.9,0.6-1.9,1.4-2.1c0.7-0.2,1.4-0.2,2,0c0.7,0.1,1.3,0,2,0c0.4,0,0.6-0.1,0.9-0.3
	c0.3-0.1,0.5-0.1,0.8-0.3c0.3-0.2,0.4-0.4,0.7-0.7c0.4-0.5,1.1-0.8,1.6-1.2c0.9-0.6,3.1-0.9,3.3,0.6
	C654.4,246.3,653.5,247.2,652.8,247.7z"/>
<path class="st0" d="M645,291.8c0,0-8.7,7.5-10.5,8.7c-1.8,1.2-6.6,6.1-6.6,6.1v6.7l-4.9,3.3l-5.2,5.2l-1.2,8.6l-1.2,1.8l-1.1,5.2
	l-5.2,2.3l-2.9-1.9l-5.2,0.3l0.1,2.1l-0.5,5.3l-6.2,5l-7.6,1.2l0,10.9l-4.7,5.6l0.1,5.7l4.7,5.2l1,9.8l-8.4,6.5l-4-4.5l-3.2,0.2
	c0,0-4.5-0.4-4.4-0.2c-0.1-0.2-1-2.5-1-2.5l-13.8,1.1l-0.2,5l-2,2.7l0.2,3.7l-7.8,3.4l-10-5.6c0,0-1.7-5.1-2.9-8.4
	c-1.2-3.3-1.3-5.3-0.6-8.8c0.8-3.5,2.7-11.8,2.7-11.8l-5.2-4.1l-0.4-1.2l-1.8-5.1l3.1-4.7l5.5,0.3l3.4-3.4c0,0-1.7-8.3-2.6-10.8
	c-0.9-2.5,0.4-5.7,1.6-6.5c1.1-0.8-1.3-4.6-1.3-4.6l3.2-1.3l6-0.6l-2.3-6.9l2.6-2.4l1-4.7l2.9-1.4l2.9-6.2l-7.4-3.7l-4.8-0.7
	c0.1-0.4,1.6-8.2,1.3-9.2c-0.4-1.1-1.8-2.4-0.8-4.9c0.9-2.4,3.7-4.8,3.7-4.8l9.8-3.2l4-14c0.1,0,0.3-0.1,0.4-0.2
	c0.5-0.3,0.9-0.7,1.4-1.1c0.9-0.6,1.8-1.2,2.2-2.2c0.5-1,1.2-1.7,2.4-1.8c0.7-0.1,2-0.1,2.6,0.5c0.4,0.4,0.5,1.4,0.6,2
	c0.2,0.9,0.1,1.7,0.4,2.5c0.4,1,0.4,1.7,0,2.7c-0.6,1.9,0.2,4-0.6,5.9c-0.3,0.5-0.6,0.9-0.9,1.4c-1.4,2.4,0.3,3.8,1.7,5.7
	c0.6,0.8,1,1.6,0.7,2.7c-0.2,1.1-0.6,2-0.4,3.2c0.3,1.8,2.3,4.3,4,2.4c1.5-1.6,2.1-3.9,1.7-6.1c-0.5-2.4-2-4.2-3.2-6.3
	c-1.1-2-0.1-3.3,1.1-4.6c1.6,0.5,3.9,1,6.5,0.9c4.9-0.3,11.1-0.5,10.7,1.7c-0.3,2.2-1.7,3-0.7,3.9c0.9,0.9,1.9,4.2,3.8,3.6
	c1.9-0.7,1.8-2.7,3.1-3.7c1.2-1,7.6-4.1,8.2-3.5c0.6,0.6,2.2,3.2,3.6,2.7c1.4-0.5,2.7-1.1,3.2-1.2c0.5-0.1,1.3-0.1,1.3-1
	c0-0.9-0.4-2.6,0.9-2.4c1.3,0.2,2.3-0.1,2.6,0.8c0.3,0.9,2.6,2.3,1.7,3c-1,0.8-1.5,1.5-1.2,2.3c0.3,0.8-0.7,2,1,2
	c1.7,0,2.6,0.5,2.8,2c0.2,1.4,0.7,11.7,3.3,9.9c2.3-1.5,12.5-8.8,16.3-11.8l3.8,2.5L645,291.8z"/>
<path id="so" class="st0" d="M322.5,121.7l-2.4,2.9l-8,0.7l-4.7,2.1l-2-0.5l-1.7,0.5l-2.6,0.8l-1.3-3.9l2.1,0.5l13.7-7.9l0.4-0.9
	L322.5,121.7z M440.9,143c-1.2,1.4-2,3.7-3.7,7.5c-1.6,3.8-19-0.2-19-0.2c-0.1,2.8-3.7,7.3-6,8.1c-2.3,0.8-3.6,3.7-5.1,6.2
	c-1.5,2.5-5,8.3-5,8.3s-3,0-4.8-0.1c-1.7-0.1-3,3.4-3,3.4l-4.3-0.2l-0.7-2.6l0.7-2.1l-2.7-0.5l-3,3.9l-5.1-1.5l-9.9-9.3l-10.6,4.1
	l-8.8,1l0.3,1.6l0.7,2.9c0,0,0.4,4.4,0.7,5.8c0.3,1.4,1.7,2.2,2.7,2.7c1,0.5,1,0.4,1.5,1c0.5,0.6,1.3,1.7,3.8,2.5c2.5,0.8,3,8,3,8
	l5.7,1.2l0.5,5.7l-3.9,3l-1.9,4.4l-9.8,1l-4.4-5l-8.7,0.9l-2.9,2.9l-1.3,9.6l-11.7,4.5l0.9,7.7l-0.6,0.8l-5.7,2.5l-1.2-0.4l0.7-5.4
	l-2.6-1.8l-7.2,3l-5.7-8.9l2.8-2.2l9.5,3.2l1.5-2.4l-1.5-1.4l-0.8-3.8c0,0,4-3.1,5.4-4.7c1.5-1.6,5.2-1.3,8-1.1
	c2.7,0.2,3.1-0.6,2.5-4.2c-0.6-3.5-5.5-4.3-6.6-4.3c-1.1,0-4.4,0.8-5.8,2.1c-1.4,1.2-8.2,4-8.2,4l-5.3-9.7h-4.2l-3.7-6.7
	c0,0,4.5-1.4,7.7-2.9c3.2-1.6,8.9-5.5,8.9-5.5l1.1-3.9l9.9-3.2l4.4-6.5l10.5-3.2l1.6-1.5l1.8-4.5l2.2-5.6c0,0-1.1-0.4-2.7-1.3
	c-1.6-0.9-1.2-2.7-2.1-4c-0.9-1.4-6.1-4.8-6.1-4.8l-13.1-0.2l-2.4-2.5l1-6.8l7.3,0.2l1.7,2.7l7.1-2.7l1.3-5.8l5.7-0.7l1,1.3l3.5-0.6
	l2.3-5.2l6-1.8l1.5-8.4l-2.1-1.2l1.1-6.7c0,0,2.8,1.4,4.9,1.8c2.2,0.4,3.6-4.9,3.6-4.9h1.2l1.5,4.2l6.8,1.9c0,0,0.2,1,0.7,3
	c0.5,2.1-1.9,2.4-3,3.5c-1.1,1.1-3.3,15-3.3,15l-9.4,0.7c0,0-0.4,7.6,0.4,8.2c0.8,0.6,2.7,5.9,2.7,5.9s13.6-1.9,15.9-2.3
	c2.2-0.4,2.6,3.2,4.1,4.2c1.6,1,2.9,4,2.9,4l8.5,1.7c0,0,0.2-0.7,0.1-2.4c-0.2-1.7,1.4-2.7,3.2-4.2c1.7-1.5,6.2-4.5,9.1-5.2
	c2.9-0.7,7.2-5.8,7.2-5.8l15.1-7.9l0.2-3.2l-3.3-3.9l2.2-6.8l3.3-0.2c0,0,2.1,5.8,3,7.6c0.9,1.8,0.2,2-0.7,2.6
	c-0.9,0.6-0.3,2.2-0.3,3.5c0,1.3,1.8,3,4.3,4c2.6,1,5.4,5.3,6.6,6.9C444.8,136.6,442.1,141.6,440.9,143z"/>
<path class="st0" d="M531.6,256l-1.8,1.7l-8.8-0.6l-0.5-2.1c0.5-0.2,0.9-0.3,1.5-0.4c1-0.1,2.2,0.1,3.2-0.2c0.8,0,1.5-0.4,2.3-0.2
	c0.9,0.2,1.8,0.7,2.6,1C530.6,255.4,531.1,255.7,531.6,256z"/>
<path class="st0" d="M547.6,249.2l-1.9,7.9l-1.3,1.3c-0.1-0.1-0.1-0.1-0.2-0.2c-0.7-0.7-1.3-1.8-0.7-2.7c0.6-1,1.7-1.6,0.8-2.8
	c-0.7-1-2.2-1-3-1.8c-0.9-0.9-0.9-1.8-2.3-1.9c-0.6,0-1.2,0.1-1.7-0.2c-0.5-0.2-0.8-0.6-1.2-0.9c-2.2-1.7-4.8,0-7.3,0.3
	c-0.9,0.1-2.4,0.4-3.1-0.3c-0.7-0.7-0.4-2.1,0.3-2.7c0.6-0.6,1.4-1.1,2-1.7c0.8-0.8,1.9-1.2,2.8-1.9c0.4-0.3,0.7-0.7,1.1-1.1
	l5.4-0.5l3.9,2.6L547.6,249.2z"/>
<path class="st0" d="M240.4,295.6l3.7,4.6l-10.5,7.2l-3.7-7.3l-2.8-1.4c0,0,2.1-6.6,0.1-7.1c-2-0.5-3.5-0.9-3.5-0.9l-1.3-3.2
	c0,0,3.1-1.7,2-3.4c-1.1-1.7-3.2-0.1-3.2-0.1l-2.8-4.5c0.2-0.2,0.4-0.4,0.5-0.5c0,0,0,0,0,0c1.1-1.1,2.2-2.2,3.4-3.4
	c1.2-1.2,2.8-2,4.1-3c2.4-1.8,5.3-3.2,7.1-5.7c0.8-1.1,1.2-2.6,1.2-4c0-1.2-0.3-2.3-0.9-3.3c0.9,0,2,0.3,2.3,1.5
	c0.2,0.8,0.7,2.9,1.3,5.4c1,3.9,2.1,8.8,2.6,10.8c-0.3,0.1-0.6,0.3-0.9,0.4c-1.4,0.7-2.7,1.8-3.8,2.9c-1.2,1.2-2,2.9-1.1,4.5
	c0.8,1.3,2.6,2,3.9,2.5c1.5,0.4,3-0.4,4.4-0.9c0.6-0.2,0.9-1.4,1.3-2.2l2.9,5.1L240.4,295.6z"/>
<g id="fr">
	<path class="st0" d="M211.5,318.5c-1.8-0.5-2.7,1.4-3.9,0.9c-3-1.4-1.9-7.6-0.3-10.3c5.5-7.2-4.3-2-5.4-4.8
		c-1.7-4.2,10.6-2.5,9.1-5.7c-0.8-0.9-4.6-4.2-6.9-6.3c-0.6,0.6-1.2,1.2-1.8,1.8c0,0,0,0,0,0c0,0,0,0,0,0c-4.2,4.6-8.7,8.6-13.9,12
		c-2.4,1.9-5.9,2.8-7.5,5.5c-1.1,3.1-2.3,6.4-5.8,7.6c2.8,3.4,7,10.5,8,9.7c1.1-0.8,2-2.4,3.1-1.8c5.2,4.1,6.4,1,9.8-1.7l4,3.9
		l6.6-0.4c0,0,2-4.2,3.6-5.4C211.6,322.4,213.2,319,211.5,318.5z"/>
	<path class="st0" d="M177.9,340.4l0.3,4.6c0,0-2.6,0.9-2.7,1c-0.1,0.1-2.5-4.4-2.5-4.4l-0.6-2.6l5.7-3l2.4,2.3L177.9,340.4z"/>
	<path class="st0" d="M200.5,337.9c-1.2,0.2-1.9,0.4-1.7,1.5c0.2,1.1,0,3.3,0,3.3s-1.5,1.3-1.5,1.1c0-0.1-8.2-2.7-8.2-2.7l-6.8,2.2
		l0.3-3.2l5.9-1.4l5.1-7.7l2.8-0.6l2.4,4l2.9,2.2C201.6,336.5,201.8,337.6,200.5,337.9z"/>
	<path class="st0" d="M303.4,352.7c-1.5-0.7-2-2.2-1.8-3c0.2-0.8-10.2-3.6-10.2-3.6c-0.8-1.7-2.2-4.7,0-7.3c1.9-3.3-5.4-9.2-0.7-11
		c2.4-2.9,2.4-6.3,3.3-11c0.1-2.7,2.5-2.8,3-5.7c0.5-2.9-5.1-5.3-5.1-5.3l1.7-4.4l4.1,2.1c0.4,10.1,6.2-1.6,5.1-6.8
		c0.2-3-0.7-2.8-3.8-5c-6.6-2.8-12.5,6.8-19.5-2.2l-6.5-0.5l-5.9,1.3l-1.9-2.4l7.4-7.1l-2.3,0.6l-0.6-3.9l-3.5-3.7l3.1-2.3l0.6-4.1
		l5.4-7.3l-5.9-6.2c-3.3,2.5-10.5,7.3-14.3,8.8c-2,0-6.4,1.2-8.3,1.8c0,0-9.7,1.8-9.7,1.8c1,3.9,2.1,8.8,2.6,10.8
		c5.5-0.3,8.6-6,13.4-5.3c3.8,1-1,5.3-2.1,6.8c-1.7,2.8-5.4,3.4-7.5,5.7l2.9,5.1l-6.2,6l3.7,4.6l-10.5,7.2l-3.7-7.3l-2.8-1.4
		c0.9-4.4,2.9-7.1-3.4-8l-1.3-3.2c3.2-1.2,2.7-5.9-1.3-3.5l-2.8-4.5c-1.4,1.4-2.6,2.7-4.2,3.9c-2.3,1.2-2,4.4-4.2,5.4l4.4,7.9
		c1.4-1.1,4.7-3.5,6.6-3.7l2.4,6.1l-2.2,3l4.2,8.8l-1.7,2.7h-4.9l-2.2,5.5l0.9,2.6l2-1.5l1,1.5l-5.8,5.2l-6.3,10.1l5.8,1.1
		l-12.8,17.9l-3.2,0.4l-1.3,1.4c0,0,1.7,8.2,0.4,8.8c-1.2,0.6-3,1.4-5.5-2.6l-8.1,4l-2.7,4.2l1.2,21l6.4-2.7l2.8,1.3l2,0.1l2.6,2.6
		l9.7,0.8c0,0-7.9,6-7.7,7.8c0.4,8.1-5.7,0-6.4-1.4l-2.4,2.5l-2.3-0.4c-2.3,7.8,2.6,3.5,3.3,7.3c-0.2,1.6,1.2,8.2,4,7.6
		c2.8-0.5,2.3-4.7,7-4.3c4.7,0.3,17.8,0.9,19,5.2c1.2,4.3,2.4,6.3,2.1,8.9c-0.3,2.6-1.5,8.9,0.4,7.9c9.9-1.7,4.8-6.7,10.8-10.3
		c8.1-8.7,14.2-2.8,18.5-8.2c1.8-2.9,3.4-7.2,6.4-9.1c3.1-1.9,8.9-7,9.4-5.8c2.6,10.3,4.3,0.9,6.1-1.2c4.8-2.3,10.1-8,11.2-10.1
		c5.2-4.9,6.9,4.1,9.8-7.9c0.7-1.2-0.9-2.1-1.9-3.2c-1.9-2.6-1.8-5.9,2.2-6.6c1.7-0.7-0.1-3.6,0-5.1c0.8-2.8,5.6-1.5,7.1,0.4
		c1.1,0.8,1.7-1,2.8-1.5c1.1-0.5,0.8-8,1.3-11C306.6,353.6,304.8,353.4,303.4,352.7z M247.3,295.5l-0.6-3.4l2.3-1.3l1.2,0.7l0.5,2.7
		C250.7,294.1,247.4,295.5,247.3,295.5z M256.9,290.1l-2.6,0.5l-1.9-0.7l-0.4-3.3l3.3-3l1.6,0.4L256.9,290.1L256.9,290.1z"/>
</g>
<path class="st0" d="M250.7,294.1c0,0-3.3,1.4-3.4,1.4l-0.6-3.4l2.3-1.3l1.2,0.7L250.7,294.1z"/>
<path class="st0" d="M256.9,284v6.1l-2.6,0.5l-1.9-0.7l-0.4-3.3l3.3-3L256.9,284z"/>
<path id="bs" class="st2" d="M351.7,71.5l5.1,0.9l11.7-3.9l0.6,4.8l-6.6,4.8l-5.4,3.5l0.2,6.3l-2.6,0.8l-2.1,0.4l-13.4-10.8l6.5-4.1
	L351.7,71.5z"/>
</svg>
