<svg width="663" height="311" viewBox="0 0 663 311" fill="none" xmlns="http://www.w3.org/2000/svg">
<path d="M32.5121 310.309C32.5121 310.309 -12.3279 262.698 4.94673 259.346C22.2213 255.993 40.3645 299.194 42.0119 294.723C43.6594 290.253 29.9383 241.947 37.6583 240.834C45.3753 239.72 58.2673 295.698 58.2673 295.698C58.2673 295.698 60.1019 266.513 74.1774 260.397C88.253 254.281 70.7897 309.302 70.7897 309.302L32.5121 310.309Z" fill="#81C74B"/>
<path d="M439.849 253.042C480.107 224.694 490.871 210.99 501.711 166.253C512.551 121.515 562.519 67.4859 541.03 76.629C519.541 85.7736 482.407 125.242 483.908 163.547C485.41 201.852 479.838 212.877 473.517 221.668C467.2 230.461 440.103 249.96 440.103 249.96L439.849 253.042Z" fill="#81C74B"/>
<path d="M464.888 233.887C465.028 233.764 465.168 233.643 465.305 233.52C467.722 230.323 480.045 213.79 482.926 205.323C486.127 195.923 483.562 171.584 493.489 153.927C503.415 136.269 508.042 119.573 512.767 106.902C519.009 90.1704 537.053 77.4981 546.291 76.6928C546.254 76.5212 546.195 76.3723 546.119 76.2416L543.843 75.7023C543.09 75.8451 542.161 76.1474 541.029 76.629C519.541 85.7736 482.406 125.243 483.907 163.546C485.409 201.849 479.837 212.877 473.516 221.669C471.812 224.041 468.595 227.192 464.804 230.53L464.888 233.887Z" fill="#81C74B"/>
<path d="M493.786 195.111C505.403 149.319 628.84 100.433 617.633 114.695C606.428 128.956 576.621 163.333 542.922 176.325C509.223 189.316 496.381 208.19 488.209 231.244C480.037 254.302 482.17 240.899 493.786 195.111Z" fill="#81C74B"/>
<path d="M473.849 249.82C472.947 249.82 472.279 249.633 472.227 249.617C471.885 249.519 471.689 249.162 471.789 248.822C471.887 248.482 472.243 248.286 472.585 248.384C472.602 248.389 474.492 248.91 475.918 247.992C476.777 247.438 477.323 246.447 477.535 245.05C478.901 236.054 481.971 229.202 484.675 223.157C486.336 219.45 487.771 216.244 488.56 213.116C489.698 208.612 493.002 200.685 498.862 191.938C506.02 181.255 515.356 171.878 525.857 164.822C538.2 156.528 546.953 151.826 559.066 145.321C571.033 138.895 585.928 130.895 610.806 116.029C611.11 115.845 611.506 115.944 611.687 116.251C611.869 116.554 611.772 116.948 611.464 117.132C586.563 132.015 571.652 140.021 559.674 146.455C547.594 152.943 538.864 157.63 526.572 165.89C502.111 182.321 491.74 205.779 489.806 213.43C488.988 216.671 487.462 220.076 485.848 223.682C483.174 229.655 480.144 236.422 478.803 245.244C478.533 247.028 477.79 248.318 476.599 249.079C475.687 249.662 474.672 249.82 473.849 249.82Z" fill="#81C74B"/>
<path d="M561.087 146.686C559.851 146.686 559.131 146.636 559.06 146.632C558.708 146.604 558.442 146.299 558.465 145.945C558.492 145.589 558.801 145.33 559.154 145.349C559.326 145.362 576.757 146.498 593.005 136.396C593.306 136.208 593.703 136.301 593.89 136.603C594.079 136.902 593.986 137.299 593.685 137.487C585 142.887 576.057 145.084 570.082 145.98C566.153 146.568 562.996 146.686 561.087 146.686Z" fill="#81C74B"/>
<path d="M556.813 160.252C545.707 160.252 539.033 158.119 538.942 158.087C538.604 157.976 538.42 157.613 538.531 157.277C538.642 156.939 539.006 156.756 539.342 156.867C539.467 156.907 551.989 160.899 571.377 157.777C571.725 157.719 572.057 157.959 572.112 158.31C572.169 158.658 571.932 158.991 571.579 159.047C566.077 159.931 561.112 160.252 556.813 160.252Z" fill="#81C74B"/>
<path d="M142.367 309.303C142.367 309.303 101.279 267.328 106.826 259.387C116.378 245.716 157.047 293.045 157.047 293.045C157.047 293.045 100.085 165.639 110.549 138.086C121.012 110.532 163.661 199.138 163.661 199.138C163.661 199.138 204.593 1.76161 222.745 4.26084C240.896 6.76007 231.582 107.136 231.582 107.136L355.189 62.4298C355.189 62.4298 408.975 10.6737 421.84 18.5649C434.703 26.4576 399.055 75.0839 404.445 73.0374C409.833 70.994 465.304 10.7239 481.732 23.729C498.161 36.7356 415.992 91.3068 415.992 91.3068L471.029 276.368C471.029 276.368 515.317 180.443 564.804 190.436C590.165 195.557 512.7 265.839 512.7 265.839C512.7 265.839 561.223 230.481 580.314 240.833C599.405 251.186 527.303 277.67 536.755 281.558C546.209 285.447 516.389 304.716 516.389 304.716C516.389 304.716 539.931 290.338 550.343 296.29C560.76 302.243 557.312 310.309 557.312 310.309L142.367 309.303Z" fill="#007E00"/>
<path d="M607.705 309.303C607.705 309.303 610.501 254.025 621.648 256.292C632.798 258.562 619.077 297.722 621.648 295.699C624.222 293.677 647.032 229.924 660.068 240.815C673.102 251.71 633.886 290.039 633.886 290.039C633.886 290.039 653.891 276.289 660.068 281.556C666.243 286.825 639.657 309.302 639.657 309.302H607.705V309.303Z" fill="#81C74B"/>
<path d="M148.372 262.739C148.332 261.646 121.269 208.995 96.3837 214.582C71.4971 220.167 68.0409 227.73 50.8561 231.182C38.5953 233.644 28.3654 233.292 28.3654 233.292C28.3654 233.292 40.3417 246.616 63.8394 245.164C80.4538 244.138 97.129 229.434 109.206 227.148C121.284 224.86 136.201 246.979 136.201 246.979L142.867 258.889L148.372 262.739Z" fill="#81C74B"/>
<path d="M140.577 247.465C140.381 247.465 140.186 247.376 140.061 247.205C126.073 228.425 114.542 218.769 103.775 216.817C94.3134 215.103 86.6694 219.598 78.5767 224.355C76.5322 225.56 74.4178 226.801 72.2729 227.938C53.4939 237.883 42.3238 236.677 41.8568 236.621C41.5039 236.578 41.2529 236.257 41.2955 235.905C41.3381 235.552 41.6575 235.302 42.012 235.344C42.12 235.358 53.2931 236.535 71.669 226.801C73.788 225.682 75.8903 224.445 77.9226 223.249C86.2267 218.366 94.0715 213.754 104.005 215.553C115.113 217.566 126.899 227.38 141.093 246.44C141.306 246.724 141.247 247.125 140.962 247.338C140.845 247.426 140.71 247.465 140.577 247.465Z" fill="#81C74B"/>
<path d="M148.632 263.436C129.424 202.338 103.048 174.827 64.2393 159.623C25.4339 144.423 21.6202 138.086 21.6202 138.086C21.6202 138.086 44.8305 187.026 68.1837 198.333C91.5354 209.64 121.01 213.538 127.931 221.308C134.854 229.077 144.801 260.054 144.801 260.054L149.109 264.733L148.632 263.436Z" fill="#81C74B"/>
<path d="M147.641 260.391C147.357 260.391 147.097 260.2 147.021 259.914C146.993 259.815 144.292 249.82 138.271 237.066C132.722 225.316 123.137 208.748 108.987 196.555C94.9795 184.488 82.5058 179.061 70.4443 173.813C59.0217 168.844 48.232 164.151 37.6628 154.231C37.4042 153.988 37.392 153.581 37.6339 153.323C37.8773 153.064 38.2849 153.051 38.5435 153.294C48.95 163.06 59.6393 167.712 70.9585 172.633C83.1067 177.918 95.6717 183.382 109.828 195.58C124.156 207.926 133.844 224.668 139.448 236.542C145.513 249.396 148.238 259.481 148.265 259.581C148.356 259.923 148.153 260.276 147.81 260.367C147.753 260.384 147.696 260.391 147.641 260.391Z" fill="#81C74B"/>
<path d="M84.6857 180.196C84.6218 180.196 84.5579 180.187 84.494 180.165C84.348 180.121 69.8282 175.668 52.9735 178.441C52.6221 178.499 52.292 178.26 52.2357 177.909C52.1764 177.561 52.4152 177.23 52.7651 177.172C69.9362 174.35 84.7328 178.894 84.8788 178.939C85.2181 179.046 85.4067 179.406 85.3002 179.745C85.2135 180.02 84.9595 180.196 84.6857 180.196Z" fill="#81C74B"/>
<path d="M112.669 199.562C112.526 199.562 112.383 199.516 112.263 199.419C98.9179 188.581 87.8528 188.638 64.0965 189.804C63.739 189.831 63.4393 189.55 63.4226 189.196C63.4059 188.842 63.6797 188.54 64.0341 188.523C88.1297 187.341 99.3621 187.286 113.076 198.424C113.352 198.647 113.394 199.052 113.171 199.328C113.042 199.482 112.857 199.562 112.669 199.562Z" fill="#81C74B"/>
<path d="M301.178 18.2702C306.733 21.8025 317.276 33.9507 324 41.0169C330.724 48.0816 334.368 52.0075 334.368 52.0075L251.4 50.0096C251.4 50.0096 255.903 46.7629 259.976 40.8012C264.05 34.8395 265.412 29.443 276.699 21.7448C288.062 13.9949 295.755 14.8214 301.178 18.2702Z" fill="#81C74B"/>
<path d="M286.346 21.1052C290.42 21.1052 292.992 36.7356 294.924 40.1616C296.853 43.586 307.007 44.2302 307.007 44.2302V37.7717C307.007 37.7717 308.858 42.6243 310.145 45.6903C313.79 43.3733 318.612 40.59 323.331 40.2649C323.762 40.5034 331.91 48.9051 331.91 48.9051L264.052 50.0126C264.052 50.0126 259.978 47.8704 260.622 47.8704C261.267 47.8704 266.29 39.3062 270.423 35.5581C274.556 31.8116 286.346 21.1052 286.346 21.1052Z" fill="#81C74B"/>
<path d="M308.858 46.9057C308.858 46.9057 322.149 41.2312 328.795 42.1944C335.44 43.1576 337.156 46.9057 337.156 46.9057H308.858Z" fill="#FFC400"/>
<path d="M381.34 292.041V245.063H272.385V292.041H236.956C230.38 292.041 225.05 297.366 225.05 303.936V306.825C225.05 308.96 226.783 310.692 228.92 310.692H424.803C426.94 310.692 428.674 308.96 428.674 306.825V303.936C428.674 297.366 423.341 292.041 416.765 292.041H381.34Z" fill="#FFC400"/>
<path d="M272.383 274.486L381.339 266.096V246.307L272.383 247.462V274.486Z" fill="#FF9E00"/>
<path d="M381.34 281.558L272.385 289.262H381.34V281.558Z" fill="#FFC400"/>
<path d="M491.289 253.018H162.432C159.211 253.018 156.599 250.408 156.599 247.192V51.5167C156.599 48.2989 159.211 45.6902 162.432 45.6902H491.289C494.511 45.6902 497.121 48.2989 497.121 51.5167V247.192C497.121 250.408 494.511 253.018 491.289 253.018Z" fill="#FFC400"/>
<path d="M483.858 232.926H169.864C166.936 232.926 164.563 230.554 164.563 227.631V58.5495C164.563 55.6249 166.936 53.2533 169.864 53.2533H483.86C486.788 53.2533 489.161 55.6249 489.161 58.5495V227.631C489.159 230.554 486.786 232.926 483.858 232.926Z" fill="white"/>
<path d="M338.766 246.307H314.956C313.645 246.307 312.574 245.238 312.574 243.93V243.213C312.574 241.905 313.645 240.835 314.956 240.835H338.766C340.076 240.835 341.148 241.905 341.148 243.213V243.93C341.15 245.238 340.077 246.307 338.766 246.307Z" fill="#231F20"/>
<path d="M404.446 152.912H244.504V232.037H404.446V152.912Z" fill="url(#paint0_linear)"/>
<path d="M404.789 178.656L244.344 179.399L244.159 142.101L404.605 141.362L404.789 178.656Z" fill="url(#paint1_linear)"/>
<path d="M355.19 162.286H292.811L304.02 156.265H343.979L355.19 162.286Z" fill="#FFC400"/>
<path d="M345.957 159.918H302.676C302.323 159.918 302.034 159.632 302.034 159.277C302.034 158.921 302.322 158.634 302.676 158.634H345.957C346.312 158.634 346.601 158.92 346.601 159.277C346.601 159.631 346.312 159.918 345.957 159.918Z" fill="white"/>
<path d="M362.805 216.356H284.562C281.691 216.356 279.343 214.01 279.343 211.145V197.686C279.343 194.817 281.691 192.472 284.562 192.472H362.805C365.676 192.472 368.025 194.817 368.025 197.686V211.145C368.025 214.01 365.676 216.356 362.805 216.356Z" fill="#81C74B"/>
<path d="M296.57 102.11C298.837 98.6389 319.989 92.4524 321.499 92.6043C323.01 92.7547 333.971 117.349 336.271 127.009C338.572 136.664 338.873 138.174 338.873 138.174C338.873 138.174 314.397 146.17 309.867 146.926L305.335 147.678C305.335 147.678 303.07 125.951 300.804 117.955C298.537 109.959 296.57 102.11 296.57 102.11Z" fill="#FFC400"/>
<path d="M311.268 128.809L327.141 129.64L326.714 137.779L310.842 136.949L311.268 128.809Z" fill="url(#paint2_linear)"/>
<path d="M310.679 125.597L326.102 126.404L325.678 134.543L310.251 133.736L310.679 125.597Z" fill="url(#paint3_linear)"/>
<path d="M309.11 127.542C308.874 127.542 308.66 127.385 308.594 127.148C308.513 126.863 308.682 126.568 308.967 126.489L321.66 122.995C321.946 122.914 322.238 123.083 322.318 123.367C322.396 123.652 322.229 123.947 321.944 124.026L309.253 127.522C309.206 127.534 309.155 127.542 309.11 127.542Z" fill="#929497"/>
<path d="M309.11 125.795C308.876 125.795 308.66 125.638 308.594 125.403C308.514 125.117 308.682 124.822 308.965 124.742L321.658 121.209C321.943 121.129 322.238 121.298 322.318 121.582C322.397 121.867 322.229 122.162 321.946 122.241L309.254 125.775C309.206 125.789 309.155 125.795 309.11 125.795Z" fill="#929497"/>
<path d="M308.602 120.997C308.37 120.997 308.156 120.846 308.089 120.612C308.002 120.328 308.165 120.03 308.448 119.947L320.686 116.325C320.97 116.241 321.269 116.404 321.352 116.687C321.436 116.971 321.273 117.267 320.99 117.352L308.752 120.974C308.705 120.989 308.652 120.997 308.602 120.997Z" fill="#929497"/>
<path d="M307.457 123.769C307.32 123.769 307.183 123.716 307.08 123.611C306.868 123.402 306.868 123.065 307.078 122.855C307.199 122.735 307.48 122.454 318.795 119.248C319.079 119.166 319.374 119.333 319.456 119.617C319.538 119.901 319.373 120.198 319.087 120.278C315.033 121.427 308.422 123.35 307.769 123.671C307.676 123.736 307.565 123.769 307.457 123.769Z" fill="#929497"/>
<path d="M308.939 5.39116L297.638 16.0368C294.701 18.3157 294.369 20.0553 294.924 23.7289C295.607 28.2746 296.768 31.7386 298.639 31.7386C301.855 31.7386 301.567 22.8174 301.567 22.8174L312.535 11.798L308.939 5.39116Z" fill="#FF9E00"/>
<path d="M308.939 5.39116L305.6 7.98458C304.152 12.2948 303.591 17.2963 303.715 20.6615L312.537 11.7995L308.939 5.39116Z" fill="#FF9E00"/>
<path d="M320.737 15.9989C318.378 20.6053 314.292 24.4354 311.125 23.6196C307.845 22.7749 304.534 17.1793 307.022 12.0685C309.432 7.11406 312.847 3.36294 316.633 4.44771C320.421 5.534 323.247 11.0946 320.737 15.9989Z" fill="#FF9E00"/>
<path d="M301.783 83.2713C305.641 89.1251 309.216 93.2637 310.36 97.6878C311.504 102.112 308.501 108.966 306.715 106.681C304.929 104.396 302.5 103.789 301.928 97.4037C301.213 89.4093 298.355 88.3123 298.355 88.3123L301.783 83.2713Z" fill="#FF9E00"/>
<path d="M287.419 19.6831C291.706 21.7463 291.922 56.8616 298.566 72.0651C305.212 87.2671 305.355 87.3689 305.355 87.3689C305.355 87.3689 299.616 90.7295 298.376 91.3084C297.138 91.8842 282.645 73.1377 279.915 62.6425C274.983 43.6924 270.159 40.6949 264.694 39.838C265.658 37.0547 270.909 30.5248 277.128 25.1708C283.347 19.8214 287.419 19.6831 287.419 19.6831Z" fill="#81C74B"/>
<path d="M320.811 45.6903C320.811 45.6903 324.742 42.7307 328.176 43.1591C331.613 43.5861 338.365 46.693 336.972 47.761C335.578 48.8337 331.719 48.94 329.361 47.761C327.002 46.5851 321.346 45.1555 320.811 45.6903Z" fill="#FF9E00"/>
<path d="M300.431 13.4054C305.355 13.0378 307.744 9.4401 308.191 8.89923C308.636 8.35836 308.912 13.1912 309.859 13.5391C310.806 13.8855 311.875 11.242 313.048 9.00102C314.221 6.75703 315.792 6.96214 315.934 9.00102C316.078 11.0414 317.474 17.1824 320.81 18.5649C323.508 19.6831 325.795 20.1085 325.795 20.1085C325.795 20.1085 324.991 15.8013 325.295 12.1125C325.795 6.04905 320.517 0.907781 316.363 0.192197C313.046 -0.377536 307.302 0.0919239 304.926 4.76069C302.64 9.25626 300.431 13.4054 300.431 13.4054Z" fill="#231F20"/>
<path d="M310.037 10.6707C309.561 12.1156 308.35 13.015 307.328 12.6792C306.309 12.345 305.866 10.9032 306.344 9.45682C306.82 8.0135 308.031 7.11408 309.052 7.44832C310.072 7.78257 310.514 9.22589 310.037 10.6707Z" fill="#FF9E00"/>
<path d="M533.337 119.569C530.512 117.39 516.689 122.96 516.405 128.048C516.12 133.136 520.201 144.002 529.046 144.771C537.888 145.541 538.951 144.537 539.706 137.563C540.46 130.593 537.252 122.584 533.337 119.569Z" fill="#231F20"/>
<path d="M571.37 291.765C571.37 291.765 577.66 294.358 576.654 295.699C575.649 297.043 578.667 304.704 578.667 304.704H577.409L575.019 299.776C575.019 299.776 576.024 305.742 573.886 306.667C571.748 307.592 564.328 309.697 564.832 307.969C565.099 307.052 566.876 304.798 566.876 304.798L571.37 291.765Z" fill="#231F20"/>
<path d="M567.381 292.886C568.478 295.909 567.472 304.326 565.962 305.959C564.451 307.592 570.616 306.084 571.747 304.577C572.88 303.071 572.592 293.228 572.592 293.228L567.381 292.886Z" fill="#FF9E00"/>
<path d="M498.92 293.045C498.92 293.045 503.223 298.308 501.699 299.013C500.176 299.716 499.192 307.893 499.192 307.893L498.085 307.296L498.322 301.827C498.322 301.827 496.375 307.553 494.052 307.354C491.729 307.156 483.481 306.669 485.462 304.211C486.063 303.465 488.576 302.536 488.576 302.536L498.92 293.045Z" fill="#231F20"/>
<path d="M494.877 292.14C494.404 295.324 489.521 302.254 487.415 302.975C485.308 303.698 491.451 305.292 493.164 304.502C494.877 303.712 499.3 294.914 499.3 294.914L494.877 292.14Z" fill="#FF9E00"/>
<path d="M528.102 195.844C528.102 195.844 536.969 240.451 541.499 250.435C544.922 257.982 566.78 295.283 569.609 294.716C572.439 294.15 572.592 293.229 572.592 293.229C572.592 293.229 564.259 263.526 559.799 257.406C552.817 247.827 554.516 245.315 554.328 227.415C554.139 209.515 554.335 209.169 549.615 198.427L544.893 187.687L528.102 195.844Z" fill="#FF9E00"/>
<path d="M528.102 192.16C528.102 192.16 507.39 240.638 505.952 245.726C504.519 250.814 494.519 293.964 494.519 293.964C494.519 293.964 496.83 295.962 498.603 295.672C500.376 295.382 516.036 265.7 516.45 256.089C516.862 246.479 535.837 226.504 538.101 218.026C540.366 209.545 528.102 192.16 528.102 192.16Z" fill="#FF9E00"/>
<path d="M568.951 214.635C568.951 214.635 571.874 238.942 571.686 246.007C571.497 253.073 571.695 253.922 571.695 253.922L597.911 249.87C597.911 249.87 594.42 236.821 593.1 233.453C591.779 230.085 568.951 214.635 568.951 214.635Z" fill="#FFC400"/>
<path d="M569.705 215.528C569.705 215.528 571.143 226.409 572.593 237.906C574.042 249.399 574.138 252.225 574.138 252.225L597.911 249.001L569.705 215.528Z" fill="white"/>
<path d="M581.968 213.833C580.74 214.162 568.006 213.833 568.006 213.833C568.006 213.833 573.382 231.403 576.59 250.434C590.269 249.001 601.306 248.551 601.306 248.551C601.306 248.551 595.387 229.332 592.356 222.736C589.327 216.141 588.005 213.834 588.005 213.834H581.968V213.833Z" fill="#FFC400"/>
<path d="M580.836 204.53C580.836 204.53 583.856 209.734 584.42 213.22C584.986 216.707 584.231 223.584 582.626 223.584C581.023 223.584 580.929 222.996 579.891 219.238C578.852 215.48 578.288 214.058 578.288 214.058H576.023V204.08L580.836 204.53Z" fill="#FF9E00"/>
<path d="M545.932 189.477C546.434 190.124 554.392 203.327 555.65 215.01C556.908 226.693 556.655 246.417 556.655 246.417L550.348 247.672L546.591 222.044L544.957 247.672C544.957 247.672 537.913 250.185 528.102 248.301C518.292 246.417 507.475 239.758 507.475 239.758L526.592 193.78L545.932 189.477Z" fill="#FFC400"/>
<path d="M538.857 147.928C538.857 147.928 548.479 151.066 549.42 155.431C550.258 159.302 547.003 183.816 546.253 189.333C546.159 190.027 545.718 190.624 545.082 190.917C542.016 192.332 532.818 196.341 528.102 195.843C523.008 195.305 516.515 167.765 517.159 164.886C518.102 160.665 524.894 150.343 530.179 148.098C535.462 145.854 538.857 147.928 538.857 147.928Z" fill="white"/>
<path d="M532.255 133.725C532.255 133.725 535.556 146.302 537.444 147.056C539.329 147.809 532.255 158.683 528.102 158.386C523.951 158.09 530.177 148.099 530.177 148.099L526.029 135.354L532.255 133.725Z" fill="#FF9E00"/>
<path d="M533.65 138.57C532.634 142.562 531.262 144.423 529.545 146.155L526.031 135.352L532.254 133.725C532.255 133.725 532.736 136.203 533.65 138.57Z" fill="#FF9E00"/>
<path d="M518.387 130.878C516.908 135.839 517.217 141.424 520.074 143.019C523.029 144.669 529.292 142.905 531.025 137.49C532.704 132.246 532.829 127.177 529.338 125.351C525.851 123.525 519.961 125.6 518.387 130.878Z" fill="#FF9E00"/>
<path d="M468.516 128.847L473.673 114.116C473.673 114.116 452.501 97.1911 440.951 95.3466C434.378 94.2968 428.768 95.9802 428.768 95.9802L418.049 116.246C418.049 116.246 437.499 118.478 445.056 124.646C452.614 130.817 460.571 138.14 460.571 138.14C460.571 138.14 465.098 136.197 468.516 128.847Z" fill="#FFC400"/>
<path d="M474.239 132.571C474.239 132.571 469.966 128.245 468.954 126.446C467.946 124.648 465.655 121.831 466.502 124.468C467.354 127.106 467.541 127.578 467.354 129.651C467.164 131.723 465.656 132.571 465.656 132.571L472.636 136.246L474.239 132.571Z" fill="#FF9E00"/>
<path d="M529.045 148.099C529.045 148.099 498.67 146.577 495.839 145.275C493.01 143.973 473.2 130.974 473.2 130.974C473.2 130.974 469.993 135.216 469.804 135.354C469.616 135.494 490.371 151.887 494.521 153.959C498.67 156.031 518.102 160.662 518.102 160.662C518.102 160.662 514.521 179.664 513.009 184.146C511.5 188.631 510.37 190.106 510.37 190.106C510.37 190.106 516.029 191.317 518.481 189.125C520.933 186.932 521.499 170.278 521.499 163.38C521.499 156.483 529.045 148.099 529.045 148.099Z" fill="#FFC400"/>
<path d="M545.367 149.813C545.367 149.813 552.063 151.993 558.764 158.392C565.46 164.793 575.177 173.519 577.064 178.567C578.95 183.616 581.968 205.56 581.968 205.56C581.968 205.56 576.686 207.348 575.932 206.557C575.177 205.765 569.989 186.554 567.346 183.259C564.705 179.965 550.348 166.581 550.348 166.581L555.458 186.081C555.458 186.081 548.348 190.729 543.509 188.36C538.669 185.989 536.562 179.743 533.369 172.125C530.178 164.508 538.857 147.926 538.857 147.926L545.367 149.813Z" fill="#FFC400"/>
<path d="M536.405 144.599C536.718 144.976 538.857 147.928 538.857 147.928C538.857 147.928 534.584 156.796 532.664 158.391C530.743 159.988 528.293 159.36 528.293 159.36C528.293 159.36 522.994 157.169 524.068 155.179C526.192 151.249 529.046 148.099 529.046 148.099L529.704 146.641L530.179 148.099C530.179 148.099 529.298 149.372 528.607 151.194C527.917 153.016 528.042 157.602 527.728 158.168C527.412 158.731 528.607 158.292 529.36 156.032C530.117 153.771 530.305 150.441 530.305 150.441C530.305 150.441 533.638 148.558 534.771 147.174C535.902 145.793 536.405 144.599 536.405 144.599Z" fill="white"/>
<path d="M437.078 98.8865H428.336V111.071H437.078V98.8865Z" fill="url(#paint4_linear)"/>
<path d="M442.85 113.496C442.75 113.496 442.647 113.467 442.557 113.409C442.31 113.247 442.239 112.916 442.402 112.668L448.923 102.712C449.084 102.463 449.416 102.396 449.665 102.557C449.912 102.72 449.982 103.051 449.821 103.299L443.299 113.254C443.196 113.412 443.024 113.496 442.85 113.496Z" fill="#929497"/>
<path d="M451.961 117.309C451.911 117.309 451.859 117.3 451.807 117.287C451.523 117.2 451.362 116.902 451.448 116.621C451.473 116.541 451.52 116.377 456.54 107.97C456.692 107.717 457.019 107.632 457.273 107.785C457.527 107.935 457.612 108.264 457.458 108.517C455.549 111.717 452.658 116.583 452.454 116.981C452.372 117.182 452.174 117.309 451.961 117.309Z" fill="#929497"/>
<path d="M439.788 99.2876H431.4V111.614H439.788V99.2876Z" fill="url(#paint5_linear)"/>
<path d="M440.421 112.451C440.325 112.451 440.226 112.423 440.139 112.37C439.887 112.212 439.809 111.884 439.966 111.633C440.202 111.252 445.757 102.303 446.273 101.602C446.446 101.363 446.784 101.311 447.021 101.488C447.259 101.661 447.31 101.997 447.137 102.235C446.743 102.77 442.87 108.984 440.877 112.197C440.777 112.36 440.602 112.451 440.421 112.451Z" fill="#929497"/>
<path d="M450.091 115.865C449.995 115.865 449.899 115.839 449.813 115.787C449.56 115.632 449.478 115.304 449.632 115.052L454.507 107.021C454.659 106.767 454.988 106.685 455.242 106.84C455.494 106.993 455.576 107.322 455.421 107.575L450.547 115.606C450.447 115.772 450.271 115.865 450.091 115.865Z" fill="#929497"/>
<path d="M517.537 128.425C520.084 133.607 531.471 133.26 531.389 133.952C531.31 134.643 533.479 144.661 536.026 144.599C538.575 144.537 533.651 123.715 533.651 123.715L523.102 124.186L517.537 128.425Z" fill="#231F20"/>
<path d="M538.359 127.331C542.629 125.599 543.385 126.259 544.799 128.52C546.212 130.781 547.818 131.677 547.535 133.725C547.251 135.775 547.724 137.888 546.872 139.939C546.025 141.993 543.101 142.183 540.647 143.405C538.195 144.632 537.027 141.047 537.027 141.047L538.359 127.331Z" fill="#231F20"/>
<path d="M529.968 134.538C529.591 136.089 530.148 137.555 531.211 137.812C532.274 138.07 533.441 137.021 533.818 135.471C534.194 133.92 533.637 132.455 532.574 132.197C531.511 131.939 530.345 132.987 529.968 134.538Z" fill="#FF9E00"/>
<path d="M164.211 297.943C164.211 297.943 165.587 303.243 170.261 304.581C174.936 305.92 179.495 308.519 172.926 308.598C165.72 308.688 161.59 308.349 158.597 307.846C155.603 307.343 157.564 302.073 158.04 299.563C158.515 297.05 164.211 297.943 164.211 297.943Z" fill="#231F20"/>
<path d="M126.107 293.636C126.107 293.636 125.106 304.224 127.654 305.13C130.202 306.041 133.116 308.221 129.475 308.221C125.835 308.221 121.329 309.081 120.152 305.13C118.716 300.314 115.464 299.501 116.623 297.049C117.782 294.597 121.284 290.042 121.284 290.042L126.107 293.636Z" fill="#231F20"/>
<path d="M174.822 183.211L165.57 300.187C165.57 300.187 160.763 302.407 157.298 302.743C153.832 303.077 146.669 246.684 147.276 237.669C147.883 228.65 141.015 200.019 142.606 190.738C144.199 181.458 174.822 183.211 174.822 183.211Z" fill="#006C99"/>
<path d="M156.309 183.831C156.961 183.742 157.619 183.667 158.277 183.597L174.262 189.773L171.314 224.275C163.653 241.09 154.487 256.962 149.883 267.224C147.786 255.021 146.996 241.862 147.279 237.669C147.571 233.325 146.131 224.434 144.736 215.346L156.309 183.831Z" fill="#006C99"/>
<path d="M170.26 200.888C161.289 240.712 126.007 296.292 126.043 296.292C126.081 296.292 119.452 295.148 119.117 292.138C118.783 289.126 122.902 252.076 131.871 243.359C140.842 234.641 141.453 193.248 141.453 193.248L170.26 200.888Z" fill="#006C99"/>
<path d="M149.111 145.217C139.021 155.352 132.549 172.78 132.461 177.092C132.373 181.404 144.097 189.097 144.097 189.097L149.111 145.217Z" fill="#00A5D6"/>
<path d="M160.463 122.85L156.467 142.707L167.395 154.458L168.85 130.38L160.463 122.85Z" fill="#FF9E00"/>
<path d="M156.467 136.518C156.467 136.518 151.313 138.323 145.575 152.868C139.839 167.411 135.855 203.252 135.855 203.252C135.855 203.252 146.877 212.601 162.657 212.596C172.712 212.593 177.789 210.337 177.789 210.337C177.789 210.337 178.795 176.556 177.789 164.362C176.787 152.168 161.446 136.208 156.467 136.518Z" fill="#00A5D6"/>
<path d="M177.791 164.362C176.785 152.169 161.444 136.211 156.467 136.516C156.467 136.516 154.328 137.265 151.274 141.685C156.424 139.181 162.844 143.546 168.846 157.677C171.851 164.746 175.038 174.919 178.218 177.137C178.176 172.078 178.051 167.502 177.791 164.362Z" fill="#00A5D6"/>
<path d="M164.658 139.562C161.412 135.784 160.206 130.014 159.76 126.337L160.392 123.201L161.205 123.519L168.848 130.38L168.102 142.767C167.035 142.008 165.871 140.972 164.658 139.562Z" fill="#FF9E00"/>
<path d="M162.959 127.226C164.213 133.136 169.663 136.402 174.186 135.444C178.708 134.485 179.698 128.762 178.443 122.85C177.189 116.94 173.401 113.833 168.877 114.79C164.354 115.749 161.704 121.317 162.959 127.226Z" fill="#FF9E00"/>
<path d="M158.011 132.03L154.587 137.806L172.733 151.357C172.733 151.357 171.366 145.077 171.001 142.767C170.635 140.454 158.299 131.544 158.011 132.03Z" fill="#00A5D6"/>
<path d="M179.501 110.778C187.122 113.171 180.893 122.764 178.444 122.85C175.996 122.94 175.102 120.661 173.091 121.184C171.08 121.711 169.181 118.14 167.952 118.921C166.723 119.702 167.505 126.954 167.952 128.183C168.398 129.41 166.388 129.52 166.388 129.52C166.388 129.52 165.568 124.389 164.303 124.725C163.036 125.059 162.095 128.63 160.276 129.52L158.457 130.415C158.457 130.415 157.34 122.668 155.664 121.185C153.988 119.702 155.037 114.572 157.418 113.567C159.797 112.563 160.37 107.989 163.658 107.653C166.947 107.317 169.627 109.55 173.984 108.993C178.343 108.434 177.37 110.11 179.501 110.778Z" fill="#231F20"/>
<path d="M161.037 125.98C161.663 127.454 163.058 128.273 164.151 127.808C165.243 127.343 165.623 125.773 164.995 124.298C164.368 122.824 162.973 122.006 161.881 122.47C160.789 122.935 160.408 124.505 161.037 125.98Z" fill="#FF9E00"/>
<path d="M152.759 147.318C152.759 147.318 171.457 168.089 178.188 174.511C178.279 180.494 178.232 187.462 178.146 193.657C174.499 191.864 164.365 186.622 158.595 181.068C151.472 174.205 148.292 158.475 152.759 147.318Z" fill="#00A5D6"/>
<path d="M207.731 174.67C208.965 167.002 222.899 144.682 228.161 142.104C231.063 140.684 257.258 145.093 257.258 145.093C257.258 145.093 227.542 170.857 223.725 184.667C220.314 197.002 220.731 201.672 220.731 201.672L208.729 192.909C208.729 192.911 205.874 186.212 207.731 174.67Z" fill="#FFC400"/>
<path d="M204.432 174.501C204.432 174.501 208.904 168.97 210.687 169.503C212.47 170.036 213.145 170.123 214.709 170.036C216.272 169.95 216.385 172.209 214.15 176.268C211.916 180.328 205.883 181.142 204.432 181.068C202.98 180.995 204.432 174.501 204.432 174.501Z" fill="#FF9E00"/>
<path d="M154.847 142.767C147.615 144.688 149.968 162.994 154.042 170.554C156.972 175.986 166.756 181.527 172.733 183.081C178.71 184.634 204.637 181.405 204.637 181.405C204.637 181.405 205.591 172.868 203.785 172.868C201.981 172.868 180.575 172.373 174.822 167.182C169.07 161.989 163.578 140.447 154.847 142.767Z" fill="#00A5D6"/>
<path d="M244.163 146.841H230.768V151.167H244.163V146.841Z" fill="url(#paint6_linear)"/>
<path d="M238.297 158.974C238.234 158.974 238.172 158.965 238.111 158.942L228.439 155.387C228.161 155.285 228.018 154.977 228.123 154.701C228.225 154.421 228.534 154.281 228.81 154.383L238.481 157.938C238.761 158.04 238.9 158.348 238.799 158.625C238.719 158.839 238.516 158.974 238.297 158.974Z" fill="#929497"/>
<path d="M236.518 160.829C236.456 160.829 236.395 160.817 236.336 160.797C233.395 159.729 227.712 157.672 227.234 157.533C226.95 157.446 226.79 157.15 226.875 156.866C226.959 156.583 227.257 156.422 227.542 156.507C228.168 156.694 236.354 159.666 236.702 159.792C236.979 159.892 237.124 160.202 237.023 160.478C236.943 160.696 236.737 160.829 236.518 160.829Z" fill="#929497"/>
<path d="M233.161 163.515C233.091 163.515 233.021 163.502 232.951 163.473C230.038 162.239 225.222 160.241 224.699 160.138C224.408 160.08 224.22 159.798 224.279 159.508C224.337 159.219 224.618 159.031 224.909 159.09C225.697 159.248 232.096 161.949 233.371 162.488C233.643 162.604 233.771 162.918 233.656 163.19C233.569 163.394 233.37 163.515 233.161 163.515Z" fill="#929497"/>
<path d="M230.768 166.186C230.699 166.186 230.629 166.173 230.561 166.145L222.357 162.722C222.085 162.608 221.955 162.294 222.07 162.02C222.184 161.748 222.497 161.619 222.771 161.735L230.975 165.158C231.247 165.272 231.378 165.586 231.262 165.858C231.177 166.063 230.978 166.186 230.768 166.186Z" fill="#929497"/>
<path d="M242.172 148.614H228.148V153.072H242.172V148.614Z" fill="url(#paint7_linear)"/>
<path d="M324.024 139.369C324.024 139.332 324.032 139.29 324.047 139.256C324.062 139.219 324.085 139.186 324.118 139.157C324.15 139.128 324.193 139.105 324.243 139.09C324.295 139.076 324.339 139.07 324.383 139.078C324.424 139.085 324.464 139.101 324.496 139.122C324.528 139.146 324.555 139.172 324.579 139.207C324.601 139.242 324.617 139.278 324.629 139.316C324.64 139.354 324.646 139.395 324.646 139.435C324.646 139.477 324.639 139.515 324.625 139.552C324.607 139.587 324.585 139.62 324.552 139.648C324.52 139.679 324.479 139.699 324.429 139.716C324.378 139.731 324.331 139.736 324.287 139.727C324.246 139.72 324.207 139.707 324.175 139.684C324.143 139.663 324.114 139.634 324.093 139.599C324.07 139.565 324.053 139.527 324.042 139.49C324.03 139.45 324.024 139.411 324.024 139.369ZM323.893 139.763C323.94 139.818 323.994 139.859 324.056 139.891C324.118 139.921 324.187 139.939 324.261 139.945C324.334 139.951 324.412 139.941 324.487 139.918C324.566 139.894 324.634 139.862 324.692 139.818C324.751 139.772 324.798 139.72 324.835 139.661C324.868 139.6 324.891 139.534 324.9 139.462C324.909 139.391 324.902 139.316 324.879 139.24C324.855 139.163 324.821 139.098 324.774 139.041C324.73 138.985 324.675 138.944 324.611 138.911C324.55 138.88 324.482 138.864 324.409 138.857C324.333 138.853 324.258 138.864 324.182 138.883C324.103 138.909 324.036 138.943 323.977 138.985C323.919 139.031 323.872 139.082 323.835 139.142C323.8 139.204 323.778 139.268 323.768 139.341C323.761 139.414 323.767 139.488 323.79 139.562C323.813 139.64 323.846 139.708 323.893 139.763Z" fill="#231F20"/>
<path d="M323.069 138.95L323.574 139.217L323.852 138.719L323.291 138.266L323.069 138.95Z" fill="#231F20"/>
<path d="M320.154 140.427H320.159H320.154ZM320.64 139.96L320.699 140.164L320.854 140.12L321.253 141.46L321.663 141.338L321.604 141.135L321.449 141.18L321.11 140.044L321.266 139.998L321.207 139.795L320.64 139.96ZM321.318 139.76L321.377 139.963L321.532 139.918L321.931 141.258L322.34 141.138L322.281 140.933L322.126 140.978L321.788 139.842L321.943 139.798L321.882 139.593L321.318 139.76ZM323.734 139.898L323.157 139.202L322.99 139.251L322.917 139.86L322.515 139.391L322.342 139.441L322.234 140.34L322.138 140.369L322.197 140.574L322.658 140.436L322.597 140.234L322.467 140.272L322.523 139.72L322.527 139.717L322.868 140.155L322.739 140.191L322.8 140.395L323.285 140.251L323.226 140.046L323.102 140.082L323.166 139.54L323.171 139.538L323.487 139.97L323.378 140.001L323.439 140.204L323.907 140.065L323.846 139.862L323.734 139.898Z" fill="#231F20"/>
<path d="M320.044 139.528L319.81 141.05L319.694 141.083L319.758 141.291L320.26 141.143L320.198 140.936L320.058 140.977L320.154 140.41L320.157 140.409L320.522 140.84L320.383 140.883L320.446 141.086L320.934 140.943L320.873 140.735L320.784 140.763L320.204 140.087L320.3 139.45L320.044 139.528Z" fill="#231F20"/>
<path d="M239.286 144.028C239.266 144.043 239.244 144.053 239.213 144.06C239.183 144.066 239.149 144.066 239.108 144.06C239.069 144.055 239.025 144.041 238.976 144.022C238.926 144 238.886 143.979 238.854 143.953C238.822 143.927 238.799 143.905 238.783 143.877C238.766 143.853 238.755 143.827 238.755 143.801C238.752 143.778 238.755 143.756 238.764 143.734C238.772 143.715 238.787 143.698 238.806 143.68C238.824 143.666 238.848 143.655 238.879 143.648C238.909 143.642 238.942 143.642 238.983 143.648C239.023 143.652 239.067 143.668 239.116 143.687C239.166 143.709 239.206 143.73 239.238 143.754C239.269 143.78 239.292 143.806 239.309 143.832C239.326 143.857 239.335 143.88 239.336 143.906C239.338 143.93 239.335 143.952 239.327 143.973C239.318 143.993 239.304 144.012 239.286 144.028ZM239.577 143.946C239.565 143.903 239.54 143.856 239.504 143.813C239.467 143.771 239.419 143.727 239.361 143.687C239.303 143.648 239.236 143.611 239.163 143.578C239.088 143.548 239.015 143.525 238.947 143.513C238.877 143.497 238.815 143.493 238.757 143.496C238.701 143.5 238.65 143.514 238.611 143.537C238.57 143.56 238.539 143.59 238.523 143.633C238.506 143.672 238.503 143.716 238.515 143.76C238.529 143.806 238.551 143.85 238.588 143.894C238.625 143.936 238.673 143.981 238.731 144.02C238.789 144.06 238.856 144.096 238.929 144.128C239.002 144.16 239.075 144.181 239.145 144.193C239.215 144.21 239.277 144.215 239.335 144.211C239.393 144.205 239.441 144.192 239.481 144.17C239.524 144.148 239.552 144.117 239.569 144.076C239.586 144.034 239.587 143.991 239.577 143.946Z" fill="#231F20"/>
<path d="M239.123 144.36L239.371 144.821L239.873 144.679L239.587 144.318L239.123 144.36Z" fill="#231F20"/>
<path d="M242.962 145.635L242.956 145.633L242.962 145.635ZM242.343 145.559L242.388 145.451L242.238 145.389L242.539 144.679L242.147 144.512L242.101 144.619L242.25 144.682L241.993 145.284L241.845 145.22L241.8 145.33L242.343 145.559ZM241.692 145.282L241.737 145.175L241.587 145.112L241.889 144.401L241.495 144.236L241.45 144.342L241.6 144.406L241.345 145.007L241.196 144.944L241.15 145.052L241.692 145.282ZM239.773 143.979L239.918 144.54L240.081 144.608L240.426 144.415L240.536 144.801L240.701 144.871L241.213 144.588L241.305 144.628L241.351 144.521L240.908 144.331L240.863 144.441L240.99 144.494L240.683 144.673L240.679 144.67L240.603 144.33L240.729 144.382L240.774 144.274L240.307 144.076L240.262 144.184L240.379 144.233L240.073 144.404L240.069 144.403L240.011 144.076L240.114 144.119L240.16 144.012L239.713 143.822L239.667 143.93L239.773 143.979Z" fill="#231F20"/>
<path d="M242.514 145.144L242.6 145.184L242.758 145.737L242.384 145.925L242.629 146.03L243.536 145.577L243.645 145.624L243.691 145.513L243.209 145.311L243.163 145.421L243.295 145.475L242.953 145.641L242.949 145.64L242.851 145.289L242.984 145.343L243.031 145.234L242.561 145.035L242.514 145.144Z" fill="#231F20"/>
<path d="M426.313 105.998C426.344 106.027 426.365 106.059 426.382 106.094C426.399 106.129 426.406 106.17 426.405 106.213C426.405 106.255 426.391 106.302 426.368 106.349C426.344 106.395 426.315 106.433 426.28 106.459C426.245 106.484 426.208 106.501 426.17 106.51C426.132 106.518 426.091 106.518 426.052 106.512C426.014 106.504 425.974 106.489 425.939 106.472C425.903 106.454 425.868 106.431 425.84 106.404C425.81 106.374 425.789 106.343 425.77 106.308C425.755 106.272 425.747 106.231 425.747 106.188C425.749 106.146 425.761 106.1 425.786 106.052C425.81 106.006 425.839 105.968 425.874 105.942C425.907 105.916 425.945 105.901 425.983 105.892C426.021 105.883 426.061 105.883 426.102 105.89C426.14 105.9 426.18 105.912 426.216 105.93C426.251 105.947 426.283 105.969 426.313 105.998ZM426.117 105.634C426.046 105.629 425.976 105.638 425.912 105.664C425.846 105.688 425.786 105.723 425.731 105.773C425.678 105.822 425.632 105.884 425.594 105.956C425.559 106.027 425.535 106.1 425.525 106.175C425.518 106.247 425.524 106.317 425.544 106.384C425.563 106.451 425.594 106.513 425.639 106.57C425.685 106.624 425.744 106.67 425.816 106.708C425.889 106.743 425.96 106.764 426.032 106.767C426.105 106.773 426.175 106.763 426.24 106.738C426.304 106.715 426.364 106.677 426.418 106.627C426.473 106.579 426.517 106.518 426.555 106.447C426.592 106.374 426.615 106.302 426.624 106.228C426.631 106.153 426.627 106.083 426.609 106.018C426.589 105.951 426.555 105.889 426.51 105.833C426.464 105.777 426.406 105.731 426.335 105.694C426.262 105.658 426.189 105.637 426.117 105.634Z" fill="#231F20"/>
<path d="M426.731 105.776L426.903 106.322L427.618 106.228L427.276 105.594L426.731 105.776Z" fill="#231F20"/>
<path d="M428.207 102.466V102.471V102.466ZM428.213 103.139L428.023 103.043L427.95 103.188L426.703 102.554L426.51 102.934L426.7 103.03L426.773 102.885L427.832 103.425L427.757 103.569L427.946 103.665L428.213 103.139ZM427.892 103.77L427.704 103.674L427.629 103.817L426.382 103.183L426.189 103.563L426.377 103.659L426.452 103.514L427.509 104.054L427.436 104.196L427.625 104.292L427.892 103.77ZM426.129 105.424L427.032 105.486L427.112 105.331L426.718 104.857L427.336 104.889L427.418 104.731L426.84 104.032L426.885 103.941L426.695 103.845L426.478 104.272L426.665 104.368L426.729 104.245L427.091 104.667L427.089 104.672L426.537 104.619L426.599 104.497L426.411 104.402L426.181 104.854L426.37 104.95L426.426 104.838L426.779 105.257L426.776 105.261L426.245 105.193L426.295 105.093L426.107 104.997L425.885 105.43L426.075 105.527L426.129 105.424Z" fill="#231F20"/>
<path d="M428.939 103.007L427.991 101.788L428.046 101.684L427.854 101.585L427.615 102.051L427.809 102.148L427.874 102.019L428.222 102.478L428.219 102.484L427.655 102.449L427.72 102.322L427.529 102.224L427.294 102.679L427.488 102.776L427.532 102.691L428.422 102.738L428.817 103.244L428.939 103.007Z" fill="#231F20"/>
<defs>
<linearGradient id="paint0_linear" x1="244.426" y1="192.553" x2="404.38" y2="192.553" gradientUnits="userSpaceOnUse">
<stop stop-color="#00A5D6"/>
<stop offset="0.1312" stop-color="#06A7CF"/>
<stop offset="0.3221" stop-color="#18ABBC"/>
<stop offset="0.5496" stop-color="#36B39C"/>
<stop offset="0.803" stop-color="#5FBE70"/>
<stop offset="0.989" stop-color="#81C74B"/>
<stop offset="1" stop-color="#81C74B"/>
</linearGradient>
<linearGradient id="paint1_linear" x1="357.22" y1="160.335" x2="260.859" y2="160.814" gradientUnits="userSpaceOnUse">
<stop stop-color="#00A5D6"/>
<stop offset="0.1312" stop-color="#06A7CF"/>
<stop offset="0.3221" stop-color="#18ABBC"/>
<stop offset="0.5496" stop-color="#36B39C"/>
<stop offset="0.803" stop-color="#5FBE70"/>
<stop offset="0.989" stop-color="#81C74B"/>
<stop offset="1" stop-color="#81C74B"/>
</linearGradient>
<linearGradient id="paint2_linear" x1="311.452" y1="132.894" x2="326.551" y2="133.686" gradientUnits="userSpaceOnUse">
<stop stop-color="#00A5D6"/>
<stop offset="0.1312" stop-color="#06A7CF"/>
<stop offset="0.3221" stop-color="#18ABBC"/>
<stop offset="0.5496" stop-color="#36B39C"/>
<stop offset="0.803" stop-color="#5FBE70"/>
<stop offset="0.989" stop-color="#81C74B"/>
<stop offset="1" stop-color="#81C74B"/>
</linearGradient>
<linearGradient id="paint3_linear" x1="310.871" y1="129.677" x2="325.516" y2="130.445" gradientUnits="userSpaceOnUse">
<stop stop-color="#00A5D6"/>
<stop offset="0.1312" stop-color="#06A7CF"/>
<stop offset="0.3221" stop-color="#18ABBC"/>
<stop offset="0.5496" stop-color="#36B39C"/>
<stop offset="0.803" stop-color="#5FBE70"/>
<stop offset="0.989" stop-color="#81C74B"/>
<stop offset="1" stop-color="#81C74B"/>
</linearGradient>
<linearGradient id="paint4_linear" x1="427.876" y1="104.974" x2="435.551" y2="104.974" gradientUnits="userSpaceOnUse">
<stop stop-color="#00A5D6"/>
<stop offset="0.1312" stop-color="#06A7CF"/>
<stop offset="0.3221" stop-color="#18ABBC"/>
<stop offset="0.5496" stop-color="#36B39C"/>
<stop offset="0.803" stop-color="#5FBE70"/>
<stop offset="0.989" stop-color="#81C74B"/>
<stop offset="1" stop-color="#81C74B"/>
</linearGradient>
<linearGradient id="paint5_linear" x1="431.463" y1="105.448" x2="438.994" y2="105.448" gradientUnits="userSpaceOnUse">
<stop stop-color="#00A5D6"/>
<stop offset="0.1312" stop-color="#06A7CF"/>
<stop offset="0.3221" stop-color="#18ABBC"/>
<stop offset="0.5496" stop-color="#36B39C"/>
<stop offset="0.803" stop-color="#5FBE70"/>
<stop offset="0.989" stop-color="#81C74B"/>
<stop offset="1" stop-color="#81C74B"/>
</linearGradient>
<linearGradient id="paint6_linear" x1="230.806" y1="149.006" x2="244.11" y2="149.006" gradientUnits="userSpaceOnUse">
<stop stop-color="#00A5D6"/>
<stop offset="0.1312" stop-color="#06A7CF"/>
<stop offset="0.3221" stop-color="#18ABBC"/>
<stop offset="0.5496" stop-color="#36B39C"/>
<stop offset="0.803" stop-color="#5FBE70"/>
<stop offset="0.989" stop-color="#81C74B"/>
<stop offset="1" stop-color="#81C74B"/>
</linearGradient>
<linearGradient id="paint7_linear" x1="228.193" y1="150.867" x2="242.126" y2="150.867" gradientUnits="userSpaceOnUse">
<stop stop-color="#00A5D6"/>
<stop offset="0.1312" stop-color="#06A7CF"/>
<stop offset="0.3221" stop-color="#18ABBC"/>
<stop offset="0.5496" stop-color="#36B39C"/>
<stop offset="0.803" stop-color="#5FBE70"/>
<stop offset="0.989" stop-color="#81C74B"/>
<stop offset="1" stop-color="#81C74B"/>
</linearGradient>
</defs>
</svg>
