<svg width="801" height="384" viewBox="0 0 801 384" fill="none" xmlns="http://www.w3.org/2000/svg">
<path d="M114.774 365.352C-34.3341 256.126 46.937 188.118 110.591 175.453C174.243 162.789 156.849 84.0784 202.683 42.3904C232.482 15.2896 323.234 -8.13281 428.195 52.9792C533.157 114.091 662.919 110.734 711.935 142.653C774.237 183.221 776.946 277.853 734.722 322.4C688.46 371.206 669.95 369.592 669.95 369.592L114.774 365.352Z" fill="#00A5D6"/>
<path d="M262.68 32.3712H91.0833V277.71H262.68V32.3712Z" fill="#FFC400"/>
<path d="M92.2127 276.584H261.552V33.5008H92.2127V276.584ZM263.809 278.838H89.9554V31.2448H263.809V278.838Z" fill="white"/>
<path d="M228.267 63.9408H137.889V72.3264H228.267V63.9408Z" fill="url(#paint0_linear)"/>
<path d="M228.267 78.9664H137.889V87.352H228.267V78.9664Z" fill="url(#paint1_linear)"/>
<path d="M233.858 102.501H128.282C127.152 102.501 126.23 103.424 126.23 104.552V104.826C126.23 105.954 127.154 106.877 128.282 106.877H233.858C234.988 106.877 235.912 105.954 235.912 104.826V104.552C235.912 103.424 234.988 102.501 233.858 102.501Z" fill="#929497"/>
<path d="M233.858 110.341H128.282C127.152 110.341 126.23 111.264 126.23 112.39V112.666C126.23 113.794 127.154 114.715 128.282 114.715H233.858C234.988 114.715 235.912 113.792 235.912 112.666V112.39C235.912 111.264 234.988 110.341 233.858 110.341Z" fill="#929497"/>
<path d="M667.811 68.1008C666.392 68.08 665.001 68.1344 663.641 68.256C663.718 67.4896 663.768 66.7136 663.777 65.9312C664.037 47.8224 645.891 32.8784 623.244 32.5552C604.678 32.288 588.855 41.9312 583.613 55.3952C579.721 53.9152 575.392 53.0608 570.821 52.9952C553.571 52.7472 539.424 63.84 539.222 77.7696C539.023 91.7008 552.845 103.192 570.094 103.44C581.755 103.606 657.261 103.296 667.312 103.44C681.981 103.65 693.983 95.424 694.121 85.84C694.262 76.2512 682.481 68.312 667.811 68.1008Z" fill="white"/>
<path d="M88.3743 369.187C88.3743 369.187 41.1522 319.046 59.3445 315.517C77.5368 311.986 96.6438 357.482 98.3788 352.773C100.114 348.066 85.6637 297.194 93.7939 296.021C101.921 294.848 115.498 353.8 115.498 353.8C115.498 353.8 117.43 323.064 132.253 316.624C147.076 310.182 128.685 368.126 128.685 368.126L88.3743 369.187Z" fill="#81C74B"/>
<path d="M517.352 308.878C559.748 279.024 571.084 264.592 582.5 217.478C593.916 170.363 646.538 113.464 623.908 123.093C601.277 132.723 562.171 174.288 563.752 214.629C565.333 254.968 559.465 266.579 552.809 275.837C546.155 285.098 517.619 305.632 517.619 305.632L517.352 308.878Z" fill="#81C74B"/>
<path d="M543.72 288.706C543.868 288.576 544.015 288.448 544.159 288.318C546.705 284.952 559.683 267.541 562.717 258.624C566.088 248.725 563.387 223.093 573.841 204.498C584.294 185.901 589.168 168.318 594.143 154.974C600.716 137.354 619.719 124.008 629.448 123.16C629.41 122.979 629.347 122.822 629.267 122.685L626.871 122.117C626.078 122.267 625.099 122.586 623.907 123.093C601.277 132.723 562.169 174.29 563.75 214.627C565.331 254.965 559.463 266.579 552.807 275.838C551.013 278.336 547.625 281.654 543.632 285.17L543.72 288.706Z" fill="#81C74B"/>
<path d="M574.154 247.869C586.388 199.645 716.382 148.162 704.58 163.181C692.78 178.2 661.389 214.403 625.9 228.085C590.411 241.766 576.887 261.643 568.281 285.922C559.675 310.205 561.921 296.09 574.154 247.869Z" fill="#81C74B"/>
<path d="M553.158 305.485C552.208 305.485 551.504 305.288 551.45 305.27C551.09 305.168 550.883 304.792 550.989 304.434C551.091 304.075 551.466 303.869 551.826 303.973C551.844 303.978 553.835 304.526 555.336 303.56C556.242 302.976 556.817 301.933 557.039 300.461C558.478 290.987 561.711 283.771 564.559 277.405C566.309 273.501 567.819 270.125 568.651 266.83C569.849 262.088 573.328 253.739 579.499 244.528C587.038 233.277 596.87 223.402 607.928 215.971C620.927 207.237 630.145 202.285 642.902 195.434C655.505 188.667 671.192 180.242 697.391 164.586C697.711 164.392 698.128 164.496 698.318 164.819C698.51 165.139 698.408 165.554 698.084 165.747C671.86 181.421 656.157 189.853 643.543 196.629C630.821 203.461 621.627 208.397 608.681 217.096C582.921 234.4 571.999 259.104 569.963 267.162C569.101 270.574 567.494 274.16 565.794 277.958C562.978 284.248 559.787 291.374 558.375 300.666C558.09 302.544 557.309 303.902 556.054 304.704C555.093 305.318 554.024 305.485 553.158 305.485Z" fill="#81C74B"/>
<path d="M645.031 196.872C643.728 196.872 642.971 196.819 642.895 196.814C642.525 196.786 642.245 196.464 642.269 196.091C642.298 195.717 642.623 195.443 642.995 195.464C643.176 195.477 661.533 196.674 678.644 186.035C678.961 185.837 679.379 185.934 679.576 186.253C679.775 186.568 679.677 186.986 679.36 187.184C670.214 192.87 660.796 195.184 654.503 196.128C650.366 196.747 647.041 196.872 645.031 196.872Z" fill="#81C74B"/>
<path d="M640.529 211.158C628.833 211.158 621.805 208.912 621.709 208.878C621.353 208.762 621.16 208.379 621.276 208.026C621.393 207.669 621.776 207.477 622.13 207.594C622.262 207.635 635.449 211.84 655.867 208.552C656.234 208.491 656.583 208.744 656.641 209.114C656.702 209.48 656.452 209.83 656.08 209.89C650.286 210.821 645.057 211.158 640.529 211.158Z" fill="#81C74B"/>
<path d="M204.066 368.128C204.066 368.128 160.794 323.923 166.637 315.56C176.696 301.163 219.525 351.006 219.525 351.006C219.525 351.006 159.537 216.832 170.557 187.814C181.575 158.797 226.491 252.11 226.491 252.11C226.491 252.11 269.597 44.248 288.714 46.88C307.829 49.512 298.02 155.221 298.02 155.221L428.194 108.139C428.194 108.139 484.837 53.6336 498.385 61.944C511.932 70.256 474.391 121.466 480.066 119.31C485.741 117.158 544.159 53.6864 561.459 67.3824C578.761 81.08 492.227 138.55 492.227 138.55L550.188 333.443C550.188 333.443 596.828 232.422 648.945 242.946C675.653 248.339 594.073 322.355 594.073 322.355C594.073 322.355 645.173 285.118 665.279 296.021C685.384 306.923 609.452 334.814 619.405 338.909C629.362 343.005 597.958 363.298 597.958 363.298C597.958 363.298 622.75 348.155 633.716 354.424C644.686 360.693 641.055 369.187 641.055 369.187L204.066 368.128Z" fill="#007E00"/>
<path d="M694.124 368.128C694.124 368.128 697.069 309.914 708.808 312.301C720.551 314.691 706.101 355.931 708.808 353.802C711.519 351.672 735.541 284.531 749.27 296.002C762.996 307.475 721.696 347.84 721.696 347.84C721.696 347.84 742.764 333.36 749.27 338.907C755.772 344.456 727.774 368.126 727.774 368.126H694.124V368.128Z" fill="#81C74B"/>
<path d="M210.389 319.09C210.347 317.939 181.846 262.491 155.639 268.374C129.43 274.256 125.791 282.221 107.693 285.856C94.7807 288.45 84.0072 288.078 84.0072 288.078C84.0072 288.078 96.6198 302.11 121.366 300.581C138.863 299.501 156.424 284.016 169.142 281.608C181.862 279.198 197.571 302.493 197.571 302.493L204.591 315.035L210.389 319.09Z" fill="#81C74B"/>
<path d="M202.18 303.005C201.974 303.005 201.769 302.91 201.637 302.731C186.905 282.954 174.762 272.784 163.423 270.728C153.459 268.923 145.409 273.658 136.886 278.667C134.733 279.936 132.506 281.243 130.247 282.44C110.471 292.914 98.7072 291.643 98.2154 291.584C97.8437 291.539 97.5794 291.202 97.6242 290.83C97.6691 290.459 98.0055 290.195 98.3788 290.24C98.4925 290.254 110.259 291.494 129.611 281.243C131.843 280.064 134.057 278.762 136.197 277.502C144.942 272.36 153.204 267.502 163.665 269.397C175.363 271.517 187.775 281.853 202.723 301.925C202.948 302.224 202.885 302.646 202.586 302.87C202.462 302.963 202.32 303.005 202.18 303.005Z" fill="#81C74B"/>
<path d="M210.663 319.824C190.434 255.48 162.657 226.507 121.787 210.496C80.9201 194.488 76.9039 187.814 76.9039 187.814C76.9039 187.814 101.347 239.355 125.941 251.262C150.533 263.17 181.574 267.275 188.863 275.458C196.154 283.64 206.629 316.262 206.629 316.262L211.166 321.19L210.663 319.824Z" fill="#81C74B"/>
<path d="M209.62 316.618C209.321 316.618 209.047 316.416 208.967 316.115C208.938 316.011 206.093 305.485 199.752 292.053C193.908 279.678 183.814 262.23 168.912 249.39C154.161 236.682 141.024 230.966 128.322 225.44C116.292 220.206 104.929 215.264 93.7988 204.818C93.5264 204.562 93.5136 204.133 93.7683 203.861C94.0247 203.589 94.454 203.574 94.7263 203.83C105.686 214.115 116.943 219.014 128.863 224.197C141.657 229.763 154.889 235.517 169.798 248.363C184.887 261.365 195.09 278.997 200.992 291.501C207.379 305.038 210.248 315.659 210.277 315.765C210.373 316.125 210.158 316.496 209.798 316.592C209.737 316.61 209.678 316.618 209.62 316.618Z" fill="#81C74B"/>
<path d="M143.32 232.162C143.252 232.162 143.185 232.152 143.118 232.13C142.964 232.083 127.673 227.394 109.923 230.314C109.553 230.374 109.205 230.123 109.146 229.754C109.083 229.387 109.335 229.038 109.703 228.978C127.787 226.005 143.369 230.79 143.523 230.838C143.88 230.95 144.079 231.33 143.967 231.686C143.876 231.976 143.608 232.162 143.32 232.162Z" fill="#81C74B"/>
<path d="M172.79 252.557C172.639 252.557 172.489 252.509 172.362 252.406C158.308 240.992 146.655 241.053 121.637 242.28C121.26 242.309 120.945 242.013 120.927 241.64C120.909 241.267 121.198 240.949 121.571 240.931C146.947 239.686 158.776 239.629 173.218 251.358C173.509 251.594 173.553 252.019 173.319 252.31C173.183 252.472 172.987 252.557 172.79 252.557Z" fill="#81C74B"/>
<path d="M371.313 61.6336C377.164 65.3536 388.267 78.1472 395.348 85.5888C402.429 93.0288 406.267 97.1632 406.267 97.1632L318.891 95.0592C318.891 95.0592 323.633 91.64 327.923 85.3616C332.213 79.0832 333.647 73.4 345.534 65.2928C357.501 57.1312 365.602 58.0016 371.313 61.6336Z" fill="#81C74B"/>
<path d="M355.694 64.6192C359.984 64.6192 362.693 81.08 364.727 84.688C366.759 88.2944 377.452 88.9728 377.452 88.9728V82.1712C377.452 82.1712 379.402 87.2816 380.757 90.5104C384.595 88.0704 389.674 85.1392 394.643 84.7968C395.096 85.048 403.678 93.896 403.678 93.896L332.215 95.0624C332.215 95.0624 327.925 92.8064 328.602 92.8064C329.281 92.8064 334.571 83.7872 338.924 79.84C343.277 75.8944 355.694 64.6192 355.694 64.6192Z" fill="#81C74B"/>
<path d="M379.402 91.7904C379.402 91.7904 393.398 85.8144 400.397 86.8288C407.395 87.8432 409.202 91.7904 409.202 91.7904H379.402Z" fill="#FFC400"/>
<path d="M455.734 349.949V300.475H340.99V349.949H303.68C296.754 349.949 291.141 355.557 291.141 362.475V365.518C291.141 367.766 292.966 369.59 295.216 369.59H501.506C503.757 369.59 505.583 367.766 505.583 365.518V362.475C505.583 355.557 499.966 349.949 493.041 349.949H455.734Z" fill="#FFC400"/>
<path d="M340.989 331.461L455.734 322.626V301.786L340.989 303.002V331.461Z" fill="#FF9E00"/>
<path d="M455.734 338.909L340.99 347.022H455.734V338.909Z" fill="#FFC400"/>
<path d="M571.525 308.853H225.196C221.805 308.853 219.054 306.104 219.054 302.717V96.6464C219.054 93.2576 221.805 90.5104 225.196 90.5104H571.525C574.918 90.5104 577.667 93.2576 577.667 96.6464V302.717C577.667 306.104 574.918 308.853 571.525 308.853Z" fill="#FFC400"/>
<path d="M563.699 287.693H233.024C229.94 287.693 227.441 285.195 227.441 282.117V104.053C227.441 100.973 229.94 98.4752 233.024 98.4752H563.701C566.784 98.4752 569.284 100.973 569.284 104.053V282.117C569.282 285.195 566.783 287.693 563.699 287.693Z" fill="white"/>
<path d="M410.899 301.786H385.824C384.443 301.786 383.315 300.659 383.315 299.282V298.526C383.315 297.149 384.443 296.022 385.824 296.022H410.899C412.278 296.022 413.407 297.149 413.407 298.526V299.282C413.409 300.659 412.28 301.786 410.899 301.786Z" fill="#231F20"/>
<path d="M480.068 203.429H311.629V286.757H480.068V203.429Z" fill="url(#paint2_linear)"/>
<path d="M480.43 230.541L311.461 231.322L311.266 192.043L480.236 191.265L480.43 230.541Z" fill="url(#paint3_linear)"/>
<path d="M428.195 213.301H362.502L374.307 206.96H416.389L428.195 213.301Z" fill="#FFC400"/>
<path d="M418.471 210.806H372.891C372.52 210.806 372.215 210.506 372.215 210.131C372.215 209.757 372.518 209.454 372.891 209.454H418.471C418.845 209.454 419.149 209.755 419.149 210.131C419.149 210.504 418.845 210.806 418.471 210.806Z" fill="white"/>
<path d="M436.215 270.243H353.815C350.792 270.243 348.318 267.773 348.318 264.755V250.581C348.318 247.56 350.792 245.09 353.815 245.09H436.215C439.238 245.09 441.712 247.56 441.712 250.581V264.755C441.712 267.773 439.238 270.243 436.215 270.243Z" fill="#81C74B"/>
<path d="M366.461 149.928C368.848 146.272 391.124 139.757 392.714 139.917C394.305 140.075 405.849 165.976 408.271 176.149C410.694 186.317 411.011 187.907 411.011 187.907C411.011 187.907 385.235 196.328 380.464 197.125L375.692 197.917C375.692 197.917 373.306 175.035 370.919 166.614C368.532 158.194 366.461 149.928 366.461 149.928Z" fill="#FFC400"/>
<path d="M381.939 178.045L398.656 178.92L398.206 187.491L381.491 186.618L381.939 178.045Z" fill="url(#paint4_linear)"/>
<path d="M381.319 174.662L397.562 175.512L397.115 184.083L380.869 183.234L381.319 174.662Z" fill="url(#paint5_linear)"/>
<path d="M379.666 176.71C379.418 176.71 379.192 176.546 379.123 176.296C379.038 175.995 379.216 175.685 379.515 175.602L392.882 171.922C393.184 171.837 393.491 172.014 393.576 172.314C393.658 172.614 393.482 172.925 393.182 173.008L379.817 176.69C379.767 176.702 379.714 176.71 379.666 176.71Z" fill="#929497"/>
<path d="M379.666 174.87C379.419 174.87 379.192 174.706 379.123 174.458C379.038 174.157 379.216 173.846 379.514 173.762L392.881 170.042C393.18 169.957 393.491 170.134 393.576 170.434C393.659 170.734 393.482 171.045 393.184 171.128L379.818 174.85C379.767 174.864 379.714 174.87 379.666 174.87Z" fill="#929497"/>
<path d="M379.131 169.818C378.887 169.818 378.662 169.659 378.591 169.413C378.5 169.114 378.671 168.8 378.969 168.712L391.857 164.898C392.157 164.81 392.471 164.981 392.559 165.278C392.647 165.578 392.476 165.89 392.178 165.979L379.29 169.794C379.24 169.81 379.184 169.818 379.131 169.818Z" fill="#929497"/>
<path d="M377.926 172.738C377.782 172.738 377.638 172.682 377.529 172.571C377.306 172.35 377.306 171.995 377.527 171.774C377.654 171.648 377.95 171.352 389.866 167.976C390.165 167.89 390.476 168.066 390.563 168.365C390.649 168.664 390.475 168.976 390.173 169.061C385.904 170.27 378.942 172.296 378.255 172.634C378.157 172.702 378.04 172.738 377.926 172.738Z" fill="#929497"/>
<path d="M379.487 48.0704L367.585 59.2816C364.492 61.6816 364.143 63.5136 364.727 67.3824C365.447 72.1696 366.669 75.8176 368.639 75.8176C372.026 75.8176 371.723 66.4224 371.723 66.4224L383.274 54.8176L379.487 48.0704Z" fill="#FF9E00"/>
<path d="M379.487 48.0704L375.97 50.8016C374.445 55.3408 373.854 60.608 373.985 64.152L383.275 54.8192L379.487 48.0704Z" fill="#FF9E00"/>
<path d="M391.912 59.2416C389.427 64.0928 385.124 68.1264 381.789 67.2672C378.335 66.3776 374.847 60.4848 377.468 55.1024C380.006 49.8848 383.602 45.9344 387.59 47.0768C391.578 48.2208 394.555 54.0768 391.912 59.2416Z" fill="#FF9E00"/>
<path d="M371.951 130.088C376.013 136.253 379.778 140.611 380.983 145.27C382.188 149.93 379.025 157.147 377.144 154.741C375.264 152.334 372.705 151.696 372.103 144.971C371.35 136.552 368.34 135.397 368.34 135.397L371.951 130.088Z" fill="#FF9E00"/>
<path d="M356.823 63.1216C361.337 65.2944 361.565 102.275 368.562 118.286C375.562 134.296 375.712 134.403 375.712 134.403C375.712 134.403 369.668 137.942 368.362 138.552C367.058 139.158 351.796 119.416 348.92 108.363C343.727 88.4064 338.647 85.2496 332.891 84.3472C333.906 81.416 339.437 74.5392 345.985 68.9008C352.534 63.2672 356.823 63.1216 356.823 63.1216Z" fill="#81C74B"/>
<path d="M391.989 90.5104C391.989 90.5104 396.128 87.3936 399.745 87.8448C403.364 88.2944 410.476 91.5664 409.008 92.6912C407.541 93.8208 403.476 93.9328 400.993 92.6912C398.509 91.4528 392.552 89.9472 391.989 90.5104Z" fill="#FF9E00"/>
<path d="M370.527 56.5104C375.712 56.1232 378.227 52.3344 378.698 51.7648C379.168 51.1952 379.458 56.2848 380.456 56.6512C381.452 57.016 382.578 54.232 383.814 51.872C385.049 49.5088 386.704 49.7248 386.853 51.872C387.005 54.0208 388.475 60.488 391.989 61.944C394.829 63.1216 397.238 63.5696 397.238 63.5696C397.238 63.5696 396.391 59.0336 396.711 55.1488C397.238 48.7632 391.679 43.3488 387.304 42.5952C383.812 41.9952 377.763 42.4896 375.261 47.4064C372.853 52.1408 370.527 56.5104 370.527 56.5104Z" fill="#231F20"/>
<path d="M380.643 53.6304C380.142 55.152 378.867 56.0992 377.79 55.7456C376.717 55.3936 376.251 53.8752 376.754 52.352C377.255 50.832 378.53 49.8848 379.605 50.2368C380.68 50.5888 381.145 52.1088 380.643 53.6304Z" fill="#FF9E00"/>
<path d="M615.806 168.314C612.831 166.019 598.273 171.885 597.974 177.243C597.674 182.602 601.972 194.045 611.286 194.854C620.599 195.666 621.718 194.608 622.513 187.264C623.308 179.923 619.929 171.49 615.806 168.314Z" fill="#231F20"/>
<path d="M655.859 349.658C655.859 349.658 662.483 352.389 661.424 353.802C660.365 355.216 663.544 363.285 663.544 363.285H662.219L659.702 358.094C659.702 358.094 660.761 364.378 658.508 365.352C656.258 366.326 648.443 368.542 648.973 366.723C649.255 365.757 651.126 363.384 651.126 363.384L655.859 349.658Z" fill="#231F20"/>
<path d="M651.658 350.838C652.813 354.022 651.754 362.886 650.164 364.606C648.573 366.326 655.066 364.738 656.256 363.15C657.45 361.565 657.147 351.198 657.147 351.198L651.658 350.838Z" fill="#FF9E00"/>
<path d="M579.56 351.006C579.56 351.006 584.092 356.549 582.487 357.291C580.883 358.032 579.847 366.643 579.847 366.643L578.681 366.014L578.931 360.254C578.931 360.254 576.88 366.285 574.434 366.075C571.988 365.867 563.302 365.354 565.387 362.765C566.02 361.979 568.667 361.002 568.667 361.002L579.56 351.006Z" fill="#231F20"/>
<path d="M575.302 350.053C574.804 353.406 569.661 360.704 567.444 361.464C565.225 362.226 571.694 363.904 573.498 363.072C575.302 362.24 579.961 352.974 579.961 352.974L575.302 350.053Z" fill="#FF9E00"/>
<path d="M610.293 248.642C610.293 248.642 619.631 295.618 624.402 306.133C628.006 314.08 651.026 353.363 654.005 352.766C656.985 352.17 657.147 351.2 657.147 351.2C657.147 351.2 648.371 319.918 643.674 313.474C636.321 303.386 638.11 300.741 637.912 281.89C637.713 263.038 637.92 262.674 632.949 251.362L627.976 240.051L610.293 248.642Z" fill="#FF9E00"/>
<path d="M610.293 244.762C610.293 244.762 588.48 295.814 586.966 301.173C585.457 306.531 574.926 351.974 574.926 351.974C574.926 351.974 577.359 354.078 579.227 353.773C581.093 353.467 597.586 322.208 598.022 312.086C598.456 301.966 618.439 280.93 620.823 272.002C623.208 263.07 610.293 244.762 610.293 244.762Z" fill="#FF9E00"/>
<path d="M653.312 268.43C653.312 268.43 656.391 294.029 656.192 301.469C655.993 308.91 656.202 309.805 656.202 309.805L683.811 305.538C683.811 305.538 680.134 291.795 678.743 288.248C677.353 284.701 653.312 268.43 653.312 268.43Z" fill="#FFC400"/>
<path d="M654.106 269.371C654.106 269.371 655.62 280.83 657.147 292.938C658.674 305.042 658.774 308.018 658.774 308.018L683.811 304.622L654.106 269.371Z" fill="white"/>
<path d="M667.02 267.586C665.727 267.933 652.317 267.586 652.317 267.586C652.317 267.586 657.978 286.09 661.357 306.131C675.762 304.622 687.386 304.149 687.386 304.149C687.386 304.149 681.153 283.909 677.96 276.962C674.77 270.016 673.378 267.587 673.378 267.587H667.02V267.586Z" fill="#FFC400"/>
<path d="M665.828 257.789C665.828 257.789 669.008 263.269 669.602 266.941C670.198 270.613 669.404 277.854 667.714 277.854C666.025 277.854 665.926 277.235 664.833 273.278C663.739 269.32 663.145 267.822 663.145 267.822H660.759V257.315L665.828 257.789Z" fill="#FF9E00"/>
<path d="M629.07 241.936C629.599 242.618 637.979 256.522 639.304 268.826C640.629 281.13 640.363 301.901 640.363 301.901L633.721 303.222L629.764 276.234L628.043 303.222C628.043 303.222 620.624 305.869 610.293 303.885C599.962 301.901 588.57 294.888 588.57 294.888L608.702 246.467L629.07 241.936Z" fill="#FFC400"/>
<path d="M621.619 198.179C621.619 198.179 631.752 201.485 632.744 206.082C633.626 210.158 630.198 235.974 629.408 241.784C629.309 242.515 628.844 243.144 628.175 243.453C624.947 244.942 615.259 249.165 610.293 248.64C604.928 248.074 598.091 219.07 598.768 216.038C599.762 211.594 606.915 200.723 612.48 198.358C618.044 195.995 621.619 198.179 621.619 198.179Z" fill="white"/>
<path d="M614.667 183.222C614.667 183.222 618.143 196.467 620.131 197.261C622.116 198.054 614.667 209.506 610.293 209.194C605.921 208.882 612.478 198.36 612.478 198.36L608.109 184.938L614.667 183.222Z" fill="#FF9E00"/>
<path d="M616.136 188.325C615.065 192.528 613.62 194.488 611.812 196.312L608.111 184.936L614.665 183.222C614.667 183.222 615.173 185.832 616.136 188.325Z" fill="#FF9E00"/>
<path d="M600.061 180.224C598.504 185.448 598.829 191.33 601.838 193.01C604.95 194.747 611.546 192.89 613.37 187.187C615.139 181.664 615.27 176.326 611.594 174.403C607.922 172.48 601.719 174.666 600.061 180.224Z" fill="#FF9E00"/>
<path d="M547.541 178.085L552.972 162.571C552.972 162.571 530.675 144.747 518.511 142.805C511.589 141.699 505.681 143.472 505.681 143.472L494.393 164.814C494.393 164.814 514.876 167.165 522.835 173.661C530.794 180.16 539.174 187.872 539.174 187.872C539.174 187.872 543.941 185.826 547.541 178.085Z" fill="#FFC400"/>
<path d="M553.568 182.006C553.568 182.006 549.068 177.451 548.003 175.557C546.94 173.662 544.528 170.696 545.42 173.474C546.317 176.251 546.514 176.749 546.317 178.931C546.117 181.114 544.529 182.006 544.529 182.006L551.879 185.877L553.568 182.006Z" fill="#FF9E00"/>
<path d="M611.286 198.36C611.286 198.36 579.297 196.757 576.316 195.386C573.336 194.014 552.474 180.325 552.474 180.325C552.474 180.325 549.097 184.792 548.898 184.938C548.699 185.085 570.557 202.349 574.927 204.531C579.298 206.714 599.761 211.59 599.761 211.59C599.761 211.59 595.99 231.602 594.398 236.322C592.809 241.045 591.618 242.598 591.618 242.598C591.618 242.598 597.578 243.874 600.16 241.565C602.743 239.256 603.339 221.717 603.339 214.453C603.339 207.189 611.286 198.36 611.286 198.36Z" fill="#FFC400"/>
<path d="M628.474 200.165C628.474 200.165 635.526 202.461 642.583 209.2C649.635 215.941 659.869 225.13 661.855 230.446C663.842 235.763 667.02 258.874 667.02 258.874C667.02 258.874 661.458 260.757 660.663 259.923C659.869 259.09 654.404 238.858 651.621 235.387C648.84 231.918 633.721 217.824 633.721 217.824L639.102 238.36C639.102 238.36 631.614 243.254 626.518 240.76C621.421 238.262 619.202 231.685 615.839 223.662C612.478 215.64 621.619 198.178 621.619 198.178L628.474 200.165Z" fill="#FFC400"/>
<path d="M619.037 194.674C619.367 195.07 621.619 198.179 621.619 198.179C621.619 198.179 617.119 207.518 615.098 209.198C613.074 210.88 610.493 210.219 610.493 210.219C610.493 210.219 604.914 207.912 606.045 205.816C608.281 201.677 611.286 198.36 611.286 198.36L611.98 196.824L612.48 198.36C612.48 198.36 611.552 199.701 610.825 201.619C610.098 203.538 610.229 208.368 609.899 208.963C609.566 209.557 610.825 209.094 611.618 206.714C612.414 204.333 612.613 200.826 612.613 200.826C612.613 200.826 616.123 198.843 617.316 197.386C618.507 195.931 619.037 194.674 619.037 194.674Z" fill="white"/>
<path d="M514.434 146.533H505.228V159.365H514.434V146.533Z" fill="url(#paint6_linear)"/>
<path d="M520.512 161.918C520.407 161.918 520.298 161.888 520.203 161.827C519.944 161.656 519.868 161.307 520.04 161.046L526.907 150.562C527.077 150.299 527.426 150.229 527.689 150.398C527.949 150.57 528.022 150.918 527.853 151.179L520.985 161.664C520.876 161.83 520.695 161.918 520.512 161.918Z" fill="#929497"/>
<path d="M530.107 165.934C530.054 165.934 529.999 165.925 529.945 165.91C529.645 165.819 529.476 165.506 529.567 165.21C529.592 165.125 529.642 164.952 534.929 156.099C535.089 155.832 535.433 155.742 535.701 155.904C535.968 156.062 536.058 156.408 535.896 156.675C533.886 160.045 530.84 165.17 530.626 165.589C530.539 165.8 530.331 165.934 530.107 165.934Z" fill="#929497"/>
<path d="M517.287 146.955H508.454V159.936H517.287V146.955Z" fill="url(#paint7_linear)"/>
<path d="M517.954 160.818C517.853 160.818 517.749 160.789 517.657 160.733C517.391 160.566 517.31 160.221 517.475 159.957C517.723 159.555 523.574 150.131 524.117 149.392C524.299 149.141 524.655 149.086 524.905 149.272C525.155 149.454 525.209 149.808 525.027 150.059C524.612 150.622 520.533 157.166 518.434 160.55C518.329 160.722 518.144 160.818 517.954 160.818Z" fill="#929497"/>
<path d="M528.138 164.413C528.037 164.413 527.936 164.386 527.845 164.331C527.579 164.168 527.492 163.822 527.654 163.557L532.788 155.099C532.948 154.832 533.294 154.746 533.562 154.909C533.828 155.07 533.914 155.416 533.751 155.683L528.618 164.141C528.513 164.315 528.327 164.413 528.138 164.413Z" fill="#929497"/>
<path d="M599.167 177.64C601.849 183.098 613.842 182.733 613.755 183.461C613.672 184.189 615.956 194.739 618.638 194.674C621.323 194.608 616.137 172.68 616.137 172.68L605.027 173.176L599.167 177.64Z" fill="#231F20"/>
<path d="M621.095 176.488C625.592 174.664 626.388 175.36 627.877 177.741C629.365 180.122 631.057 181.066 630.759 183.222C630.459 185.381 630.957 187.606 630.06 189.766C629.168 191.93 626.089 192.13 623.505 193.416C620.922 194.709 619.692 190.933 619.692 190.933L621.095 176.488Z" fill="#231F20"/>
<path d="M612.259 184.078C611.861 185.712 612.448 187.256 613.568 187.526C614.687 187.798 615.916 186.693 616.313 185.061C616.709 183.427 616.123 181.885 615.003 181.613C613.883 181.341 612.656 182.445 612.259 184.078Z" fill="#FF9E00"/>
<path d="M227.071 356.165C227.071 356.165 228.519 361.746 233.442 363.155C238.365 364.565 243.166 367.302 236.248 367.386C228.66 367.48 224.31 367.123 221.158 366.594C218.005 366.064 220.07 360.514 220.571 357.87C221.071 355.224 227.071 356.165 227.071 356.165Z" fill="#231F20"/>
<path d="M186.942 351.629C186.942 351.629 185.888 362.779 188.571 363.733C191.255 364.693 194.323 366.989 190.489 366.989C186.655 366.989 181.91 367.894 180.67 363.733C179.158 358.661 175.733 357.805 176.954 355.222C178.174 352.64 181.862 347.843 181.862 347.843L186.942 351.629Z" fill="#231F20"/>
<path d="M238.245 235.338L228.501 358.528C228.501 358.528 223.439 360.866 219.79 361.219C216.14 361.571 208.596 302.182 209.236 292.688C209.875 283.19 202.642 253.038 204.317 243.264C205.995 233.491 238.245 235.338 238.245 235.338Z" fill="#006C99"/>
<path d="M218.748 235.99C219.436 235.896 220.128 235.818 220.821 235.744L237.655 242.248L234.55 278.582C226.483 296.291 216.829 313.006 211.981 323.813C209.772 310.962 208.941 297.104 209.239 292.688C209.546 288.114 208.029 278.75 206.56 269.179L218.748 235.99Z" fill="#006C99"/>
<path d="M233.44 253.954C223.993 295.893 186.836 354.426 186.875 354.426C186.915 354.426 179.933 353.221 179.581 350.051C179.229 346.878 183.567 307.861 193.012 298.68C202.459 289.499 203.103 245.907 203.103 245.907L233.44 253.954Z" fill="#006C99"/>
<path d="M211.168 195.325C200.542 205.998 193.727 224.352 193.634 228.893C193.541 233.434 205.887 241.536 205.887 241.536L211.168 195.325Z" fill="#00A5D6"/>
<path d="M223.123 171.77L218.915 192.682L230.424 205.056L231.955 179.699L223.123 171.77Z" fill="#FF9E00"/>
<path d="M218.915 186.163C218.915 186.163 213.487 188.064 207.445 203.382C201.403 218.698 197.208 256.443 197.208 256.443C197.208 256.443 208.816 266.288 225.433 266.283C236.023 266.28 241.37 263.904 241.37 263.904C241.37 263.904 242.429 228.328 241.37 215.486C240.314 202.645 224.158 185.837 218.915 186.163Z" fill="#00A5D6"/>
<path d="M241.372 215.486C240.313 202.646 224.157 185.84 218.915 186.162C218.915 186.162 216.662 186.95 213.446 191.605C218.87 188.968 225.63 193.565 231.952 208.446C235.116 215.891 238.472 226.605 241.822 228.941C241.777 223.613 241.646 218.794 241.372 215.486Z" fill="#00A5D6"/>
<path d="M227.542 189.37C224.123 185.39 222.853 179.314 222.383 175.442L223.048 172.139L223.905 172.474L231.954 179.699L231.169 192.744C230.044 191.946 228.818 190.854 227.542 189.37Z" fill="#FF9E00"/>
<path d="M225.752 176.378C227.072 182.602 232.812 186.042 237.575 185.032C242.338 184.022 243.381 177.995 242.059 171.77C240.737 165.546 236.748 162.274 231.984 163.282C227.221 164.291 224.43 170.155 225.752 176.378Z" fill="#FF9E00"/>
<path d="M220.541 181.437L216.935 187.52L236.045 201.79C236.045 201.79 234.605 195.178 234.22 192.744C233.836 190.309 220.844 180.925 220.541 181.437Z" fill="#00A5D6"/>
<path d="M243.172 159.056C251.198 161.576 244.638 171.678 242.059 171.77C239.481 171.864 238.539 169.464 236.422 170.014C234.304 170.57 232.304 166.81 231.01 167.632C229.716 168.454 230.539 176.091 231.01 177.386C231.479 178.678 229.363 178.794 229.363 178.794C229.363 178.794 228.5 173.39 227.167 173.744C225.832 174.096 224.842 177.856 222.926 178.794L221.01 179.736C221.01 179.736 219.834 171.578 218.069 170.016C216.304 168.454 217.409 163.051 219.916 161.994C222.422 160.936 223.026 156.118 226.488 155.765C229.951 155.411 232.774 157.763 237.362 157.176C241.953 156.587 240.928 158.352 243.172 159.056Z" fill="#231F20"/>
<path d="M223.727 175.066C224.387 176.618 225.856 177.48 227.007 176.99C228.157 176.501 228.557 174.848 227.896 173.294C227.236 171.742 225.767 170.88 224.616 171.37C223.466 171.859 223.066 173.512 223.727 175.066Z" fill="#FF9E00"/>
<path d="M215.009 197.538C215.009 197.538 234.701 219.411 241.79 226.174C241.886 232.475 241.836 239.814 241.745 246.338C237.905 244.45 227.233 238.93 221.156 233.08C213.654 225.853 210.306 209.286 215.009 197.538Z" fill="#00A5D6"/>
<path d="M272.902 226.342C274.201 218.267 288.876 194.762 294.417 192.046C297.474 190.55 325.06 195.194 325.06 195.194C325.06 195.194 293.765 222.326 289.746 236.87C286.154 249.861 286.593 254.779 286.593 254.779L273.953 245.55C273.953 245.552 270.946 238.498 272.902 226.342Z" fill="#FFC400"/>
<path d="M269.428 226.165C269.428 226.165 274.137 220.339 276.015 220.901C277.892 221.462 278.604 221.554 280.251 221.462C281.897 221.371 282.016 223.75 279.663 228.026C277.309 232.301 270.956 233.158 269.428 233.08C267.899 233.003 269.428 226.165 269.428 226.165Z" fill="#FF9E00"/>
<path d="M217.209 192.744C209.593 194.768 212.071 214.046 216.361 222.008C219.447 227.728 229.751 233.563 236.045 235.2C242.339 236.835 269.644 233.435 269.644 233.435C269.644 233.435 270.648 224.445 268.747 224.445C266.847 224.445 244.303 223.923 238.245 218.456C232.187 212.987 226.404 190.301 217.209 192.744Z" fill="#00A5D6"/>
<path d="M311.27 197.035H297.163V201.59H311.27V197.035Z" fill="url(#paint8_linear)"/>
<path d="M305.091 209.813C305.026 209.813 304.96 209.803 304.896 209.779L294.71 206.035C294.417 205.928 294.267 205.603 294.377 205.312C294.484 205.018 294.81 204.87 295.101 204.978L305.285 208.722C305.58 208.829 305.727 209.154 305.62 209.445C305.537 209.67 305.322 209.813 305.091 209.813Z" fill="#929497"/>
<path d="M303.219 211.766C303.153 211.766 303.089 211.754 303.026 211.733C299.93 210.608 293.945 208.442 293.441 208.294C293.142 208.203 292.974 207.891 293.063 207.592C293.152 207.294 293.466 207.125 293.765 207.214C294.425 207.411 303.046 210.541 303.412 210.674C303.704 210.779 303.856 211.106 303.75 211.397C303.665 211.626 303.449 211.766 303.219 211.766Z" fill="#929497"/>
<path d="M299.683 214.595C299.609 214.595 299.536 214.581 299.462 214.55C296.394 213.251 291.322 211.147 290.771 211.038C290.465 210.978 290.266 210.68 290.329 210.374C290.39 210.07 290.686 209.872 290.992 209.934C291.822 210.101 298.562 212.946 299.904 213.514C300.191 213.635 300.325 213.966 300.204 214.253C300.112 214.467 299.902 214.595 299.683 214.595Z" fill="#929497"/>
<path d="M297.163 217.408C297.091 217.408 297.017 217.394 296.945 217.365L288.305 213.76C288.019 213.64 287.883 213.309 288.003 213.021C288.123 212.734 288.453 212.598 288.741 212.72L297.381 216.325C297.668 216.445 297.805 216.776 297.684 217.062C297.594 217.278 297.384 217.408 297.163 217.408Z" fill="#929497"/>
<path d="M309.173 198.902H294.404V203.597H309.173V198.902Z" fill="url(#paint9_linear)"/>
<path d="M216.887 120.405H127.958C127.006 120.405 126.229 121.328 126.229 122.456V122.73C126.229 123.858 127.006 124.781 127.958 124.781H216.887C217.838 124.781 218.615 123.858 218.615 122.73V122.456C218.615 121.328 217.838 120.405 216.887 120.405Z" fill="#929497"/>
<path d="M216.887 128.245H127.958C127.006 128.245 126.229 129.168 126.229 130.296V130.57C126.229 131.698 127.006 132.619 127.958 132.619H216.887C217.838 132.619 218.615 131.696 218.615 130.57V130.296C218.615 129.166 217.838 128.245 216.887 128.245Z" fill="#929497"/>
<path d="M376.97 160.342C377.208 160.258 377.313 160.038 377.513 159.97C377.54 159.904 377.607 159.877 377.662 159.85C377.667 159.834 377.662 159.814 377.655 159.792C377.836 159.683 377.998 159.55 378.126 159.368C378.355 159.272 378.527 159.061 378.786 159.002C378.806 158.995 378.825 158.99 378.849 158.986C379.009 159.067 379.145 158.922 379.31 158.936C379.643 158.974 379.919 158.826 380.187 158.646C380.409 158.494 380.633 158.363 380.92 158.442C380.975 158.461 381.048 158.437 381.111 158.418C381.266 158.373 381.428 158.307 381.593 158.282C381.787 158.25 381.933 158.184 382.024 158.01C382.093 157.877 382.195 157.834 382.34 157.907C382.471 157.978 382.599 157.962 382.734 157.906C382.875 157.851 383.027 157.826 383.168 157.8C383.421 157.752 383.464 157.714 383.472 157.458C383.477 157.39 383.475 157.323 383.479 157.261C383.475 156.942 383.629 156.726 383.906 156.581C384.035 156.514 384.177 156.45 384.313 156.395C384.605 156.278 384.616 156.275 384.507 155.984C384.414 155.762 384.464 155.546 384.522 155.341C384.552 155.229 384.616 155.157 384.757 155.245C384.949 155.371 385.158 155.357 385.35 155.221C385.449 155.144 385.568 155.098 385.691 155.059C385.898 154.992 385.994 155.046 386.01 155.261C386.029 155.541 386.096 155.803 386.141 156.074C386.191 156.432 386.271 156.774 386.413 157.109C386.559 157.438 386.816 157.552 387.152 157.419C387.256 157.378 387.365 157.333 387.476 157.293C387.777 157.187 387.807 157.115 387.681 156.829C387.559 156.552 387.496 156.27 387.498 155.968C387.5 155.707 387.474 155.44 387.461 155.181C387.452 155.04 387.355 154.858 387.524 154.784C387.652 154.738 387.753 154.898 387.847 154.992C388.23 155.379 388.688 155.656 389.225 155.786C389.608 155.878 389.952 155.776 390.292 155.6C390.231 155.627 390.178 155.659 390.117 155.685C389.824 155.814 389.528 155.778 389.225 155.786C389.329 155.906 389.494 155.834 389.616 155.901C389.954 155.906 390.247 155.757 390.532 155.619C390.628 155.576 390.612 155.448 390.681 155.379C390.737 155.336 390.814 155.323 390.846 155.24C390.864 155.186 390.841 155.149 390.851 155.102C390.88 155.01 390.989 154.984 390.979 154.885C390.981 154.667 390.705 154.29 390.489 154.208C390.471 154.205 390.452 154.219 390.431 154.222C390.394 154.238 390.351 154.254 390.316 154.269C390.303 154.298 390.292 154.326 390.281 154.354C390.263 154.379 390.25 154.402 390.241 154.432C390.223 154.461 390.21 154.485 390.197 154.518C390.18 154.589 390.132 154.651 390.06 154.693C390.042 154.747 389.997 154.771 389.962 154.79C389.967 154.813 389.973 154.83 389.98 154.853C389.933 154.902 389.874 154.95 389.826 155.01C389.672 155.186 389.614 155.211 389.401 155.128C389.236 155.062 389.095 154.96 388.951 154.846C388.466 154.462 387.993 154.066 387.49 153.706C387.418 153.555 387.389 153.394 387.383 153.222C387.362 152.931 387.413 152.642 387.349 152.357C387.344 152.352 387.335 152.354 387.328 152.349H387.333L387.349 152.357C387.389 152.238 387.41 152.126 387.365 152.008C387.373 151.998 387.389 151.989 387.397 151.986C387.346 151.723 387.405 151.462 387.354 151.208" fill="white"/>
<path d="M383.203 152.03C382.726 152.822 382.232 153.602 381.604 154.302C381.444 154.488 381.263 154.666 381.125 154.877C380.797 155.384 380.409 155.842 380.017 156.291C379.956 156.362 379.884 156.43 379.861 156.528C379.676 156.749 379.482 156.974 379.285 157.19C379.076 157.421 378.822 157.621 378.66 157.898C378.62 157.934 378.58 157.987 378.578 158.046C378.44 158.094 378.323 158.179 378.237 158.302C378.128 158.475 377.985 158.614 377.817 158.728C377.782 158.79 377.727 158.853 377.798 158.93C377.651 159.027 377.662 159.24 377.49 159.325C377.497 159.341 377.498 159.355 377.495 159.368C377.311 159.534 377.218 159.768 377.112 159.982C377.035 160.078 376.986 160.186 376.968 160.342" fill="#FFC400"/>
<path d="M386.092 151.451C386.092 151.939 386.077 152.422 386.048 152.907C386.036 153.074 386.026 153.27 385.856 153.386C385.664 153.536 385.508 153.725 385.353 153.904C385.156 154.114 385.095 154.131 384.831 154.013C384.68 153.942 384.533 153.896 384.381 153.874C384.366 153.851 384.361 153.835 384.357 153.816C384.299 153.834 384.24 153.845 384.184 153.859C384.107 153.864 384.033 153.872 383.963 153.893C383.884 153.941 383.807 153.992 383.738 154.038C383.711 154.059 383.692 154.078 383.671 154.106C383.647 154.152 383.617 154.206 383.589 154.261C383.57 154.339 383.528 154.411 383.543 154.493C383.536 154.494 383.535 154.496 383.535 154.502C383.458 154.618 383.403 154.744 383.338 154.877C383.27 155.008 383.203 155.16 383.168 155.314C383.097 155.637 383.017 155.944 382.62 156.029C382.526 156.048 382.447 156.146 382.397 156.245C382.285 156.458 382.12 156.651 382.043 156.878C381.981 157.048 381.872 157.13 381.694 157.149C381.462 157.222 381.228 157.347 380.97 157.301C380.925 157.222 380.964 157.173 381.004 157.122C381.351 156.67 381.668 156.194 382.05 155.77C382.167 155.651 382.268 155.51 382.335 155.35C382.356 155.317 382.373 155.28 382.401 155.248C382.421 155.234 382.433 155.211 382.447 155.194C382.49 155.16 382.53 155.13 382.567 155.104C382.602 155.093 382.615 155.077 382.634 155.064C382.668 155.042 382.692 155.01 382.715 154.982C382.734 154.97 382.747 154.947 382.764 154.928C382.782 154.909 382.788 154.894 382.798 154.866C382.806 154.862 382.819 154.853 382.824 154.837C382.835 154.821 382.851 154.81 382.862 154.794C382.883 154.774 382.894 154.765 382.91 154.746C382.953 154.709 383.001 154.688 383.03 154.658C383.049 154.638 383.062 154.622 383.069 154.606C383.181 154.541 383.27 154.469 383.341 154.37C383.359 154.344 383.368 154.315 383.379 154.291C383.391 154.282 383.395 154.266 383.402 154.253C383.416 154.248 383.431 154.237 383.448 154.219C383.455 154.205 383.474 154.192 383.487 154.176C383.504 154.165 383.512 154.147 383.525 154.133L383.546 154.112C383.554 154.102 383.559 154.096 383.568 154.093C383.575 154.09 383.575 154.09 383.578 154.09L383.575 154.083C383.581 154.082 383.583 154.075 383.589 154.064C383.597 154.056 383.621 154.042 383.634 154.027C383.634 154.027 383.657 154.013 383.652 154.006C383.668 153.99 383.685 153.979 383.7 153.968C383.714 153.949 383.729 153.934 383.741 153.923C383.749 153.914 383.756 153.904 383.762 153.896C383.794 153.874 383.82 153.854 383.844 153.826C383.866 153.806 383.882 153.789 383.898 153.771C384.027 153.648 384.102 153.493 384.212 153.355C384.217 153.339 384.227 153.331 384.232 153.317C384.246 153.299 384.259 153.277 384.269 153.253C384.278 153.229 384.288 153.208 384.301 153.184C384.318 153.16 384.341 153.139 384.363 153.112C384.371 153.098 384.384 153.075 384.385 153.054C384.382 153.034 384.39 153.014 384.403 152.995L384.401 152.989C384.424 152.938 384.483 152.926 384.502 152.888C384.623 152.534 384.89 152.285 385.066 151.97C385.119 151.874 385.199 151.778 385.145 151.65" fill="#FFC400"/>
<path d="M390.642 155.413C390.634 155.421 390.637 155.444 390.624 155.447C390.611 155.45 390.603 155.46 390.587 155.465C390.611 155.45 390.627 155.431 390.642 155.413Z" fill="#FFC400"/>
<path d="M542.367 166.214L542.373 166.216C542.354 166.226 542.336 166.232 542.323 166.243C542.264 166.315 542.304 166.437 542.213 166.49C542.045 166.381 542.065 166.171 541.934 166.042C541.939 165.99 541.961 165.946 541.984 165.901C542.141 165.97 542.232 166.125 542.367 166.214ZM542.786 167.39L542.783 167.397C542.77 167.39 542.773 167.371 542.761 167.363C542.778 167.366 542.772 167.397 542.786 167.39ZM542.623 167.611C542.612 167.605 542.607 167.597 542.597 167.587C542.61 167.592 542.612 167.595 542.616 167.595C542.613 167.598 542.624 167.606 542.623 167.611ZM542.584 167.824C542.57 167.87 542.565 167.92 542.597 167.963C542.589 167.981 542.586 168.002 542.586 168.018C542.584 168.051 542.589 168.082 542.588 168.115C542.575 168.2 542.588 168.275 542.639 168.344C542.661 168.462 542.639 168.571 542.567 168.67C542.576 168.755 542.594 168.838 542.629 168.918C542.616 168.944 542.602 168.971 542.599 169C542.607 169.072 542.628 169.131 542.713 169.142C542.708 169.15 542.709 169.149 542.701 169.162C542.644 169.298 542.681 169.435 542.685 169.574C542.708 169.955 542.798 170.33 542.796 170.714C542.833 170.994 542.838 171.275 542.884 171.55C542.922 171.754 542.844 171.938 542.884 172.128C542.983 172.598 542.922 173.07 542.932 173.542C542.93 173.621 542.937 173.698 542.932 173.778C542.937 173.851 542.932 173.936 542.842 173.982C542.745 173.91 542.66 173.832 542.583 173.762C542.427 173.592 542.253 173.445 542.072 173.301C541.61 172.918 541.104 172.6 540.595 172.288C540.314 172.114 540.207 171.848 540.145 171.499C540.657 171.722 541.123 171.598 541.593 171.515C541.771 171.482 541.904 171.382 542.041 171.259C542.49 170.837 542.469 170.317 542.357 169.773C542.253 169.398 542.16 169.019 541.955 168.675C541.868 168.538 541.888 168.398 542.003 168.288C542.162 168.131 542.232 167.946 542.25 167.733C542.253 167.709 542.253 167.682 542.254 167.656C542.302 167.584 542.341 167.482 542.474 167.555C542.487 167.563 542.506 167.56 542.519 167.566C542.53 167.658 542.549 167.742 542.584 167.824ZM543.059 169.65C543.027 169.629 542.979 169.616 542.983 169.573C543.001 169.405 542.924 169.24 542.959 169.074V169.072C542.85 169.325 542.905 169.501 543.059 169.65ZM543.177 169.733C543.168 169.73 543.16 169.726 543.152 169.722C543.163 169.723 543.172 169.72 543.185 169.718C543.179 169.725 543.179 169.73 543.177 169.733C543.177 169.733 543.179 169.736 543.179 169.739C543.179 169.739 543.174 169.739 543.172 169.744C543.174 169.739 543.177 169.734 543.177 169.733ZM543.285 169.63C543.28 169.648 543.273 169.664 543.265 169.68C543.262 169.688 543.252 169.691 543.248 169.701C543.26 169.677 543.275 169.654 543.285 169.63ZM537.81 171.389C537.794 171.344 537.777 171.306 537.745 171.267C537.727 171.251 537.702 171.229 537.681 171.219C537.541 171.099 537.336 171.149 537.211 171.006C537.086 170.846 536.936 170.722 536.774 170.602C536.747 170.581 536.708 170.568 536.684 170.549C536.51 170.288 536.359 170.013 536.232 169.726C536.204 169.664 536.143 169.616 536.091 169.555C536.075 169.558 536.069 169.573 536.056 169.584L536.051 169.578C536.064 169.57 536.077 169.558 536.091 169.555C535.938 169.221 535.752 168.901 535.693 168.526C535.685 168.453 535.648 168.374 535.596 168.307C535.604 168.288 535.627 168.274 535.63 168.25C535.665 168.064 535.604 167.883 535.622 167.698C535.645 167.552 535.612 167.35 535.774 167.296C535.925 167.25 536.011 167.422 536.1 167.52C536.43 167.867 536.681 168.28 537 168.634C537.011 168.642 537.025 168.64 537.033 168.646C537.037 168.683 537.017 168.734 537.051 168.755C537.229 168.875 537.296 169.08 537.429 169.229C537.464 169.253 537.506 169.253 537.549 169.264C537.599 169.323 537.649 169.381 537.703 169.435C537.62 169.613 537.721 169.754 537.804 169.883C537.966 170.117 538.102 170.36 538.275 170.59C538.294 170.613 538.321 170.63 538.349 170.645C538.357 170.65 538.373 170.658 538.386 170.664C538.395 170.67 538.4 170.667 538.411 170.674C538.421 170.701 538.445 170.725 538.454 170.75C538.536 170.902 538.647 171.038 538.711 171.195C538.754 171.282 538.834 171.379 538.77 171.467C538.69 171.568 538.575 171.514 538.474 171.48C538.273 171.414 538.08 171.346 537.875 171.403C537.854 171.398 537.834 171.394 537.82 171.39C537.815 171.392 537.81 171.389 537.81 171.389ZM535.769 169.491C535.781 169.498 535.792 169.502 535.798 169.506C535.792 169.517 535.811 169.526 535.803 169.539C535.794 169.51 535.771 169.51 535.769 169.491ZM537.163 171.941C537.112 171.91 537.07 171.872 537.014 171.851C536.913 171.814 536.844 171.768 536.828 171.646C536.83 171.629 536.819 171.608 536.812 171.59C536.875 171.762 536.958 171.904 537.163 171.941ZM540.25 174.326C540.18 174.29 540.124 174.23 540.047 174.205C539.983 174.178 539.94 174.125 539.89 174.074C540.012 174.163 540.127 174.24 540.25 174.326ZM542.802 163.15C542.684 163.062 542.359 163.085 542.23 163.208C542.021 163.394 541.822 163.598 541.617 163.787C541.497 163.898 541.469 164.026 541.514 164.17C541.55 164.27 541.57 164.386 541.654 164.464C541.711 164.722 541.687 164.976 541.617 165.23C541.566 165.405 541.458 165.531 541.284 165.606C541.253 165.622 541.245 165.651 541.213 165.67C540.881 165.797 540.729 166.138 540.468 166.357C540.409 166.4 540.39 166.51 540.497 166.534C540.79 166.605 540.822 166.848 540.912 167.066C540.87 167.222 540.946 167.37 540.947 167.522C540.965 167.779 540.92 168.005 540.713 168.197C540.539 168.357 540.402 168.563 540.218 168.718C540.09 168.827 540.071 168.941 540.201 169.082C540.314 169.194 540.393 169.339 540.491 169.47C540.548 169.678 540.608 169.886 540.673 170.091C540.718 170.221 540.684 170.304 540.563 170.36C540.35 170.448 540.137 170.523 539.941 170.648C539.84 170.715 539.739 170.696 539.68 170.562C539.579 170.334 539.451 170.12 539.387 169.872C539.323 169.64 539.211 169.43 539.116 169.21C538.922 168.76 538.615 168.376 538.395 167.942C538.397 167.8 538.232 167.747 538.224 167.6C538.104 167.502 538.035 167.373 537.953 167.24C537.847 167.067 537.689 166.938 537.561 166.79C537.549 166.776 537.541 166.762 537.527 166.746C537.522 166.738 537.511 166.733 537.503 166.726C537.405 166.626 537.333 166.494 537.227 166.41C537.154 166.349 537.061 166.357 536.989 166.318C536.92 166.285 536.86 166.27 536.787 166.242C536.657 166.198 536.529 166.136 536.381 166.136C536.075 166.102 535.781 166.178 535.504 166.342C535.391 166.374 535.27 166.389 535.183 166.472C535.089 166.563 534.993 166.654 534.892 166.736C534.563 166.998 534.405 167.339 534.417 167.757C534.356 167.88 534.385 167.998 534.413 168.12C534.408 168.154 534.397 168.19 534.389 168.227C534.395 168.261 534.408 168.283 534.414 168.317C534.536 168.55 534.581 168.821 534.776 169.022C534.819 169.069 534.818 169.138 534.81 169.205C534.824 169.235 534.832 169.264 534.842 169.293C534.85 169.318 534.863 169.35 534.879 169.376C534.92 169.406 534.957 169.438 534.964 169.49C535.004 169.517 535.047 169.55 535.061 169.605C535.1 169.63 535.135 169.666 535.143 169.723C535.154 169.747 535.167 169.776 535.185 169.803C535.282 169.917 535.359 170.058 535.468 170.144C535.677 170.312 535.8 170.533 535.906 170.771C536.018 170.826 536.125 170.882 536.149 171.021C536.194 171.05 536.231 171.082 536.24 171.136C536.285 171.163 536.321 171.197 536.332 171.248C536.441 171.31 536.558 171.36 536.578 171.501C536.615 171.523 536.652 171.541 536.687 171.558C536.718 171.798 536.833 171.958 537.088 171.986C537.202 171.997 537.301 172.066 537.371 172.149C537.573 172.424 537.87 172.605 538.132 172.79C538.507 173.059 538.873 173.344 539.212 173.635C539.786 174.136 540.433 174.506 541.061 174.914C541.207 175.006 541.365 175.086 541.546 175.03C541.86 175.002 542.163 174.941 542.467 174.87C542.7 174.928 542.878 174.84 542.995 174.646C543.035 174.573 543.116 174.578 543.172 174.541C543.254 174.499 543.328 174.44 543.419 174.421C543.498 174.411 543.584 174.4 543.658 174.389C543.77 174.374 543.804 174.259 543.885 174.216C543.97 174.173 544.057 174.12 544.103 174.046C544.134 174.003 544.201 174.016 544.218 173.96C544.305 173.693 544.329 173.426 544.324 173.158C544.313 172.622 544.292 172.093 544.305 171.558C544.315 171.232 544.385 170.906 544.318 170.582C544.414 170.16 544.329 169.731 544.337 169.306C544.339 169.038 544.387 168.77 544.318 168.507C544.319 168.178 544.342 167.856 544.236 167.538C544.278 167.317 544.251 167.112 544.066 166.96C544.015 166.826 543.898 166.688 543.887 166.573C543.863 166.285 543.72 166.046 543.653 165.776C543.663 165.757 543.674 165.736 543.683 165.717C543.59 165.704 543.576 165.533 543.443 165.613C543.376 166.08 543.379 166.552 543.381 167.024L543.382 167.021C543.422 167.07 543.361 167.162 543.461 167.19C543.456 167.194 543.45 167.19 543.45 167.195C543.425 167.136 543.406 167.078 543.382 167.021C543.325 167.122 543.353 167.237 543.325 167.342C543.376 167.41 543.393 167.482 543.368 167.558C543.304 167.846 543.328 168.141 543.334 168.43C543.35 168.461 543.373 168.458 543.403 168.453V168.459C543.377 168.446 543.353 168.44 543.334 168.43C543.276 168.581 543.289 168.739 543.276 168.893C543.312 169.029 543.309 169.17 543.289 169.301C543.278 169.402 543.254 169.526 543.092 169.462C543.003 169.563 543.062 169.637 543.132 169.71C543.131 169.707 543.123 169.704 543.118 169.701L543.116 169.706L543.113 169.702L543.118 169.701C543.113 169.621 543.102 169.542 543.091 169.462C543.062 169.33 543.027 169.19 542.995 169.061C543.003 168.92 542.919 168.784 543.004 168.653C542.979 168.611 542.959 168.571 542.937 168.531C542.956 168.485 542.958 168.435 542.927 168.389L542.906 168.394C542.906 168.394 542.908 168.392 542.91 168.387C542.914 168.387 542.921 168.387 542.927 168.389C542.948 168.336 542.955 168.29 542.914 168.242C542.906 168.243 542.902 168.253 542.892 168.256L542.894 168.246L542.914 168.242C542.927 168.205 542.922 168.179 542.894 168.15L542.865 168.162C542.858 168.155 542.866 168.155 542.86 168.154C542.874 168.155 542.879 168.152 542.894 168.15C542.898 168.118 542.906 168.082 542.911 168.043C542.905 167.982 542.892 167.92 542.882 167.858C542.902 167.659 542.948 167.459 542.858 167.266C542.852 166.95 542.887 166.642 542.948 166.333C543.022 165.982 543.003 165.616 542.998 165.254C542.999 165.091 543.105 164.941 543.028 164.781C543.057 164.325 542.975 163.87 542.966 163.419C542.962 163.293 542.897 163.218 542.802 163.15Z" fill="white"/>
<path d="M284.038 236.272C284.041 236.266 284.049 236.262 284.047 236.262C284.051 236.264 284.057 236.261 284.062 236.262C284.055 236.266 284.047 236.262 284.038 236.272ZM284.043 236.088C284.043 236.088 284.041 236.086 284.044 236.08C284.041 236.086 284.047 236.082 284.043 236.088ZM283.961 236.142C283.959 236.133 283.958 236.133 283.956 236.126C283.961 236.128 283.964 236.138 283.97 236.131L283.961 236.142ZM282.558 235.914L282.559 235.909L282.562 235.91C282.561 235.909 282.559 235.915 282.558 235.914ZM282.716 232.968C282.737 232.946 282.78 232.962 282.803 232.934C282.833 232.939 282.836 232.962 282.849 232.979C282.807 232.957 282.764 232.931 282.716 232.968ZM281.63 235.782C281.632 235.784 281.633 235.778 281.636 235.779C281.635 235.792 281.64 235.787 281.64 235.802C281.635 235.798 281.63 235.79 281.63 235.782ZM282.383 233.947C282.375 233.936 282.365 233.926 282.356 233.912C282.372 233.918 282.388 233.907 282.401 233.917C282.396 233.926 282.386 233.942 282.383 233.947ZM284.284 228.688C284.284 228.682 284.286 228.674 284.289 228.669L284.293 228.67C284.289 228.677 284.289 228.69 284.289 228.696C284.286 228.694 284.288 228.69 284.284 228.688ZM284.071 229.08C283.948 229.053 283.825 229.034 283.705 228.989C283.604 228.952 283.501 228.941 283.403 228.989C283.218 229.085 283.045 229.202 282.883 229.33C282.633 229.538 282.433 229.806 282.16 229.986C282.139 229.998 282.146 230.024 282.125 230.038C282.112 230.05 282.098 230.058 282.083 230.07C282.058 230.093 282.035 230.114 282.016 230.146C281.96 230.224 281.928 230.318 281.891 230.408C281.864 230.435 281.838 230.456 281.816 230.488C281.683 230.68 281.592 230.899 281.427 231.062C281.402 231.075 281.414 231.102 281.401 231.118C281.382 231.136 281.374 231.158 281.353 231.168C281.334 231.19 281.322 231.208 281.311 231.234C281.273 231.331 281.204 231.414 281.151 231.501C281.13 231.517 281.117 231.541 281.093 231.552L281.095 231.554C281.061 231.661 281 231.752 280.941 231.85C280.896 231.914 280.85 231.99 280.815 232.059C280.797 232.078 280.781 232.091 280.76 232.107C280.744 232.126 280.726 232.144 280.717 232.158C280.717 232.158 280.717 232.157 280.714 232.157C280.658 232.158 280.63 232.218 280.581 232.229C280.412 232.557 280.239 232.891 280.07 233.222C280.046 233.262 280.015 233.296 279.999 233.341C279.866 233.76 279.634 234.126 279.413 234.494C279.365 234.571 279.362 234.654 279.432 234.709C279.543 234.808 279.597 234.952 279.685 235.067C279.533 235.248 279.32 235.21 279.124 235.23C279.104 235.229 279.091 235.21 279.072 235.206C278.884 235.05 278.764 234.858 278.702 234.626C278.657 234.446 278.661 234.267 278.7 234.085C278.756 233.805 278.756 233.512 278.843 233.245C279.051 232.581 279.328 231.95 279.69 231.35C279.812 231.235 279.879 231.083 279.972 230.947C280.225 230.576 280.485 230.195 280.826 229.89C280.912 229.813 280.978 229.723 281.048 229.63C281.061 229.616 281.076 229.608 281.087 229.597C281.197 229.437 281.359 229.342 281.495 229.218C281.609 229.253 281.696 229.186 281.779 229.125C281.896 229.032 282.005 228.928 282.12 228.83C282.566 228.459 283.073 228.269 283.658 228.576C283.783 228.643 283.876 228.77 284.03 228.776C284.047 228.766 284.049 228.758 284.06 228.747C284.06 228.747 284.059 228.752 284.055 228.758C284.065 228.768 284.079 228.773 284.089 228.784C284.118 228.843 284.147 228.898 284.171 228.954C284.206 229.053 284.177 229.093 284.071 229.08ZM280.805 235.118L280.799 235.102C280.8 235.104 280.803 235.098 280.805 235.093C280.803 235.104 280.807 235.114 280.808 235.12L280.805 235.118ZM280.424 235.293C280.292 235.277 280.185 235.326 280.086 235.419C280.199 235.376 280.313 235.336 280.424 235.293ZM281.388 231.512C281.415 231.474 281.431 231.421 281.455 231.381C281.441 231.418 281.409 231.448 281.407 231.496C281.409 231.501 281.396 231.51 281.388 231.512ZM281.05 232.179C281.053 232.173 281.058 232.168 281.063 232.157C281.061 232.163 281.061 232.17 281.06 232.178C281.058 232.178 281.052 232.173 281.05 232.179ZM280.997 232.421C280.98 232.387 280.959 232.354 280.988 232.314C281.012 232.304 281.04 232.299 281.069 232.298C281.037 232.334 281.021 232.373 280.997 232.421ZM278.746 235.05C278.748 235.037 278.743 235.035 278.745 235.029C278.753 235.038 278.764 235.051 278.77 235.061C278.761 235.056 278.758 235.048 278.746 235.05ZM278.328 234.482C278.322 234.458 278.325 234.442 278.304 234.432C278.328 234.437 278.343 234.45 278.365 234.458C278.357 234.482 278.341 234.474 278.328 234.482ZM279.229 232.026C279.229 232.026 279.227 232.024 279.221 232.022C279.229 232.019 279.235 232.002 279.241 231.997C279.238 232.003 279.233 232.022 279.229 232.026ZM279.844 230.467C279.852 230.464 279.857 230.451 279.865 230.45C279.865 230.45 279.868 230.45 279.866 230.458C279.857 230.451 279.852 230.469 279.844 230.467ZM280.196 229.392C280.196 229.392 280.193 229.39 280.196 229.387C280.199 229.386 280.199 229.382 280.207 229.378C280.201 229.386 280.199 229.394 280.196 229.392ZM279.762 231.112C279.759 231.117 279.756 231.123 279.756 231.128L279.754 231.126C279.754 231.126 279.759 231.115 279.762 231.112ZM280.952 228.71C280.935 228.741 280.914 228.768 280.907 228.81C280.914 228.778 280.919 228.728 280.93 228.726C280.943 228.723 280.946 228.712 280.952 228.71ZM282.272 227.989C282.29 227.982 282.308 227.97 282.327 227.971C282.24 228 282.16 228.035 282.08 228.067C282.144 228.045 282.205 228.013 282.272 227.989ZM278.205 233.712C278.213 233.744 278.215 233.782 278.232 233.797C278.258 233.821 278.213 233.84 278.227 233.858C278.207 233.811 278.264 233.752 278.205 233.712ZM279.45 230.189C279.53 230.114 279.584 230.022 279.619 229.92C279.629 229.976 279.618 230.029 279.579 230.072C279.541 230.12 279.491 230.15 279.45 230.189ZM279.19 230.907C279.198 230.898 279.211 230.877 279.217 230.867C279.221 230.875 279.209 230.885 279.213 230.898C279.201 230.894 279.201 230.904 279.19 230.907ZM278.372 232.53C278.442 232.4 278.501 232.264 278.482 232.112V232.114C278.452 232.205 278.389 232.307 278.416 232.376C278.447 232.438 278.41 232.482 278.376 232.52C278.378 232.52 278.373 232.525 278.372 232.53ZM279.732 229.675C279.732 229.675 279.733 229.677 279.735 229.68L279.732 229.675L279.73 229.677L279.732 229.675ZM278.551 231.738C278.554 231.733 278.559 231.723 278.562 231.717C278.573 231.702 278.578 231.685 278.593 231.672C278.583 231.686 278.573 231.704 278.577 231.717C278.565 231.718 278.565 231.738 278.551 231.738ZM278.319 232.115C278.331 232.107 278.323 232.09 278.339 232.085C278.336 232.096 278.33 232.112 278.323 232.128C278.327 232.12 278.323 232.117 278.319 232.115ZM282.767 233.816C282.836 233.722 282.924 233.65 282.972 233.555C283.099 233.331 283.261 233.13 283.413 232.931C283.429 232.912 283.442 232.898 283.451 232.883C283.511 232.805 283.557 232.72 283.618 232.645C283.745 232.482 283.874 232.322 283.979 232.138C283.98 232.134 283.98 232.131 283.982 232.126C283.987 232.114 283.993 232.11 283.996 232.101C284.041 232.072 284.119 232.016 284.095 232.125C284.092 232.152 284.081 232.179 284.076 232.21C284.071 232.226 284.063 232.238 284.059 232.254C283.977 232.587 283.846 232.902 283.748 233.234C283.649 233.334 283.604 233.456 283.548 233.581C283.424 233.869 283.178 234.029 282.876 234.022C282.814 234.014 282.734 234.034 282.702 233.974C282.66 233.899 282.735 233.858 282.767 233.816ZM284.712 229.398C284.709 229.411 284.709 229.427 284.711 229.44C284.707 229.432 284.707 229.432 284.704 229.424C284.696 229.414 284.704 229.397 284.709 229.387C284.709 229.395 284.712 229.397 284.712 229.398ZM283.991 231.998C284.06 231.97 284.107 231.918 284.144 231.861V231.859L284.145 231.861C284.078 231.888 284.031 231.942 283.991 231.998C283.99 232.005 283.988 232.011 283.982 232.022C283.975 232.014 283.969 232.016 283.963 232.014C283.974 232.005 283.98 232 283.991 231.998ZM284.204 232.037C284.2 232.042 284.195 232.04 284.188 232.043C284.192 232.038 284.195 232.027 284.192 232.026C284.2 232.03 284.204 232.034 284.204 232.037ZM282.7 234.448C282.702 234.443 282.697 234.446 282.699 234.442L282.703 234.437C282.703 234.443 282.7 234.448 282.7 234.448ZM284.235 234.051C284.249 234.042 284.256 234.021 284.268 234.014C284.236 234.04 284.22 234.064 284.198 234.094C284.214 234.08 284.217 234.056 284.235 234.051ZM284.393 234.544C284.39 234.549 284.39 234.549 284.39 234.554C284.384 234.544 284.376 234.549 284.371 234.546C284.376 234.549 284.385 234.546 284.393 234.544ZM284.85 233.694C284.864 233.694 284.872 233.698 284.88 233.701L284.882 233.702C284.868 233.694 284.861 233.699 284.848 233.699L284.85 233.694ZM287.291 235.442C287.174 235.402 287.053 235.347 286.925 235.414C286.851 235.397 286.774 235.39 286.7 235.422C286.628 235.386 286.548 235.422 286.474 235.405C286.431 235.366 286.321 235.354 286.433 235.264C286.548 235.165 286.463 235.141 286.377 235.118L286.38 235.112C286.354 235.122 286.333 235.125 286.313 235.142C286.279 235.155 286.241 235.131 286.207 235.15C286.197 235.15 286.184 235.152 286.175 235.149C286.149 235.144 286.135 235.165 286.133 235.182C286.122 235.178 286.111 235.179 286.103 235.176C286.082 235.179 286.056 235.189 286.037 235.194C286.026 235.202 286.021 235.213 286.011 235.227C285.986 235.224 285.96 235.218 285.935 235.213C285.773 235.275 285.766 235.162 285.755 235.053C285.742 234.912 285.754 234.762 285.617 234.674C285.598 234.627 285.558 234.597 285.512 234.597C285.343 234.589 285.194 234.526 285.039 234.474C284.983 234.454 284.933 234.453 284.877 234.47C284.869 234.555 284.808 234.608 284.76 234.669C284.634 234.84 284.432 234.944 284.321 235.115C284.305 235.139 284.283 235.142 284.257 235.149C283.753 235.418 283.238 235.658 282.671 235.792C282.638 235.797 282.606 235.826 282.57 235.851C282.513 235.838 282.465 235.864 282.412 235.874C282.255 235.906 282.104 235.97 281.938 235.949C281.934 235.963 281.925 235.971 281.914 235.979C281.741 235.906 281.728 235.886 281.781 235.717C281.896 235.36 282.119 235.056 282.365 234.774C282.42 234.76 282.476 234.75 282.532 234.736L282.522 234.72H282.524C282.527 234.722 282.529 234.73 282.53 234.736C282.577 234.744 282.623 234.757 282.673 234.76C282.993 234.798 283.315 234.832 283.637 234.872C283.863 234.813 284.1 234.818 284.289 234.666C284.309 234.646 284.329 234.637 284.347 234.626C284.417 234.622 284.466 234.592 284.499 234.534C284.558 234.501 284.59 234.443 284.603 234.379C284.746 234.174 284.855 233.965 284.898 233.712C284.933 233.69 284.956 233.659 284.964 233.618C285.095 233.146 285.206 232.666 285.238 232.173C285.247 232.029 285.234 231.886 285.262 231.742C285.324 231.395 285.324 231.054 285.315 230.706C285.303 230.661 285.289 230.619 285.281 230.574C285.319 230.466 285.278 230.36 285.259 230.256C285.225 230.072 285.13 229.899 285.121 229.717C285.1 229.683 285.086 229.656 285.068 229.63C285.05 229.608 285.029 229.605 285.007 229.618C285.005 229.627 285.01 229.629 285.007 229.634C285.005 229.63 285.004 229.626 285.005 229.618C285.025 229.624 285.044 229.624 285.068 229.63C285.031 229.374 284.938 229.158 284.72 228.997C284.624 228.854 284.498 228.742 284.345 228.651C284.337 228.629 284.331 228.603 284.315 228.59C283.956 228.25 283.535 228.013 283.078 227.835C282.964 227.789 282.852 227.858 282.742 227.856C282.723 227.854 282.708 227.842 282.692 227.846C282.676 227.845 282.66 227.84 282.641 227.838C282.62 227.843 282.599 227.859 282.575 227.862C282.466 227.882 282.354 227.834 282.244 227.885C282.016 227.987 281.795 228.093 281.576 228.202C281.484 228.246 281.37 228.259 281.321 228.368C281.303 228.373 281.282 228.382 281.266 228.394C281.116 228.398 281.002 228.478 280.895 228.573C280.861 228.584 280.855 228.64 280.81 228.638V228.635C280.608 228.746 280.438 228.901 280.26 229.045C280.228 229.066 280.222 229.112 280.179 229.125C280.09 229.178 280.001 229.248 279.945 229.344C279.933 229.344 279.917 229.346 279.905 229.342C279.893 229.371 279.885 229.395 279.874 229.422L279.869 229.427C279.858 229.426 279.847 229.422 279.831 229.422C279.796 229.51 279.696 229.557 279.672 229.656C279.483 229.805 279.354 230.005 279.221 230.21C279.168 230.226 279.15 230.275 279.128 230.323C279.033 230.586 278.894 230.822 278.777 231.067C278.748 231.126 278.729 231.181 278.738 231.251C278.721 231.264 278.698 231.274 278.674 231.286C278.641 231.299 278.636 231.342 278.597 231.358L278.601 231.36C278.586 231.346 278.575 231.334 278.556 231.339C278.354 231.698 278.24 232.094 278.098 232.472C278.082 232.517 278.086 232.563 278.082 232.613C278.008 232.883 277.923 233.158 277.901 233.438C277.96 233.598 277.897 233.778 277.96 233.933C277.963 234.09 277.976 234.242 278.046 234.381C278.056 234.52 278.162 234.622 278.178 234.763C278.263 234.845 278.341 234.936 278.421 235.022C278.591 235.248 278.817 235.41 279.059 235.544C279.227 235.635 279.406 235.658 279.576 235.544C279.661 235.547 279.741 235.491 279.826 235.526C279.876 235.496 279.927 235.493 279.978 235.52C280.054 235.486 280.156 235.576 280.215 235.467C280.289 235.438 280.363 235.4 280.412 235.339C280.545 235.293 280.662 235.227 280.779 235.168C280.912 235.203 280.855 235.309 280.864 235.39C280.882 235.418 280.901 235.445 280.915 235.477C280.946 235.509 280.917 235.547 280.938 235.576C280.999 235.755 281.135 235.885 281.239 236.038C281.287 236.078 281.338 236.117 281.383 236.163C281.404 236.309 281.566 236.342 281.622 236.458C281.577 236.534 281.489 236.53 281.438 236.573C281.305 236.568 281.193 236.616 281.089 236.686C280.891 236.669 280.73 236.792 280.547 236.819C280.518 236.819 280.497 236.824 280.48 236.85L280.483 236.851C280.441 236.851 280.422 236.87 280.414 236.91C280.408 236.909 280.403 236.912 280.398 236.91C280.312 236.906 280.247 236.944 280.169 236.974C280.06 237.006 279.959 237.074 279.834 237.072C279.764 237.131 279.674 237.141 279.595 237.179C279.438 237.254 279.261 237.248 279.112 237.352C279.081 237.352 279.054 237.347 279.028 237.342C278.863 237.445 278.674 237.501 278.487 237.544C278.474 237.557 278.46 237.573 278.445 237.584C278.426 237.582 278.408 237.581 278.383 237.595C278.365 237.602 278.344 237.611 278.327 237.624C278.315 237.634 278.311 237.637 278.303 237.646C278.149 237.64 278.107 237.725 278.16 237.882C278.24 238.045 278.32 238.2 278.397 238.362C278.45 238.403 278.508 238.357 278.565 238.368C278.578 238.376 278.578 238.395 278.596 238.397C278.729 238.413 278.867 238.421 278.999 238.398C279.213 238.4 279.394 238.278 279.595 238.24C279.892 238.154 280.172 238.04 280.446 237.912C280.553 237.906 280.64 237.853 280.734 237.821C281.013 237.715 281.268 237.549 281.56 237.474C281.617 237.402 281.721 237.392 281.784 237.33C281.813 237.328 281.838 237.333 281.867 237.333C282.032 237.216 282.253 237.187 282.401 237.043C282.516 236.88 282.699 236.867 282.876 236.853C283.237 236.717 283.596 236.579 283.956 236.443C283.972 236.43 283.987 236.43 283.999 236.424C284.23 236.243 284.498 236.15 284.773 236.086C284.82 236.077 284.863 236.054 284.882 236.003C284.959 235.979 285.037 235.962 285.116 235.93C285.154 235.931 285.191 235.936 285.23 235.931C285.528 235.898 285.814 235.91 286.109 235.965C286.417 236.026 286.734 236.094 287.059 236.034C287.149 236 287.232 236.08 287.328 236.05C287.332 236.046 287.332 236.046 287.34 236.042C287.396 236.048 287.453 236.07 287.513 236.051C287.541 236.019 287.588 236.038 287.618 236.032C287.681 236.027 287.745 236.035 287.806 236.029C287.947 236.016 287.99 235.922 287.923 235.795C287.894 235.749 287.851 235.71 287.801 235.685C287.641 235.592 287.472 235.507 287.291 235.442Z" fill="white"/>
<path d="M194.512 162.067C194.491 162.067 194.451 162.088 194.401 162.088C194.491 161.987 194.451 161.987 194.512 161.928C194.512 161.966 194.491 162.018 194.512 162.067ZM179.575 163.63V163.61V163.63ZM158.684 177.576C158.553 177.405 158.534 177.206 158.452 177.034C158.572 177.254 158.704 177.515 158.873 177.685C158.814 177.627 158.742 177.645 158.684 177.576ZM195.494 161.747C195.595 161.726 195.686 161.726 195.764 161.707C195.894 161.277 196.195 160.928 196.556 160.685C197.126 160.226 197.427 159.854 196.706 159.264C196.194 158.824 196.365 158.422 196.895 158.112C197.597 157.901 197.767 157.421 197.597 156.762C197.426 156.24 197.275 155.718 196.996 155.189C196.365 154.539 196.083 153.597 195.322 153.056C194.491 151.875 193.408 150.963 192.405 149.952C191.082 148.651 189.388 148.09 187.703 147.518C187.724 147.429 187.724 147.349 187.684 147.258C187.251 147.309 186.811 147.349 186.401 147.389C186.298 147.478 186.189 147.518 186.109 147.629C185.848 148.61 185.427 149.571 185.427 150.613H185.717C185.697 150.632 185.677 150.632 185.677 150.653C185.596 150.613 185.507 150.552 185.427 150.613C185.186 151.003 184.805 151.224 184.385 151.413C183.192 152.054 181.918 151.963 180.637 151.904C180.368 151.754 180.086 151.613 179.784 151.494C178 150.683 177.828 150.794 177.428 152.755C176.997 154.758 174.722 155.779 172.918 154.758C172.277 154.357 171.597 154.195 170.872 154.018C170.571 153.926 170.321 154.018 170.041 154.256C169.45 154.797 169.359 154.846 168.958 154.096C168.537 153.315 167.918 152.893 167.085 152.683C166.233 152.443 165.36 152.222 164.54 151.832C163.857 151.531 163.556 151.731 163.575 152.424C163.636 154.016 163.365 155.538 163.196 157.109C163.026 158.64 162.685 160.123 162.364 161.645C162.283 161.986 162.113 162.346 161.752 162.446C161.321 162.555 161.111 162.165 160.94 161.864C160.278 160.723 159.577 159.613 159.045 158.44C158.494 157.2 157.704 156.077 157.05 154.926C156.349 153.646 154.724 153.357 154.152 151.994C154.043 151.794 153.64 151.634 153.34 151.574C152.73 151.394 152.105 151.274 151.495 151.154C151.054 151.074 150.572 150.874 150.183 151.134C149.792 151.334 149.881 151.835 149.75 152.226C149.681 152.486 149.47 152.637 149.33 152.877C148.999 153.446 148.808 154.019 149.531 154.499C149.973 154.779 149.973 155.242 149.931 155.72C149.792 157.285 149.7 158.864 149.58 160.408C149.492 161.429 149.471 162.469 149.311 163.501C148.899 166.155 148.448 168.837 148.007 171.462C147.746 171.672 147.536 171.893 147.267 172.101C147.267 172.371 147.136 172.632 147.267 172.872C147.185 173.582 147.054 174.314 147.507 174.965C148.007 175.646 148.529 176.336 149.061 177.018C149.881 178.09 150.846 178.038 151.386 176.786C151.937 175.574 152.368 174.283 152.68 172.982C153.073 171.499 153.242 169.978 153.552 168.496C153.984 168.187 153.893 167.706 153.943 167.274C154.194 165.851 154.133 164.389 154.574 162.987C154.593 161.947 154.553 160.866 154.684 159.814C154.764 159.184 154.835 158.965 154.966 158.805C155.006 158.744 155.086 158.704 155.197 158.704C155.367 158.725 155.559 158.805 156.048 159.163C156.299 159.645 156.559 160.094 156.831 160.557C157.964 162.779 159.788 164.43 161.321 166.374C161.983 167.224 162.895 167.795 163.937 168.115C164.508 168.296 165.001 168.355 165.43 167.875C165.531 167.795 165.602 167.677 165.682 167.595C165.853 167.574 166.023 167.536 166.175 167.514C166.284 167.094 166.384 166.754 166.686 166.434C166.666 166.173 166.856 165.912 166.686 165.653C166.965 164.982 167.045 164.262 167.045 163.57C167.026 162.128 167.135 160.685 167.215 159.266C167.215 159.075 167.255 158.904 167.427 158.806C167.707 158.666 167.877 158.806 168.048 158.966C168.239 159.205 168.388 159.446 168.618 159.686C169.259 160.486 169.831 161.37 170.623 162.04C171.936 163.112 173.32 162.802 174.043 161.25C174.322 160.648 174.592 160.027 174.724 159.387C174.813 158.808 175.156 158.565 175.686 158.747C176.148 158.886 176.558 158.786 176.999 158.686C178.492 158.336 179.836 157.595 181.148 156.875C181.489 156.723 181.87 156.506 181.92 156.003C182.492 155.765 182.261 154.931 182.833 154.763C184.236 154.362 185.548 153.762 187.083 153.95C188.124 154.102 189.219 154.302 190.169 153.621C190.66 153.451 190.851 153.04 190.981 152.619C191.133 152.099 191.492 152.099 191.783 152.379C192.575 153.021 193.488 153.602 193.488 154.782C193.067 155.283 192.575 155.765 191.955 155.984C191.783 156.005 191.614 156.024 191.442 156.043C191.364 156.115 191.211 156.205 191.133 156.285C191.042 156.485 190.853 156.594 190.641 156.614C190.422 156.766 190.21 156.915 190 157.066C189.869 157.066 189.72 157.134 189.55 157.165C189.39 157.466 189.089 157.466 188.808 157.546C188.658 157.725 188.467 157.784 188.277 157.816C188.176 158.006 187.956 158.075 187.745 158.136C187.594 158.306 187.424 158.376 187.213 158.397C187.003 158.686 186.703 158.686 186.421 158.726C186.3 158.906 186.09 158.986 185.869 159.006C185.548 159.597 184.936 159.77 184.315 159.947C184.275 160.189 184.345 160.56 184.065 160.608C182.791 160.909 181.889 161.83 180.827 162.43C180.406 162.47 179.956 162.501 179.534 162.562C179.304 162.973 178.964 163.253 178.512 163.432V163.952C177.548 164.554 176.577 165.133 175.614 165.694C174.934 165.765 174.422 166.096 173.961 166.536C172.998 167.397 171.835 167.837 170.623 168.189C170.06 168.558 169.58 169.158 168.958 169.28C167.705 169.499 166.763 170.541 165.469 170.621C163.325 172.102 160.828 172.944 158.534 174.115C157.22 174.766 157.22 174.747 157.531 176.098C157.832 176.389 157.791 176.789 157.851 177.17C158.044 177.28 158.113 177.45 158.132 177.67C158.494 178.093 158.915 178.171 159.304 178.371C159.365 178.41 159.405 178.432 159.466 178.472C160.429 178.912 161.451 179.062 162.593 178.834H162.725C162.894 178.472 163.365 178.632 163.575 178.314C164.679 177.874 165.831 177.451 166.965 176.99C169.982 175.629 172.92 174.048 175.936 172.686C179.155 171.205 182.303 169.563 185.47 167.981C186.021 167.712 186.643 167.542 187.134 167.08C187.596 167.139 187.916 166.71 188.389 166.69C188.768 166.398 189.22 166.179 189.701 166.01C190.09 165.698 190.452 165.378 190.854 165.056C190.814 164.955 190.724 164.938 190.664 164.896C190.664 164.896 190.683 164.875 190.704 164.875C190.742 164.936 190.814 164.986 190.854 165.054C191.085 165.006 191.304 164.936 191.537 164.875C191.556 164.837 191.577 164.734 191.577 164.675C192.488 164.454 193.15 163.835 193.791 163.213C194.191 162.824 194.574 162.392 195.194 162.211C195.273 162.088 195.404 161.906 195.494 161.747Z" fill="white"/>
<path d="M176.441 44.7264C176.383 44.9104 176.294 45.0752 176.169 45.2192C176.044 45.3648 175.885 45.4832 175.693 45.5712C175.501 45.6592 175.271 45.7024 175.007 45.7024C174.744 45.7024 174.515 45.6592 174.321 45.5712C174.131 45.4832 173.971 45.3664 173.846 45.2192C173.721 45.0752 173.631 44.9104 173.575 44.7264C173.517 44.5424 173.488 44.3552 173.488 44.1632C173.488 43.9712 173.517 43.7856 173.575 43.6016C173.631 43.4176 173.722 43.2512 173.846 43.1072C173.971 42.9632 174.131 42.8448 174.321 42.7568C174.515 42.6672 174.744 42.624 175.007 42.624C175.271 42.624 175.501 42.6688 175.693 42.7568C175.887 42.8448 176.045 42.9616 176.169 43.1072C176.294 43.2512 176.385 43.4176 176.441 43.6016C176.497 43.7856 176.524 43.9712 176.524 44.1632C176.524 44.3552 176.497 44.5408 176.441 44.7264ZM177.614 43.1248C177.471 42.8128 177.272 42.544 177.019 42.3232C176.766 42.1008 176.468 41.9296 176.124 41.8064C175.779 41.6832 175.408 41.6208 175.007 41.6208C174.607 41.6208 174.235 41.6832 173.892 41.8064C173.549 41.9296 173.251 42.1008 172.997 42.3232C172.744 42.544 172.545 42.8128 172.402 43.1248C172.26 43.4368 172.188 43.7856 172.188 44.1632C172.188 44.5424 172.26 44.8896 172.402 45.2016C172.545 45.5152 172.744 45.7808 172.997 46.0032C173.251 46.2256 173.548 46.3968 173.892 46.52C174.235 46.6448 174.608 46.704 175.007 46.704C175.408 46.704 175.779 46.6432 176.124 46.52C176.467 46.3968 176.765 46.2256 177.019 46.0032C177.272 45.7808 177.471 45.5152 177.614 45.2016C177.756 44.8896 177.828 44.5424 177.828 44.1632C177.828 43.784 177.756 43.4368 177.614 43.1248Z" fill="#231F20"/>
<path d="M178.368 46.0128L176.34 47.8992L178.368 50.6928L180.395 47.8992L178.368 46.0128Z" fill="#231F20"/>
<path d="M196.348 45.1184H196.325H196.348ZM193.379 46.5776V45.5792H192.576V38.992H190.455V39.9904H191.258V45.5808H190.455V46.5792H193.379V46.5776ZM189.871 46.5776V45.5792H189.066V38.992H186.945V39.9904H187.748V45.5808H186.945V46.5792H189.871V46.5776ZM178.569 42.7216L180.323 46.6416H181.193L182.397 43.984L183.647 46.6416H184.542L186.332 42.7216H186.835V41.7232H184.449V42.7216H185.137L184.083 45.1488H184.059L183.051 42.7216H183.725V41.7232H181.204V42.7216H181.833L180.768 45.096H180.744L179.849 42.7216H180.411V41.7232H177.992V42.7216H178.569Z" fill="#231F20"/>
<path d="M195.603 49.3376L198.866 42.7616H199.454V41.7424H196.852V42.7616H197.579L196.325 45.2H196.301L195.175 42.7616H195.888V41.7424H193.357V42.7616H193.828L195.623 46.5936L194.279 49.3376H195.603Z" fill="#231F20"/>
<path d="M395.373 189.166C395.373 189.126 395.381 189.083 395.398 189.046C395.414 189.008 395.438 188.973 395.473 188.942C395.506 188.912 395.551 188.888 395.604 188.872C395.659 188.858 395.705 188.851 395.752 188.859C395.795 188.867 395.836 188.883 395.87 188.906C395.904 188.931 395.933 188.958 395.958 188.995C395.981 189.032 395.998 189.07 396.011 189.11C396.022 189.15 396.029 189.194 396.029 189.235C396.029 189.28 396.021 189.32 396.006 189.358C395.987 189.395 395.965 189.43 395.929 189.459C395.896 189.493 395.852 189.514 395.8 189.531C395.747 189.547 395.697 189.552 395.651 189.542C395.607 189.536 395.566 189.522 395.532 189.498C395.498 189.475 395.468 189.445 395.446 189.408C395.422 189.373 395.404 189.333 395.393 189.293C395.38 189.251 395.373 189.21 395.373 189.166ZM395.236 189.581C395.285 189.638 395.341 189.682 395.407 189.715C395.473 189.747 395.545 189.766 395.623 189.773C395.7 189.779 395.782 189.768 395.861 189.744C395.944 189.718 396.016 189.685 396.077 189.638C396.139 189.59 396.189 189.536 396.227 189.474C396.263 189.41 396.287 189.339 396.296 189.264C396.306 189.189 396.298 189.11 396.274 189.03C396.248 188.949 396.213 188.88 396.163 188.821C396.117 188.762 396.059 188.718 395.992 188.683C395.928 188.651 395.856 188.634 395.779 188.627C395.699 188.622 395.62 188.634 395.54 188.654C395.457 188.682 395.386 188.717 395.324 188.762C395.263 188.81 395.213 188.864 395.175 188.926C395.138 188.992 395.114 189.059 395.104 189.136C395.096 189.213 395.103 189.291 395.127 189.37C395.151 189.451 395.186 189.523 395.236 189.581Z" fill="#231F20"/>
<path d="M394.368 188.725L394.899 189.006L395.193 188.482L394.601 188.005L394.368 188.725Z" fill="#231F20"/>
<path d="M391.298 190.28H391.303H391.298ZM391.809 189.789L391.872 190.003L392.035 189.957L392.455 191.368L392.887 191.24L392.825 191.026L392.661 191.074L392.304 189.877L392.469 189.829L392.407 189.614L391.809 189.789ZM392.524 189.578L392.586 189.792L392.75 189.744L393.169 191.155L393.6 191.029L393.538 190.813L393.374 190.861L393.019 189.664L393.182 189.618L393.118 189.402L392.524 189.578ZM395.068 189.723L394.46 188.99L394.284 189.042L394.207 189.683L393.784 189.189L393.602 189.242L393.488 190.189L393.387 190.219L393.45 190.435L393.935 190.29L393.871 190.077L393.733 190.117L393.792 189.536L393.797 189.533L394.156 189.994L394.02 190.032L394.084 190.246L394.595 190.094L394.533 189.878L394.403 189.917L394.47 189.346L394.475 189.344L394.808 189.798L394.693 189.832L394.757 190.045L395.25 189.899L395.186 189.685L395.068 189.723Z" fill="#231F20"/>
<path d="M391.183 189.333L390.936 190.936L390.814 190.971L390.882 191.19L391.41 191.034L391.344 190.816L391.197 190.859L391.298 190.262L391.301 190.261L391.686 190.715L391.54 190.76L391.606 190.974L392.12 190.824L392.056 190.605L391.961 190.634L391.351 189.922L391.452 189.251L391.183 189.333Z" fill="#231F20"/>
<path d="M306.134 194.072C306.113 194.088 306.089 194.099 306.057 194.106C306.025 194.112 305.99 194.112 305.947 194.106C305.905 194.101 305.859 194.086 305.807 194.066C305.755 194.043 305.713 194.021 305.679 193.994C305.646 193.966 305.622 193.942 305.604 193.914C305.586 193.888 305.575 193.861 305.575 193.834C305.572 193.81 305.575 193.786 305.585 193.763C305.593 193.742 305.609 193.725 305.628 193.706C305.647 193.691 305.673 193.68 305.705 193.672C305.737 193.666 305.772 193.666 305.815 193.672C305.857 193.677 305.904 193.693 305.955 193.714C306.008 193.736 306.049 193.758 306.083 193.784C306.117 193.811 306.141 193.838 306.158 193.866C306.176 193.893 306.186 193.917 306.187 193.944C306.189 193.97 306.185 193.992 306.177 194.014C306.168 194.035 306.153 194.056 306.134 194.072ZM306.44 193.986C306.427 193.941 306.402 193.891 306.363 193.846C306.325 193.802 306.274 193.755 306.213 193.714C306.152 193.672 306.081 193.634 306.004 193.598C305.926 193.566 305.849 193.542 305.777 193.53C305.703 193.514 305.638 193.509 305.577 193.512C305.517 193.517 305.465 193.531 305.423 193.555C305.38 193.579 305.348 193.611 305.33 193.656C305.312 193.698 305.309 193.744 305.322 193.79C305.336 193.838 305.36 193.885 305.399 193.931C305.437 193.976 305.489 194.022 305.549 194.064C305.61 194.106 305.681 194.144 305.758 194.178C305.835 194.211 305.912 194.234 305.985 194.246C306.059 194.264 306.125 194.269 306.185 194.266C306.246 194.259 306.298 194.245 306.339 194.222C306.384 194.198 306.415 194.166 306.432 194.123C306.45 194.078 306.451 194.034 306.44 193.986Z" fill="#231F20"/>
<path d="M305.961 194.422L306.222 194.907L306.751 194.758L306.45 194.378L305.961 194.422Z" fill="#231F20"/>
<path d="M310.005 195.765L309.998 195.763L310.005 195.765ZM309.353 195.685L309.401 195.571L309.242 195.506L309.559 194.758L309.146 194.582L309.098 194.694L309.255 194.762L308.984 195.395L308.829 195.328L308.781 195.443L309.353 195.685ZM308.667 195.394L308.715 195.28L308.556 195.214L308.875 194.466L308.46 194.291L308.412 194.403L308.571 194.47L308.302 195.104L308.145 195.037L308.097 195.15L308.667 195.394ZM306.647 194.021L306.799 194.611L306.97 194.683L307.334 194.48L307.449 194.886L307.624 194.96L308.162 194.662L308.26 194.704L308.308 194.592L307.842 194.392L307.794 194.507L307.928 194.563L307.605 194.752L307.6 194.749L307.52 194.39L307.653 194.445L307.701 194.331L307.209 194.123L307.161 194.237L307.284 194.288L306.962 194.469L306.958 194.467L306.897 194.123L307.006 194.168L307.054 194.056L306.583 193.856L306.535 193.97L306.647 194.021Z" fill="#231F20"/>
<path d="M309.532 195.248L309.623 195.29L309.79 195.872L309.396 196.07L309.654 196.181L310.609 195.704L310.724 195.754L310.772 195.637L310.264 195.424L310.216 195.539L310.355 195.597L309.995 195.771L309.99 195.77L309.888 195.4L310.027 195.458L310.077 195.342L309.582 195.133L309.532 195.248Z" fill="#231F20"/>
<path d="M503.097 154.022C503.129 154.053 503.151 154.086 503.169 154.123C503.187 154.16 503.195 154.203 503.193 154.248C503.193 154.293 503.179 154.342 503.155 154.392C503.129 154.44 503.098 154.48 503.062 154.507C503.025 154.534 502.986 154.552 502.946 154.562C502.906 154.57 502.863 154.57 502.821 154.563C502.781 154.555 502.74 154.539 502.703 154.522C502.664 154.502 502.627 154.478 502.599 154.45C502.567 154.418 502.544 154.386 502.525 154.349C502.509 154.31 502.501 154.267 502.501 154.222C502.503 154.178 502.515 154.13 502.541 154.078C502.567 154.03 502.597 153.99 502.634 153.963C502.669 153.936 502.709 153.92 502.749 153.91C502.789 153.901 502.831 153.901 502.874 153.909C502.914 153.918 502.956 153.931 502.994 153.95C503.031 153.968 503.065 153.992 503.097 154.022ZM502.89 153.638C502.815 153.634 502.741 153.643 502.674 153.67C502.605 153.696 502.541 153.733 502.483 153.786C502.427 153.837 502.379 153.902 502.339 153.978C502.302 154.053 502.277 154.13 502.267 154.208C502.259 154.285 502.265 154.358 502.286 154.429C502.307 154.499 502.339 154.565 502.387 154.624C502.435 154.682 502.498 154.73 502.573 154.77C502.65 154.806 502.725 154.829 502.801 154.832C502.877 154.838 502.951 154.827 503.02 154.802C503.087 154.778 503.15 154.738 503.207 154.685C503.265 154.634 503.312 154.57 503.352 154.494C503.39 154.418 503.414 154.342 503.424 154.264C503.432 154.186 503.427 154.112 503.408 154.043C503.387 153.973 503.352 153.907 503.304 153.848C503.255 153.789 503.195 153.741 503.119 153.702C503.042 153.664 502.966 153.642 502.89 153.638Z" fill="#231F20"/>
<path d="M503.537 153.789L503.719 154.363L504.471 154.264L504.111 153.597L503.537 153.789Z" fill="#231F20"/>
<path d="M505.091 150.302V150.307V150.302ZM505.098 151.011L504.898 150.91L504.821 151.062L503.507 150.395L503.304 150.795L503.504 150.896L503.581 150.744L504.696 151.312L504.617 151.464L504.816 151.565L505.098 151.011ZM504.76 151.675L504.561 151.574L504.483 151.725L503.169 151.058L502.966 151.458L503.164 151.558L503.243 151.406L504.356 151.974L504.279 152.125L504.478 152.226L504.76 151.675ZM502.903 153.418L503.853 153.483L503.938 153.32L503.523 152.821L504.173 152.854L504.26 152.688L503.651 151.952L503.699 151.856L503.499 151.755L503.27 152.205L503.467 152.306L503.534 152.176L503.916 152.621L503.914 152.626L503.332 152.57L503.398 152.442L503.199 152.341L502.958 152.818L503.156 152.918L503.215 152.8L503.587 153.242L503.584 153.246L503.025 153.174L503.078 153.069L502.879 152.968L502.645 153.424L502.845 153.526L502.903 153.418Z" fill="#231F20"/>
<path d="M505.862 150.872L504.864 149.589L504.922 149.478L504.72 149.374L504.468 149.866L504.672 149.968L504.741 149.832L505.107 150.315L505.104 150.322L504.51 150.285L504.579 150.15L504.377 150.048L504.13 150.526L504.334 150.629L504.38 150.539L505.317 150.589L505.734 151.122L505.862 150.872Z" fill="#231F20"/>
<defs>
<linearGradient id="paint0_linear" x1="137.965" y1="68.1027" x2="228.297" y2="68.1027" gradientUnits="userSpaceOnUse">
<stop stop-color="#00A5D6"/>
<stop offset="0.1312" stop-color="#06A7CF"/>
<stop offset="0.3221" stop-color="#18ABBC"/>
<stop offset="0.5496" stop-color="#36B39C"/>
<stop offset="0.803" stop-color="#5FBE70"/>
<stop offset="0.989" stop-color="#81C74B"/>
<stop offset="1" stop-color="#81C74B"/>
</linearGradient>
<linearGradient id="paint1_linear" x1="137.965" y1="83.1488" x2="228.297" y2="83.1488" gradientUnits="userSpaceOnUse">
<stop stop-color="#00A5D6"/>
<stop offset="0.1312" stop-color="#06A7CF"/>
<stop offset="0.3221" stop-color="#18ABBC"/>
<stop offset="0.5496" stop-color="#36B39C"/>
<stop offset="0.803" stop-color="#5FBE70"/>
<stop offset="0.989" stop-color="#81C74B"/>
<stop offset="1" stop-color="#81C74B"/>
</linearGradient>
<linearGradient id="paint2_linear" x1="311.547" y1="245.175" x2="479.998" y2="245.175" gradientUnits="userSpaceOnUse">
<stop stop-color="#00A5D6"/>
<stop offset="0.1312" stop-color="#06A7CF"/>
<stop offset="0.3221" stop-color="#18ABBC"/>
<stop offset="0.5496" stop-color="#36B39C"/>
<stop offset="0.803" stop-color="#5FBE70"/>
<stop offset="0.989" stop-color="#81C74B"/>
<stop offset="1" stop-color="#81C74B"/>
</linearGradient>
<linearGradient id="paint3_linear" x1="430.333" y1="211.246" x2="328.853" y2="211.75" gradientUnits="userSpaceOnUse">
<stop stop-color="#00A5D6"/>
<stop offset="0.1312" stop-color="#06A7CF"/>
<stop offset="0.3221" stop-color="#18ABBC"/>
<stop offset="0.5496" stop-color="#36B39C"/>
<stop offset="0.803" stop-color="#5FBE70"/>
<stop offset="0.989" stop-color="#81C74B"/>
<stop offset="1" stop-color="#81C74B"/>
</linearGradient>
<linearGradient id="paint4_linear" x1="382.133" y1="182.347" x2="398.035" y2="183.181" gradientUnits="userSpaceOnUse">
<stop stop-color="#00A5D6"/>
<stop offset="0.1312" stop-color="#06A7CF"/>
<stop offset="0.3221" stop-color="#18ABBC"/>
<stop offset="0.5496" stop-color="#36B39C"/>
<stop offset="0.803" stop-color="#5FBE70"/>
<stop offset="0.989" stop-color="#81C74B"/>
<stop offset="1" stop-color="#81C74B"/>
</linearGradient>
<linearGradient id="paint5_linear" x1="381.522" y1="178.959" x2="396.945" y2="179.768" gradientUnits="userSpaceOnUse">
<stop stop-color="#00A5D6"/>
<stop offset="0.1312" stop-color="#06A7CF"/>
<stop offset="0.3221" stop-color="#18ABBC"/>
<stop offset="0.5496" stop-color="#36B39C"/>
<stop offset="0.803" stop-color="#5FBE70"/>
<stop offset="0.989" stop-color="#81C74B"/>
<stop offset="1" stop-color="#81C74B"/>
</linearGradient>
<linearGradient id="paint6_linear" x1="504.742" y1="152.944" x2="512.825" y2="152.944" gradientUnits="userSpaceOnUse">
<stop stop-color="#00A5D6"/>
<stop offset="0.1312" stop-color="#06A7CF"/>
<stop offset="0.3221" stop-color="#18ABBC"/>
<stop offset="0.5496" stop-color="#36B39C"/>
<stop offset="0.803" stop-color="#5FBE70"/>
<stop offset="0.989" stop-color="#81C74B"/>
<stop offset="1" stop-color="#81C74B"/>
</linearGradient>
<linearGradient id="paint7_linear" x1="508.521" y1="153.443" x2="516.451" y2="153.443" gradientUnits="userSpaceOnUse">
<stop stop-color="#00A5D6"/>
<stop offset="0.1312" stop-color="#06A7CF"/>
<stop offset="0.3221" stop-color="#18ABBC"/>
<stop offset="0.5496" stop-color="#36B39C"/>
<stop offset="0.803" stop-color="#5FBE70"/>
<stop offset="0.989" stop-color="#81C74B"/>
<stop offset="1" stop-color="#81C74B"/>
</linearGradient>
<linearGradient id="paint8_linear" x1="297.203" y1="199.314" x2="311.214" y2="199.314" gradientUnits="userSpaceOnUse">
<stop stop-color="#00A5D6"/>
<stop offset="0.1312" stop-color="#06A7CF"/>
<stop offset="0.3221" stop-color="#18ABBC"/>
<stop offset="0.5496" stop-color="#36B39C"/>
<stop offset="0.803" stop-color="#5FBE70"/>
<stop offset="0.989" stop-color="#81C74B"/>
<stop offset="1" stop-color="#81C74B"/>
</linearGradient>
<linearGradient id="paint9_linear" x1="294.451" y1="201.275" x2="309.124" y2="201.275" gradientUnits="userSpaceOnUse">
<stop stop-color="#00A5D6"/>
<stop offset="0.1312" stop-color="#06A7CF"/>
<stop offset="0.3221" stop-color="#18ABBC"/>
<stop offset="0.5496" stop-color="#36B39C"/>
<stop offset="0.803" stop-color="#5FBE70"/>
<stop offset="0.989" stop-color="#81C74B"/>
<stop offset="1" stop-color="#81C74B"/>
</linearGradient>
</defs>
</svg>
