<?xml version="1.0" encoding="UTF-8" standalone="no"?><!DOCTYPE svg PUBLIC "-//W3C//DTD SVG 1.1//EN" "http://www.w3.org/Graphics/SVG/1.1/DTD/svg11.dtd"><svg width="100%" height="100%" viewBox="0 0 793 552" version="1.1" xmlns="http://www.w3.org/2000/svg" xmlns:xlink="http://www.w3.org/1999/xlink" xml:space="preserve" xmlns:serif="http://www.serif.com/" style="fill-rule:evenodd;clip-rule:evenodd;stroke-linejoin:round;stroke-miterlimit:1.41421;"><ellipse cx="158" cy="539.732" rx="158" ry="12" style="fill:#e6e6e6;"/><path d="M120.772,122.42c27.497,-11.696 61.745,-4.286 95.191,0.857c0.311,-6.228 4.084,-13.808 0.132,-18.153c-4.801,-5.279 -4.359,-10.825 -1.47,-16.403c7.388,-14.265 -3.197,-29.444 -13.884,-42.065c-4.882,-5.752 -12.231,-8.837 -19.756,-8.292l-19.797,1.414c-9.843,0.703 -18.263,7.481 -21.053,16.946c-4.727,6.429 -7.257,12.841 -5.664,19.219c-7.081,4.839 -8.271,10.68 -5.089,17.264c2.698,4.146 2.669,8.182 -0.123,12.106c-3.666,5.003 -6.475,10.581 -8.31,16.506l-0.177,0.601Z" style="fill:#2f2e41;fill-rule:nonzero;"/><path d="M774.209,476.963l-560.418,0c-10.308,0 -18.791,-8.483 -18.791,-18.791c203.151,-23.61 402.485,-23.61 598,0c0,10.308 -8.483,18.791 -18.791,18.791Z" style="fill:#2f2e41;fill-rule:nonzero;"/><path d="M793,459.277l-598,-1.105l69.306,-116.616l0.332,-0.552l0,-257.008c0,0 0,-0.001 0,-0.002c0,-13.03 10.722,-23.752 23.752,-23.752c0.001,0 0.001,0 0.002,0l407.9,0c0.001,0 0.001,0 0.002,0c13.03,0 23.752,10.722 23.752,23.752c0,0.001 0,0.002 0,0.002l0,258.776l72.954,116.505Z" style="fill:#3f3d56;fill-rule:nonzero;"/><path d="M287.85,76.823c-4.243,0.004 -7.732,3.494 -7.737,7.737l0,234.336c0.005,4.243 3.494,7.733 7.737,7.738l412.3,0c4.242,-0.005 7.732,-3.495 7.737,-7.738l0,-234.336c-0.005,-4.243 -3.494,-7.733 -7.737,-7.737l-412.3,0Z" style="fill:#fff;fill-rule:nonzero;"/><path d="M289.578,357.584c-1.292,0.002 -2.471,0.757 -3.013,1.93l-21.355,46.425c-0.2,0.435 -0.304,0.908 -0.304,1.386c0,1.82 1.497,3.316 3.316,3.316l449.092,0c1.819,0 3.316,-1.496 3.316,-3.315c0,-0.515 -0.12,-1.023 -0.351,-1.484l-23.212,-46.425c-0.558,-1.124 -1.711,-1.837 -2.965,-1.833l-404.524,0Z" style="fill:#2f2e41;fill-rule:nonzero;"/><circle cx="492.342" cy="67.98" r="4.974" style="fill:#fff;"/><path d="M448.2,419.484c-1.494,0.002 -2.812,1.012 -3.202,2.454l-5.357,19.896c-0.075,0.282 -0.114,0.572 -0.114,0.863c0,1.819 1.497,3.316 3.316,3.316l101.874,0c1.819,0 3.315,-1.497 3.315,-3.315c0,-0.37 -0.061,-0.737 -0.182,-1.086l-6.887,-19.896c-0.462,-1.332 -1.724,-2.231 -3.134,-2.232l-89.629,0Z" style="fill:#2f2e41;fill-rule:nonzero;"/><path d="M720.046,337.135l0,4.421l-455.74,0l0.343,-0.552l0,-3.869l455.397,0Z" style="fill:#2f2e41;fill-rule:nonzero;"/><circle cx="707.335" cy="77.375" r="77.375" style="fill:#fdc600;"/><path d="M739.39,111.089l-64.111,0c-2.425,-0.003 -4.419,-1.997 -4.421,-4.422l0,-38.687c0.002,-2.425 1.997,-4.419 4.421,-4.422l64.111,0c2.425,0.003 4.419,1.997 4.421,4.422l0,38.687c-0.002,2.425 -1.996,4.419 -4.421,4.422Zm-64.111,-43.109l0,38.687l64.114,0l-0.003,-38.687l-64.111,0Z" style="fill-rule:nonzero;"/><path d="M727.231,67.98l-39.793,0l0,-17.686c0,-12.81 8.368,-22.107 19.897,-22.107c11.528,0 19.896,9.297 19.896,22.107l0,17.686Zm-35.371,-4.422l30.95,0l0,-13.264c0,-10.413 -6.364,-17.686 -15.475,-17.686c-9.112,0 -15.475,7.273 -15.475,17.686l0,13.264Z" style="fill-rule:nonzero;"/><circle cx="707.335" cy="86.218" r="4.421"/><path d="M653.32,247.149l-318.64,0c-3.236,-0.003 -5.897,-2.665 -5.901,-5.9l0,-79.041c0.004,-3.236 2.665,-5.897 5.901,-5.901l318.64,0c3.236,0.004 5.897,2.665 5.901,5.901l0,79.041c-0.004,3.235 -2.665,5.897 -5.901,5.9Zm-318.64,-88.482c-1.941,0.002 -3.538,1.599 -3.54,3.541l0,79.041c0.002,1.941 1.599,3.538 3.54,3.54l318.64,0c1.941,-0.002 3.538,-1.599 3.54,-3.54l0,-79.041c-0.002,-1.942 -1.599,-3.539 -3.54,-3.541l-318.64,0Z" style="fill:url(#_Linear1);fill-rule:nonzero;"/><circle cx="384.19" cy="198.695" r="24.036" style="fill:#e6e6e6;"/><path d="M439.703,182.671c-0.002,0 -0.004,0 -0.006,0c-2.198,0 -4.006,1.809 -4.006,4.006c0,2.198 1.808,4.006 4.006,4.006c0.002,0 0.004,0 0.006,0l188.858,0c2.197,0 4.006,-1.808 4.006,-4.006c0,-2.197 -1.809,-4.006 -4.006,-4.006l-188.858,0Z" style="fill:#e6e6e6;fill-rule:nonzero;"/><path d="M439.703,206.708c-2.198,0 -4.006,1.808 -4.006,4.006c0,2.197 1.808,4.006 4.006,4.006c0,0 81.266,0 81.266,0c2.198,0 4.006,-1.809 4.006,-4.006c0,-2.198 -1.808,-4.006 -4.006,-4.006c0,0 -81.266,0 -81.266,0Z" style="fill:#e6e6e6;fill-rule:nonzero;"/><path d="M263.522,208.328l-58.903,31.316l-0.746,-26.097c19.226,-3.209 37.517,-8.797 54.43,-17.894l6.16,-15.22c1.574,-3.889 5.369,-6.447 9.564,-6.447c3.086,0 6.014,1.385 7.973,3.769c3.428,4.174 3.028,10.37 -0.909,14.069l-17.569,16.504Z" style="fill:#ffb8b8;fill-rule:nonzero;"/><path d="M119.598,389.133c-0.869,-3.186 -0.333,-6.596 1.469,-9.363l12.94,-19.858c6.308,-9.681 19.072,-13.048 29.335,-7.739c-5.438,9.256 -4.68,17.376 1.878,24.433c-10.181,4.97 -19.59,11.385 -27.936,19.045c-1.922,1.31 -4.194,2.011 -6.52,2.011c-5.203,0 -9.797,-3.509 -11.166,-8.529Z" style="fill:#2f2e41;fill-rule:nonzero;"/><path d="M266.205,363.169c-3.978,6.628 -11.141,10.72 -18.871,10.779l-85.96,0.651l-3.728,-21.623l38.026,-11.184l-32.062,-24.605l35.044,-41.008l63.65,59.324c7.638,7.119 9.273,18.712 3.901,27.666Z" style="fill:#006590;fill-rule:nonzero;"/><path d="M147.953,511.045l-20.132,0c-18.075,-123.898 -36.474,-248.142 17.895,-294.515l64.122,10.438l-8.202,54.43l-35.789,41.008l-17.894,188.639Z" style="fill:#006590;fill-rule:nonzero;"/><path d="M165.649,539.112c-3.186,0.869 -6.596,0.334 -9.363,-1.469l-21.859,-2.938c-9.681,-6.307 -13.049,-19.072 -7.741,-29.335c9.257,5.438 17.378,4.679 24.434,-1.879c4.986,10.067 13.201,9.453 21.047,17.935c1.31,1.921 2.011,4.194 2.011,6.52c0,5.203 -3.509,9.797 -8.529,11.166Z" style="fill:#2f2e41;fill-rule:nonzero;"/><path d="M195.672,133.767l-37.281,-8.947c6.192,-12.674 6.702,-26.776 3.728,-41.754l25.351,-0.746c0.794,18.626 3.197,36.027 8.202,51.447Z" style="fill:#ffb8b8;fill-rule:nonzero;"/><path d="M205.918,249.418c-27.139,18.493 -46.315,0.633 -60.948,-26.923c2.034,-16.862 -1.259,-37.041 -7.356,-58.967c-5.593,-19.942 5.122,-41.104 24.505,-48.401l32.061,13.421c27.224,22.191 32.582,46.227 22.369,71.579l-10.631,49.291Z" style="fill:#fdc600;fill-rule:nonzero;"/><path d="M127.821,152.408l-29.824,15.657l52.938,31.316l7.366,18.169c0.466,1.15 0.706,2.38 0.706,3.621c0,4.101 -2.618,7.773 -6.495,9.11c-1.011,0.349 -2.073,0.527 -3.142,0.527c-5.073,0 -9.322,-4.007 -9.62,-9.071l-0.745,-12.663l-67.283,-22.204c-4.591,-1.515 -8.236,-5.063 -9.873,-9.611c-2.416,-6.712 0.02,-14.267 5.903,-18.303l54.104,-37.118l5.965,30.57Z" style="fill:#ffb8b8;fill-rule:nonzero;"/><path d="M157.646,155.39c-12.439,-5.451 -23.75,0.47 -38.026,5.219l-2.237,-39.517c14.176,-7.556 27.692,-9.593 40.263,-3.728l0,38.026Z" style="fill:#fdc600;fill-rule:nonzero;"/><circle cx="172.525" cy="78.093" r="23.802" style="fill:#ffb8b8;"/><path d="M201,75.089c-23.566,2.308 -41.523,-1.546 -53,-12.52l0,-8.837l51,0l2,21.357Z" style="fill:#2f2e41;fill-rule:nonzero;"/><defs><linearGradient id="_Linear1" x1="0" y1="0" x2="1" y2="0" gradientUnits="userSpaceOnUse" gradientTransform="matrix(330.441,0,0,90.8424,328.779,201.728)"><stop offset="0" style="stop-color:#00a6d4;stop-opacity:1"/><stop offset="1" style="stop-color:#81d64f;stop-opacity:1"/></linearGradient></defs></svg>